<?xml version="1.0" encoding="us-ascii" standalone="no"?><svg xmlns="http://www.w3.org/2000/svg" xmlns:xlink="http://www.w3.org/1999/xlink" contentStyleType="text/css" height="1144px" preserveAspectRatio="none" style="width:2313px;height:1144px;background:#FFFFFF;" version="1.1" viewBox="0 0 2313 1144" width="2313px" zoomAndPan="magnify"><defs/><g><text fill="#000000" font-family="sans-serif" font-size="14" font-weight="bold" lengthAdjust="spacing" textLength="214" x="1042.5009" y="22.9951">SPA GraphML Editor - WBS</text><!--cluster SPA GraphML Editor--><g id="cluster_SPA GraphML Editor"><path d="M8.5,43.2969 L171.5,43.2969 A3.75,3.75 0 0 1 174,45.7969 L181,65.5938 L2303.5019,65.5938 A2.5,2.5 0 0 1 2306.0019,68.0938 L2306.0019,1134.7969 A2.5,2.5 0 0 1 2303.5019,1137.2969 L8.5,1137.2969 A2.5,2.5 0 0 1 6,1134.7969 L6,45.7969 A2.5,2.5 0 0 1 8.5,43.2969 " fill="none" style="stroke:#000000;stroke-width:1.5;"/><line style="stroke:#000000;stroke-width:1.5;" x1="6" x2="181" y1="65.5938" y2="65.5938"/><text fill="#000000" font-family="sans-serif" font-size="14" font-weight="bold" lengthAdjust="spacing" textLength="162" x="10" y="58.292">SPA GraphML Editor</text></g><!--cluster DEV_ENVIRONMENT--><g id="cluster_DEV_ENVIRONMENT"><path d="M57.9999,86.2969 L211.9999,86.2969 A3.75,3.75 0 0 1 214.4999,88.7969 L221.4999,108.5938 L762.4999,108.5938 A2.5,2.5 0 0 1 764.9999,111.0938 L764.9999,342.7969 A2.5,2.5 0 0 1 762.4999,345.2969 L57.9999,345.2969 A2.5,2.5 0 0 1 55.4999,342.7969 L55.4999,88.7969 A2.5,2.5 0 0 1 57.9999,86.2969 " fill="none" style="stroke:#000000;stroke-width:1.5;"/><line style="stroke:#000000;stroke-width:1.5;" x1="55.4999" x2="221.4999" y1="108.5938" y2="108.5938"/><text fill="#000000" font-family="sans-serif" font-size="14" font-weight="bold" lengthAdjust="spacing" textLength="153" x="59.4999" y="101.292">DEV_ENVIRONMENT</text></g><!--cluster WEB_APP--><g id="cluster_WEB_APP"><path d="M87.4999,369.2969 L161.4999,369.2969 A3.75,3.75 0 0 1 163.9999,371.7969 L170.9999,391.5938 L1139.5019,391.5938 A2.5,2.5 0 0 1 1142.0019,394.0938 L1142.0019,625.7969 A2.5,2.5 0 0 1 1139.5019,628.2969 L87.4999,628.2969 A2.5,2.5 0 0 1 84.9999,625.7969 L84.9999,371.7969 A2.5,2.5 0 0 1 87.4999,369.2969 " fill="none" style="stroke:#000000;stroke-width:1.5;"/><line style="stroke:#000000;stroke-width:1.5;" x1="84.9999" x2="170.9999" y1="391.5938" y2="391.5938"/><text fill="#000000" font-family="sans-serif" font-size="14" font-weight="bold" lengthAdjust="spacing" textLength="73" x="88.9999" y="384.292">WEB_APP</text></g><!--cluster DATA_MANAGEMENT--><g id="cluster_DATA_MANAGEMENT"><path d="M32.5,652.2969 L197.5,652.2969 A3.75,3.75 0 0 1 200,654.7969 L207,674.5938 L753.4999,674.5938 A2.5,2.5 0 0 1 755.9999,677.0938 L755.9999,827.7969 A2.5,2.5 0 0 1 753.4999,830.2969 L32.5,830.2969 A2.5,2.5 0 0 1 30,827.7969 L30,654.7969 A2.5,2.5 0 0 1 32.5,652.2969 " fill="none" style="stroke:#000000;stroke-width:1.5;"/><line style="stroke:#000000;stroke-width:1.5;" x1="30" x2="207" y1="674.5938" y2="674.5938"/><text fill="#000000" font-family="sans-serif" font-size="14" font-weight="bold" lengthAdjust="spacing" textLength="164" x="34" y="667.292">DATA_MANAGEMENT</text></g><!--cluster GRAPHML_EXPORT--><g id="cluster_GRAPHML_EXPORT"><path d="M803.9999,167.2969 L953.9999,167.2969 A3.75,3.75 0 0 1 956.4999,169.7969 L963.4999,189.5938 L1560.0019,189.5938 A2.5,2.5 0 0 1 1562.5019,192.0938 L1562.5019,342.7969 A2.5,2.5 0 0 1 1560.0019,345.2969 L803.9999,345.2969 A2.5,2.5 0 0 1 801.4999,342.7969 L801.4999,169.7969 A2.5,2.5 0 0 1 803.9999,167.2969 " fill="none" style="stroke:#000000;stroke-width:1.5;"/><line style="stroke:#000000;stroke-width:1.5;" x1="801.4999" x2="963.4999" y1="189.5938" y2="189.5938"/><text fill="#000000" font-family="sans-serif" font-size="14" font-weight="bold" lengthAdjust="spacing" textLength="149" x="805.4999" y="182.292">GRAPHML_EXPORT</text></g><!--cluster GRAPHML_IMPORT--><g id="cluster_GRAPHML_IMPORT"><path d="M803.4999,652.2969 L952.4999,652.2969 A3.75,3.75 0 0 1 954.9999,654.7969 L961.9999,674.5938 L1560.5019,674.5938 A2.5,2.5 0 0 1 1563.0019,677.0938 L1563.0019,827.7969 A2.5,2.5 0 0 1 1560.5019,830.2969 L803.4999,830.2969 A2.5,2.5 0 0 1 800.9999,827.7969 L800.9999,654.7969 A2.5,2.5 0 0 1 803.4999,652.2969 " fill="none" style="stroke:#000000;stroke-width:1.5;"/><line style="stroke:#000000;stroke-width:1.5;" x1="800.9999" x2="961.9999" y1="674.5938" y2="674.5938"/><text fill="#000000" font-family="sans-serif" font-size="14" font-weight="bold" lengthAdjust="spacing" textLength="148" x="804.9999" y="667.292">GRAPHML_IMPORT</text></g><!--cluster VISUALIZATION--><g id="cluster_VISUALIZATION"><path d="M795.4999,854.2969 L919.4999,854.2969 A3.75,3.75 0 0 1 921.9999,856.7969 L928.9999,876.5938 L1531.0019,876.5938 A2.5,2.5 0 0 1 1533.5019,879.0938 L1533.5019,1110.7969 A2.5,2.5 0 0 1 1531.0019,1113.2969 L795.4999,1113.2969 A2.5,2.5 0 0 1 792.9999,1110.7969 L792.9999,856.7969 A2.5,2.5 0 0 1 795.4999,854.2969 " fill="none" style="stroke:#000000;stroke-width:1.5;"/><line style="stroke:#000000;stroke-width:1.5;" x1="792.9999" x2="928.9999" y1="876.5938" y2="876.5938"/><text fill="#000000" font-family="sans-serif" font-size="14" font-weight="bold" lengthAdjust="spacing" textLength="123" x="796.9999" y="869.292">VISUALIZATION</text></g><!--cluster UI_NAV--><g id="cluster_UI_NAV"><path d="M1593.5019,167.2969 L1650.5019,167.2969 A3.75,3.75 0 0 1 1653.0019,169.7969 L1660.0019,189.5938 L2279.5019,189.5938 A2.5,2.5 0 0 1 2282.0019,192.0938 L2282.0019,342.7969 A2.5,2.5 0 0 1 2279.5019,345.2969 L1593.5019,345.2969 A2.5,2.5 0 0 1 1591.0019,342.7969 L1591.0019,169.7969 A2.5,2.5 0 0 1 1593.5019,167.2969 " fill="none" style="stroke:#000000;stroke-width:1.5;"/><line style="stroke:#000000;stroke-width:1.5;" x1="1591.0019" x2="1660.0019" y1="189.5938" y2="189.5938"/><text fill="#000000" font-family="sans-serif" font-size="14" font-weight="bold" lengthAdjust="spacing" textLength="56" x="1595.0019" y="182.292">UI_NAV</text></g><!--cluster TESTING--><g id="cluster_TESTING"><path d="M1650.0019,369.2969 L1720.0019,369.2969 A3.75,3.75 0 0 1 1722.5019,371.7969 L1729.5019,391.5938 L2261.0019,391.5938 A2.5,2.5 0 0 1 2263.5019,394.0938 L2263.5019,544.7969 A2.5,2.5 0 0 1 2261.0019,547.2969 L1650.0019,547.2969 A2.5,2.5 0 0 1 1647.5019,544.7969 L1647.5019,371.7969 A2.5,2.5 0 0 1 1650.0019,369.2969 " fill="none" style="stroke:#000000;stroke-width:1.5;"/><line style="stroke:#000000;stroke-width:1.5;" x1="1647.5019" x2="1729.5019" y1="391.5938" y2="391.5938"/><text fill="#000000" font-family="sans-serif" font-size="14" font-weight="bold" lengthAdjust="spacing" textLength="69" x="1651.5019" y="384.292">TESTING</text></g><!--cluster DOCUMENTATION--><g id="cluster_DOCUMENTATION"><path d="M107.4999,894.2969 L247.4999,894.2969 A3.75,3.75 0 0 1 249.9999,896.7969 L256.9999,916.5938 L343.4999,916.5938 A2.5,2.5 0 0 1 345.9999,919.0938 L345.9999,1069.7969 A2.5,2.5 0 0 1 343.4999,1072.2969 L107.4999,1072.2969 A2.5,2.5 0 0 1 104.9999,1069.7969 L104.9999,896.7969 A2.5,2.5 0 0 1 107.4999,894.2969 " fill="none" style="stroke:#000000;stroke-width:1.5;"/><line style="stroke:#000000;stroke-width:1.5;" x1="104.9999" x2="256.9999" y1="916.5938" y2="916.5938"/><text fill="#000000" font-family="sans-serif" font-size="14" font-weight="bold" lengthAdjust="spacing" textLength="139" x="108.9999" y="909.292">DOCUMENTATION</text></g><!--entity Install development tools--><g id="elem_Install development tools"><rect fill="#F1F1F1" height="46.2969" rx="2.5" ry="2.5" style="stroke:#181818;stroke-width:0.5;" width="224" x="113.4999" y="283.2969"/><rect fill="#F1F1F1" height="10" style="stroke:#181818;stroke-width:0.5;" width="15" x="317.4999" y="288.2969"/><rect fill="#F1F1F1" height="2" style="stroke:#181818;stroke-width:0.5;" width="4" x="315.4999" y="290.2969"/><rect fill="#F1F1F1" height="2" style="stroke:#181818;stroke-width:0.5;" width="4" x="315.4999" y="294.2969"/><text fill="#000000" font-family="sans-serif" font-size="14" lengthAdjust="spacing" textLength="184" x="128.4999" y="316.292">Install development tools</text></g><!--entity Configure development environment--><g id="elem_Configure development environment"><rect fill="#F1F1F1" height="46.2969" rx="2.5" ry="2.5" style="stroke:#181818;stroke-width:0.5;" width="308" x="71.4999" y="202.2969"/><rect fill="#F1F1F1" height="10" style="stroke:#181818;stroke-width:0.5;" width="15" x="359.4999" y="207.2969"/><rect fill="#F1F1F1" height="2" style="stroke:#181818;stroke-width:0.5;" width="4" x="357.4999" y="209.2969"/><rect fill="#F1F1F1" height="2" style="stroke:#181818;stroke-width:0.5;" width="4" x="357.4999" y="213.2969"/><text fill="#000000" font-family="sans-serif" font-size="14" lengthAdjust="spacing" textLength="268" x="86.4999" y="235.292">Configure development environment</text></g><!--entity Set up version control--><g id="elem_Set up version control"><rect fill="#F1F1F1" height="46.2969" rx="2.5" ry="2.5" style="stroke:#181818;stroke-width:0.5;" width="199" x="125.9999" y="121.2969"/><rect fill="#F1F1F1" height="10" style="stroke:#181818;stroke-width:0.5;" width="15" x="304.9999" y="126.2969"/><rect fill="#F1F1F1" height="2" style="stroke:#181818;stroke-width:0.5;" width="4" x="302.9999" y="128.2969"/><rect fill="#F1F1F1" height="2" style="stroke:#181818;stroke-width:0.5;" width="4" x="302.9999" y="132.2969"/><text fill="#000000" font-family="sans-serif" font-size="14" lengthAdjust="spacing" textLength="159" x="140.9999" y="154.292">Set up version control</text></g><!--entity Set up continuous integration--><g id="elem_Set up continuous integration"><rect fill="#F1F1F1" height="46.2969" rx="2.5" ry="2.5" style="stroke:#181818;stroke-width:0.5;" width="254" x="479.9999" y="283.2969"/><rect fill="#F1F1F1" height="10" style="stroke:#181818;stroke-width:0.5;" width="15" x="713.9999" y="288.2969"/><rect fill="#F1F1F1" height="2" style="stroke:#181818;stroke-width:0.5;" width="4" x="711.9999" y="290.2969"/><rect fill="#F1F1F1" height="2" style="stroke:#181818;stroke-width:0.5;" width="4" x="711.9999" y="294.2969"/><text fill="#000000" font-family="sans-serif" font-size="14" lengthAdjust="spacing" textLength="214" x="494.9999" y="316.292">Set up continuous integration</text></g><!--entity Set up project management tools--><g id="elem_Set up project management tools"><rect fill="#F1F1F1" height="46.2969" rx="2.5" ry="2.5" style="stroke:#181818;stroke-width:0.5;" width="284" x="464.9999" y="202.2969"/><rect fill="#F1F1F1" height="10" style="stroke:#181818;stroke-width:0.5;" width="15" x="728.9999" y="207.2969"/><rect fill="#F1F1F1" height="2" style="stroke:#181818;stroke-width:0.5;" width="4" x="726.9999" y="209.2969"/><rect fill="#F1F1F1" height="2" style="stroke:#181818;stroke-width:0.5;" width="4" x="726.9999" y="213.2969"/><text fill="#000000" font-family="sans-serif" font-size="14" lengthAdjust="spacing" textLength="244" x="479.9999" y="235.292">Set up project management tools</text></g><!--entity Create single page app (SPA)--><g id="elem_Create single page app (SPA)"><rect fill="#F1F1F1" height="46.2969" rx="2.5" ry="2.5" style="stroke:#181818;stroke-width:0.5;" width="249" x="100.9999" y="566.2969"/><rect fill="#F1F1F1" height="10" style="stroke:#181818;stroke-width:0.5;" width="15" x="329.9999" y="571.2969"/><rect fill="#F1F1F1" height="2" style="stroke:#181818;stroke-width:0.5;" width="4" x="327.9999" y="573.2969"/><rect fill="#F1F1F1" height="2" style="stroke:#181818;stroke-width:0.5;" width="4" x="327.9999" y="577.2969"/><text fill="#000000" font-family="sans-serif" font-size="14" lengthAdjust="spacing" textLength="209" x="115.9999" y="599.292">Create single page app (SPA)</text></g><!--entity Implement UI design--><g id="elem_Implement UI design"><rect fill="#F1F1F1" height="46.2969" rx="2.5" ry="2.5" style="stroke:#181818;stroke-width:0.5;" width="188" x="131.4999" y="485.2969"/><rect fill="#F1F1F1" height="10" style="stroke:#181818;stroke-width:0.5;" width="15" x="299.4999" y="490.2969"/><rect fill="#F1F1F1" height="2" style="stroke:#181818;stroke-width:0.5;" width="4" x="297.4999" y="492.2969"/><rect fill="#F1F1F1" height="2" style="stroke:#181818;stroke-width:0.5;" width="4" x="297.4999" y="496.2969"/><text fill="#000000" font-family="sans-serif" font-size="14" lengthAdjust="spacing" textLength="148" x="146.4999" y="518.292">Implement UI design</text></g><!--entity Implement app functionality--><g id="elem_Implement app functionality"><rect fill="#F1F1F1" height="46.2969" rx="2.5" ry="2.5" style="stroke:#181818;stroke-width:0.5;" width="247" x="101.9999" y="404.2969"/><rect fill="#F1F1F1" height="10" style="stroke:#181818;stroke-width:0.5;" width="15" x="328.9999" y="409.2969"/><rect fill="#F1F1F1" height="2" style="stroke:#181818;stroke-width:0.5;" width="4" x="326.9999" y="411.2969"/><rect fill="#F1F1F1" height="2" style="stroke:#181818;stroke-width:0.5;" width="4" x="326.9999" y="415.2969"/><text fill="#000000" font-family="sans-serif" font-size="14" lengthAdjust="spacing" textLength="207" x="116.9999" y="437.292">Implement app functionality</text></g><!--entity Implement unit tests--><g id="elem_Implement unit tests"><rect fill="#F1F1F1" height="46.2969" rx="2.5" ry="2.5" style="stroke:#181818;stroke-width:0.5;" width="193" x="510.4999" y="566.2969"/><rect fill="#F1F1F1" height="10" style="stroke:#181818;stroke-width:0.5;" width="15" x="683.4999" y="571.2969"/><rect fill="#F1F1F1" height="2" style="stroke:#181818;stroke-width:0.5;" width="4" x="681.4999" y="573.2969"/><rect fill="#F1F1F1" height="2" style="stroke:#181818;stroke-width:0.5;" width="4" x="681.4999" y="577.2969"/><text fill="#000000" font-family="sans-serif" font-size="14" lengthAdjust="spacing" textLength="153" x="525.4999" y="599.292">Implement unit tests</text></g><!--entity Implement integration tests--><g id="elem_Implement integration tests"><rect fill="#F1F1F1" height="46.2969" rx="2.5" ry="2.5" style="stroke:#181818;stroke-width:0.5;" width="246" x="483.9999" y="485.2969"/><rect fill="#F1F1F1" height="10" style="stroke:#181818;stroke-width:0.5;" width="15" x="709.9999" y="490.2969"/><rect fill="#F1F1F1" height="2" style="stroke:#181818;stroke-width:0.5;" width="4" x="707.9999" y="492.2969"/><rect fill="#F1F1F1" height="2" style="stroke:#181818;stroke-width:0.5;" width="4" x="707.9999" y="496.2969"/><text fill="#000000" font-family="sans-serif" font-size="14" lengthAdjust="spacing" textLength="206" x="498.9999" y="518.292">Implement integration tests</text></g><!--entity Integrate with data management--><g id="elem_Integrate with data management"><rect fill="#F1F1F1" height="46.2969" rx="2.5" ry="2.5" style="stroke:#181818;stroke-width:0.5;" width="279" x="467.4999" y="404.2969"/><rect fill="#F1F1F1" height="10" style="stroke:#181818;stroke-width:0.5;" width="15" x="726.4999" y="409.2969"/><rect fill="#F1F1F1" height="2" style="stroke:#181818;stroke-width:0.5;" width="4" x="724.4999" y="411.2969"/><rect fill="#F1F1F1" height="2" style="stroke:#181818;stroke-width:0.5;" width="4" x="724.4999" y="415.2969"/><text fill="#000000" font-family="sans-serif" font-size="14" lengthAdjust="spacing" textLength="239" x="482.4999" y="437.292">Integrate with data management</text></g><!--entity Integrate with graph editor--><g id="elem_Integrate with graph editor"><rect fill="#F1F1F1" height="46.2969" rx="2.5" ry="2.5" style="stroke:#181818;stroke-width:0.5;" width="237" x="866.9999" y="566.2969"/><rect fill="#F1F1F1" height="10" style="stroke:#181818;stroke-width:0.5;" width="15" x="1083.9999" y="571.2969"/><rect fill="#F1F1F1" height="2" style="stroke:#181818;stroke-width:0.5;" width="4" x="1081.9999" y="573.2969"/><rect fill="#F1F1F1" height="2" style="stroke:#181818;stroke-width:0.5;" width="4" x="1081.9999" y="577.2969"/><text fill="#000000" font-family="sans-serif" font-size="14" lengthAdjust="spacing" textLength="197" x="881.9999" y="599.292">Integrate with graph editor</text></g><!--entity Integrate with graph visualization--><g id="elem_Integrate with graph visualization"><rect fill="#F1F1F1" height="46.2969" rx="2.5" ry="2.5" style="stroke:#181818;stroke-width:0.5;" width="281" x="844.9999" y="485.2969"/><rect fill="#F1F1F1" height="10" style="stroke:#181818;stroke-width:0.5;" width="15" x="1105.9999" y="490.2969"/><rect fill="#F1F1F1" height="2" style="stroke:#181818;stroke-width:0.5;" width="4" x="1103.9999" y="492.2969"/><rect fill="#F1F1F1" height="2" style="stroke:#181818;stroke-width:0.5;" width="4" x="1103.9999" y="496.2969"/><text fill="#000000" font-family="sans-serif" font-size="14" lengthAdjust="spacing" textLength="241" x="859.9999" y="518.292">Integrate with graph visualization</text></g><!--entity Implement data import/export functionality--><g id="elem_Implement data import/export functionality"><rect fill="#F1F1F1" height="46.2969" rx="2.5" ry="2.5" style="stroke:#181818;stroke-width:0.5;" width="359" x="45.9999" y="768.2969"/><rect fill="#F1F1F1" height="10" style="stroke:#181818;stroke-width:0.5;" width="15" x="384.9999" y="773.2969"/><rect fill="#F1F1F1" height="2" style="stroke:#181818;stroke-width:0.5;" width="4" x="382.9999" y="775.2969"/><rect fill="#F1F1F1" height="2" style="stroke:#181818;stroke-width:0.5;" width="4" x="382.9999" y="779.2969"/><text fill="#000000" font-family="sans-serif" font-size="14" lengthAdjust="spacing" textLength="319" x="60.9999" y="801.292">Implement data import/export functionality</text></g><!--entity Implement GraphML/GXL export--><g id="elem_Implement GraphML/GXL export"><rect fill="#F1F1F1" height="46.2969" rx="2.5" ry="2.5" style="stroke:#181818;stroke-width:0.5;" width="275" x="87.9999" y="687.2969"/><rect fill="#F1F1F1" height="10" style="stroke:#181818;stroke-width:0.5;" width="15" x="342.9999" y="692.2969"/><rect fill="#F1F1F1" height="2" style="stroke:#181818;stroke-width:0.5;" width="4" x="340.9999" y="694.2969"/><rect fill="#F1F1F1" height="2" style="stroke:#181818;stroke-width:0.5;" width="4" x="340.9999" y="698.2969"/><text fill="#000000" font-family="sans-serif" font-size="14" lengthAdjust="spacing" textLength="235" x="102.9999" y="720.292">Implement GraphML/GXL export</text></g><!--entity Implement JSON export/import--><g id="elem_Implement JSON export/import"><rect fill="#F1F1F1" height="46.2969" rx="2.5" ry="2.5" style="stroke:#181818;stroke-width:0.5;" width="266" x="473.9999" y="768.2969"/><rect fill="#F1F1F1" height="10" style="stroke:#181818;stroke-width:0.5;" width="15" x="719.9999" y="773.2969"/><rect fill="#F1F1F1" height="2" style="stroke:#181818;stroke-width:0.5;" width="4" x="717.9999" y="775.2969"/><rect fill="#F1F1F1" height="2" style="stroke:#181818;stroke-width:0.5;" width="4" x="717.9999" y="779.2969"/><text fill="#000000" font-family="sans-serif" font-size="14" lengthAdjust="spacing" textLength="226" x="488.9999" y="801.292">Implement JSON export/import</text></g><!--entity Implement GraphML export functionality--><g id="elem_Implement GraphML export functionality"><rect fill="#F1F1F1" height="46.2969" rx="2.5" ry="2.5" style="stroke:#181818;stroke-width:0.5;" width="336" x="817.4999" y="283.2969"/><rect fill="#F1F1F1" height="10" style="stroke:#181818;stroke-width:0.5;" width="15" x="1133.4999" y="288.2969"/><rect fill="#F1F1F1" height="2" style="stroke:#181818;stroke-width:0.5;" width="4" x="1131.4999" y="290.2969"/><rect fill="#F1F1F1" height="2" style="stroke:#181818;stroke-width:0.5;" width="4" x="1131.4999" y="294.2969"/><text fill="#000000" font-family="sans-serif" font-size="14" lengthAdjust="spacing" textLength="296" x="832.4999" y="316.292">Implement GraphML export functionality</text></g><!--entity Implement export error handling--><g id="elem_Implement export error handling"><rect fill="#F1F1F1" height="46.2969" rx="2.5" ry="2.5" style="stroke:#181818;stroke-width:0.5;" width="278" x="846.4999" y="202.2969"/><rect fill="#F1F1F1" height="10" style="stroke:#181818;stroke-width:0.5;" width="15" x="1104.4999" y="207.2969"/><rect fill="#F1F1F1" height="2" style="stroke:#181818;stroke-width:0.5;" width="4" x="1102.4999" y="209.2969"/><rect fill="#F1F1F1" height="2" style="stroke:#181818;stroke-width:0.5;" width="4" x="1102.4999" y="213.2969"/><text fill="#000000" font-family="sans-serif" font-size="14" lengthAdjust="spacing" textLength="238" x="861.4999" y="235.292">Implement export error handling</text></g><!--entity Implement export progress monitoring--><g id="elem_Implement export progress monitoring"><rect fill="#F1F1F1" height="46.2969" rx="2.5" ry="2.5" style="stroke:#181818;stroke-width:0.5;" width="324" x="1222.5019" y="283.2969"/><rect fill="#F1F1F1" height="10" style="stroke:#181818;stroke-width:0.5;" width="15" x="1526.5019" y="288.2969"/><rect fill="#F1F1F1" height="2" style="stroke:#181818;stroke-width:0.5;" width="4" x="1524.5019" y="290.2969"/><rect fill="#F1F1F1" height="2" style="stroke:#181818;stroke-width:0.5;" width="4" x="1524.5019" y="294.2969"/><text fill="#000000" font-family="sans-serif" font-size="14" lengthAdjust="spacing" textLength="284" x="1237.5019" y="316.292">Implement export progress monitoring</text></g><!--entity Implement GraphML import functionality--><g id="elem_Implement GraphML import functionality"><rect fill="#F1F1F1" height="46.2969" rx="2.5" ry="2.5" style="stroke:#181818;stroke-width:0.5;" width="337" x="816.9999" y="768.2969"/><rect fill="#F1F1F1" height="10" style="stroke:#181818;stroke-width:0.5;" width="15" x="1133.9999" y="773.2969"/><rect fill="#F1F1F1" height="2" style="stroke:#181818;stroke-width:0.5;" width="4" x="1131.9999" y="775.2969"/><rect fill="#F1F1F1" height="2" style="stroke:#181818;stroke-width:0.5;" width="4" x="1131.9999" y="779.2969"/><text fill="#000000" font-family="sans-serif" font-size="14" lengthAdjust="spacing" textLength="297" x="831.9999" y="801.292">Implement GraphML import functionality</text></g><!--entity Implement import error handling--><g id="elem_Implement import error handling"><rect fill="#F1F1F1" height="46.2969" rx="2.5" ry="2.5" style="stroke:#181818;stroke-width:0.5;" width="279" x="845.9999" y="687.2969"/><rect fill="#F1F1F1" height="10" style="stroke:#181818;stroke-width:0.5;" width="15" x="1104.9999" y="692.2969"/><rect fill="#F1F1F1" height="2" style="stroke:#181818;stroke-width:0.5;" width="4" x="1102.9999" y="694.2969"/><rect fill="#F1F1F1" height="2" style="stroke:#181818;stroke-width:0.5;" width="4" x="1102.9999" y="698.2969"/><text fill="#000000" font-family="sans-serif" font-size="14" lengthAdjust="spacing" textLength="239" x="860.9999" y="720.292">Implement import error handling</text></g><!--entity Implement import progress monitoring--><g id="elem_Implement import progress monitoring"><rect fill="#F1F1F1" height="46.2969" rx="2.5" ry="2.5" style="stroke:#181818;stroke-width:0.5;" width="325" x="1222.0019" y="768.2969"/><rect fill="#F1F1F1" height="10" style="stroke:#181818;stroke-width:0.5;" width="15" x="1527.0019" y="773.2969"/><rect fill="#F1F1F1" height="2" style="stroke:#181818;stroke-width:0.5;" width="4" x="1525.0019" y="775.2969"/><rect fill="#F1F1F1" height="2" style="stroke:#181818;stroke-width:0.5;" width="4" x="1525.0019" y="779.2969"/><text fill="#000000" font-family="sans-serif" font-size="14" lengthAdjust="spacing" textLength="285" x="1237.0019" y="801.292">Implement import progress monitoring</text></g><!--entity Implement graph visualization functionality--><g id="elem_Implement graph visualization functionality"><rect fill="#F1F1F1" height="46.2969" rx="2.5" ry="2.5" style="stroke:#181818;stroke-width:0.5;" width="353" x="808.9999" y="1051.2969"/><rect fill="#F1F1F1" height="10" style="stroke:#181818;stroke-width:0.5;" width="15" x="1141.9999" y="1056.2969"/><rect fill="#F1F1F1" height="2" style="stroke:#181818;stroke-width:0.5;" width="4" x="1139.9999" y="1058.2969"/><rect fill="#F1F1F1" height="2" style="stroke:#181818;stroke-width:0.5;" width="4" x="1139.9999" y="1062.2969"/><text fill="#000000" font-family="sans-serif" font-size="14" lengthAdjust="spacing" textLength="313" x="823.9999" y="1084.292">Implement graph visualization functionality</text></g><!--entity Implement zoom in/out--><g id="elem_Implement zoom in/out"><rect fill="#F1F1F1" height="46.2969" rx="2.5" ry="2.5" style="stroke:#181818;stroke-width:0.5;" width="210" x="880.4999" y="970.2969"/><rect fill="#F1F1F1" height="10" style="stroke:#181818;stroke-width:0.5;" width="15" x="1070.4999" y="975.2969"/><rect fill="#F1F1F1" height="2" style="stroke:#181818;stroke-width:0.5;" width="4" x="1068.4999" y="977.2969"/><rect fill="#F1F1F1" height="2" style="stroke:#181818;stroke-width:0.5;" width="4" x="1068.4999" y="981.2969"/><text fill="#000000" font-family="sans-serif" font-size="14" lengthAdjust="spacing" textLength="170" x="895.4999" y="1003.292">Implement zoom in/out</text></g><!--entity Implement navigate graph--><g id="elem_Implement navigate graph"><rect fill="#F1F1F1" height="46.2969" rx="2.5" ry="2.5" style="stroke:#181818;stroke-width:0.5;" width="232" x="869.4999" y="889.2969"/><rect fill="#F1F1F1" height="10" style="stroke:#181818;stroke-width:0.5;" width="15" x="1081.4999" y="894.2969"/><rect fill="#F1F1F1" height="2" style="stroke:#181818;stroke-width:0.5;" width="4" x="1079.4999" y="896.2969"/><rect fill="#F1F1F1" height="2" style="stroke:#181818;stroke-width:0.5;" width="4" x="1079.4999" y="900.2969"/><text fill="#000000" font-family="sans-serif" font-size="14" lengthAdjust="spacing" textLength="192" x="884.4999" y="922.292">Implement navigate graph</text></g><!--entity Implement search nodes/edges--><g id="elem_Implement search nodes/edges"><rect fill="#F1F1F1" height="46.2969" rx="2.5" ry="2.5" style="stroke:#181818;stroke-width:0.5;" width="266" x="1251.5019" y="1051.2969"/><rect fill="#F1F1F1" height="10" style="stroke:#181818;stroke-width:0.5;" width="15" x="1497.5019" y="1056.2969"/><rect fill="#F1F1F1" height="2" style="stroke:#181818;stroke-width:0.5;" width="4" x="1495.5019" y="1058.2969"/><rect fill="#F1F1F1" height="2" style="stroke:#181818;stroke-width:0.5;" width="4" x="1495.5019" y="1062.2969"/><text fill="#000000" font-family="sans-serif" font-size="14" lengthAdjust="spacing" textLength="226" x="1266.5019" y="1084.292">Implement search nodes/edges</text></g><!--entity Implement filter nodes/edges--><g id="elem_Implement filter nodes/edges"><rect fill="#F1F1F1" height="46.2969" rx="2.5" ry="2.5" style="stroke:#181818;stroke-width:0.5;" width="255" x="1257.0019" y="970.2969"/><rect fill="#F1F1F1" height="10" style="stroke:#181818;stroke-width:0.5;" width="15" x="1492.0019" y="975.2969"/><rect fill="#F1F1F1" height="2" style="stroke:#181818;stroke-width:0.5;" width="4" x="1490.0019" y="977.2969"/><rect fill="#F1F1F1" height="2" style="stroke:#181818;stroke-width:0.5;" width="4" x="1490.0019" y="981.2969"/><text fill="#000000" font-family="sans-serif" font-size="14" lengthAdjust="spacing" textLength="215" x="1272.0019" y="1003.292">Implement filter nodes/edges</text></g><!--entity Implement image export--><g id="elem_Implement image export"><rect fill="#F1F1F1" height="46.2969" rx="2.5" ry="2.5" style="stroke:#181818;stroke-width:0.5;" width="221" x="1274.0019" y="889.2969"/><rect fill="#F1F1F1" height="10" style="stroke:#181818;stroke-width:0.5;" width="15" x="1475.0019" y="894.2969"/><rect fill="#F1F1F1" height="2" style="stroke:#181818;stroke-width:0.5;" width="4" x="1473.0019" y="896.2969"/><rect fill="#F1F1F1" height="2" style="stroke:#181818;stroke-width:0.5;" width="4" x="1473.0019" y="900.2969"/><text fill="#000000" font-family="sans-serif" font-size="14" lengthAdjust="spacing" textLength="181" x="1289.0019" y="922.292">Implement image export</text></g><!--entity Implement UI navigation functionality--><g id="elem_Implement UI navigation functionality"><rect fill="#F1F1F1" height="46.2969" rx="2.5" ry="2.5" style="stroke:#181818;stroke-width:0.5;" width="311" x="1607.0019" y="283.2969"/><rect fill="#F1F1F1" height="10" style="stroke:#181818;stroke-width:0.5;" width="15" x="1898.0019" y="288.2969"/><rect fill="#F1F1F1" height="2" style="stroke:#181818;stroke-width:0.5;" width="4" x="1896.0019" y="290.2969"/><rect fill="#F1F1F1" height="2" style="stroke:#181818;stroke-width:0.5;" width="4" x="1896.0019" y="294.2969"/><text fill="#000000" font-family="sans-serif" font-size="14" lengthAdjust="spacing" textLength="271" x="1622.0019" y="316.292">Implement UI navigation functionality</text></g><!--entity Implement UI control handling--><g id="elem_Implement UI control handling"><rect fill="#F1F1F1" height="46.2969" rx="2.5" ry="2.5" style="stroke:#181818;stroke-width:0.5;" width="258" x="1633.5019" y="202.2969"/><rect fill="#F1F1F1" height="10" style="stroke:#181818;stroke-width:0.5;" width="15" x="1871.5019" y="207.2969"/><rect fill="#F1F1F1" height="2" style="stroke:#181818;stroke-width:0.5;" width="4" x="1869.5019" y="209.2969"/><rect fill="#F1F1F1" height="2" style="stroke:#181818;stroke-width:0.5;" width="4" x="1869.5019" y="213.2969"/><text fill="#000000" font-family="sans-serif" font-size="14" lengthAdjust="spacing" textLength="218" x="1648.5019" y="235.292">Implement UI control handling</text></g><!--entity Implement UI error handling--><g id="elem_Implement UI error handling"><rect fill="#F1F1F1" height="46.2969" rx="2.5" ry="2.5" style="stroke:#181818;stroke-width:0.5;" width="242" x="2001.0019" y="283.2969"/><rect fill="#F1F1F1" height="10" style="stroke:#181818;stroke-width:0.5;" width="15" x="2223.0019" y="288.2969"/><rect fill="#F1F1F1" height="2" style="stroke:#181818;stroke-width:0.5;" width="4" x="2221.0019" y="290.2969"/><rect fill="#F1F1F1" height="2" style="stroke:#181818;stroke-width:0.5;" width="4" x="2221.0019" y="294.2969"/><text fill="#000000" font-family="sans-serif" font-size="14" lengthAdjust="spacing" textLength="202" x="2016.0019" y="316.292">Implement UI error handling</text></g><!--entity Implement UI progress monitoring--><g id="elem_Implement UI progress monitoring"><rect fill="#F1F1F1" height="46.2969" rx="2.5" ry="2.5" style="stroke:#181818;stroke-width:0.5;" width="288" x="1978.0019" y="202.2969"/><rect fill="#F1F1F1" height="10" style="stroke:#181818;stroke-width:0.5;" width="15" x="2246.0019" y="207.2969"/><rect fill="#F1F1F1" height="2" style="stroke:#181818;stroke-width:0.5;" width="4" x="2244.0019" y="209.2969"/><rect fill="#F1F1F1" height="2" style="stroke:#181818;stroke-width:0.5;" width="4" x="2244.0019" y="213.2969"/><text fill="#000000" font-family="sans-serif" font-size="14" lengthAdjust="spacing" textLength="248" x="1993.0019" y="235.292">Implement UI progress monitoring</text></g><!--entity Create unit test cases--><g id="elem_Create unit test cases"><rect fill="#F1F1F1" height="46.2969" rx="2.5" ry="2.5" style="stroke:#181818;stroke-width:0.5;" width="198" x="1663.5019" y="485.2969"/><rect fill="#F1F1F1" height="10" style="stroke:#181818;stroke-width:0.5;" width="15" x="1841.5019" y="490.2969"/><rect fill="#F1F1F1" height="2" style="stroke:#181818;stroke-width:0.5;" width="4" x="1839.5019" y="492.2969"/><rect fill="#F1F1F1" height="2" style="stroke:#181818;stroke-width:0.5;" width="4" x="1839.5019" y="496.2969"/><text fill="#000000" font-family="sans-serif" font-size="14" lengthAdjust="spacing" textLength="158" x="1678.5019" y="518.292">Create unit test cases</text></g><!--entity Execute unit tests--><g id="elem_Execute unit tests"><rect fill="#F1F1F1" height="46.2969" rx="2.5" ry="2.5" style="stroke:#181818;stroke-width:0.5;" width="171" x="1677.0019" y="404.2969"/><rect fill="#F1F1F1" height="10" style="stroke:#181818;stroke-width:0.5;" width="15" x="1828.0019" y="409.2969"/><rect fill="#F1F1F1" height="2" style="stroke:#181818;stroke-width:0.5;" width="4" x="1826.0019" y="411.2969"/><rect fill="#F1F1F1" height="2" style="stroke:#181818;stroke-width:0.5;" width="4" x="1826.0019" y="415.2969"/><text fill="#000000" font-family="sans-serif" font-size="14" lengthAdjust="spacing" textLength="131" x="1692.0019" y="437.292">Execute unit tests</text></g><!--entity Create integration test cases--><g id="elem_Create integration test cases"><rect fill="#F1F1F1" height="46.2969" rx="2.5" ry="2.5" style="stroke:#181818;stroke-width:0.5;" width="251" x="1996.5019" y="485.2969"/><rect fill="#F1F1F1" height="10" style="stroke:#181818;stroke-width:0.5;" width="15" x="2227.5019" y="490.2969"/><rect fill="#F1F1F1" height="2" style="stroke:#181818;stroke-width:0.5;" width="4" x="2225.5019" y="492.2969"/><rect fill="#F1F1F1" height="2" style="stroke:#181818;stroke-width:0.5;" width="4" x="2225.5019" y="496.2969"/><text fill="#000000" font-family="sans-serif" font-size="14" lengthAdjust="spacing" textLength="211" x="2011.5019" y="518.292">Create integration test cases</text></g><!--entity Execute integration tests--><g id="elem_Execute integration tests"><rect fill="#F1F1F1" height="46.2969" rx="2.5" ry="2.5" style="stroke:#181818;stroke-width:0.5;" width="224" x="2010.0019" y="404.2969"/><rect fill="#F1F1F1" height="10" style="stroke:#181818;stroke-width:0.5;" width="15" x="2214.0019" y="409.2969"/><rect fill="#F1F1F1" height="2" style="stroke:#181818;stroke-width:0.5;" width="4" x="2212.0019" y="411.2969"/><rect fill="#F1F1F1" height="2" style="stroke:#181818;stroke-width:0.5;" width="4" x="2212.0019" y="415.2969"/><text fill="#000000" font-family="sans-serif" font-size="14" lengthAdjust="spacing" textLength="184" x="2025.0019" y="437.292">Execute integration tests</text></g><!--entity Create user manual--><g id="elem_Create user manual"><rect fill="#F1F1F1" height="46.2969" rx="2.5" ry="2.5" style="stroke:#181818;stroke-width:0.5;" width="178" x="136.4999" y="929.2969"/><rect fill="#F1F1F1" height="10" style="stroke:#181818;stroke-width:0.5;" width="15" x="294.4999" y="934.2969"/><rect fill="#F1F1F1" height="2" style="stroke:#181818;stroke-width:0.5;" width="4" x="292.4999" y="936.2969"/><rect fill="#F1F1F1" height="2" style="stroke:#181818;stroke-width:0.5;" width="4" x="292.4999" y="940.2969"/><text fill="#000000" font-family="sans-serif" font-size="14" lengthAdjust="spacing" textLength="138" x="151.4999" y="962.292">Create user manual</text></g><!--entity Create developer guide--><g id="elem_Create developer guide"><rect fill="#F1F1F1" height="46.2969" rx="2.5" ry="2.5" style="stroke:#181818;stroke-width:0.5;" width="209" x="120.9999" y="1010.2969"/><rect fill="#F1F1F1" height="10" style="stroke:#181818;stroke-width:0.5;" width="15" x="309.9999" y="1015.2969"/><rect fill="#F1F1F1" height="2" style="stroke:#181818;stroke-width:0.5;" width="4" x="307.9999" y="1017.2969"/><rect fill="#F1F1F1" height="2" style="stroke:#181818;stroke-width:0.5;" width="4" x="307.9999" y="1021.2969"/><text fill="#000000" font-family="sans-serif" font-size="14" lengthAdjust="spacing" textLength="169" x="135.9999" y="1043.292">Create developer guide</text></g><!--SRC=[ZPLHRzem4CVVyobEVTeU9Zv3IYEM2G8YGAjD4xAI8xXrxCXsMDUfttrd23GGKvANHBgVxV__xdont0g4T1R2IBDgEnb3b7EhD7o3n_iq20HkB5W5cXTR2pdNc5ckP11KB7jX1S9TT-qT_0k0deqIEMfuY5RhA5d5ysaoYP954tJFhrWQouI077SeL5MYT8SfONv_C4CbDxoeDPvHA7TSA-c-MsoA5keATgWDYOHCIQkLw08km6MjQWDSMYmqSwQwNANLCnc6aadoUYdlFMZRV8pkr-5irhOtrCWiWk6oe2HNBbsigk0BfUnhwx2uhCHXysLC9Wqlf3VgrcvgkIy04zp-zLArvAGIZJNUSCjlbsfY27-utKBEB6jPlmuMhlo0- -BVedRSr2J-hPNnypm-X8jmFGcJS1HrskNaOY-DbvNITe2lxjKZCqsN3aPFOpWiyc8_qcdIn0U78tmoH_DmzdqoNaTFi-dyYihZjUYji05HQxg1MoPpGQtp6KaDMcWq1aebNVPFk5ziFBajzc2vXzW6x26s8NkANSNfCXp7FyD5J8NmQlMqKW_1RqgLrFy3LViBBzcE5wvTzzjx4ODCPrkGYgxf0FC2_PTimuKb9xSmNhgHq6x5yqmiutKIhlmfe57HwErddlXc77vUA-9wL9IedjLSHEaYJaQUiNWQL90nSvQXw1MpkasS_GyEgo_dsDLDhWoyYw4p7IxTjEdqt56h8OX68VLRLqhpNoAYg7cEn_tV_mC0]--></g></svg>