<?xml version="1.0" encoding="us-ascii" standalone="no"?><svg xmlns="http://www.w3.org/2000/svg" xmlns:xlink="http://www.w3.org/1999/xlink" contentStyleType="text/css" height="1255px" preserveAspectRatio="none" style="width:1790px;height:1255px;background:#FFFFFF;" version="1.1" viewBox="0 0 1790 1255" width="1790px" zoomAndPan="magnify"><defs/><g><line style="stroke:#181818;stroke-width:1.5;" x1="92.5" x2="92.5" y1="63.9688" y2="83.9688"/><rect fill="#F1F1F1" height="33.9688" style="stroke:#181818;stroke-width:1.5;" width="165" x="10" y="83.9688"/><text fill="#000000" font-family="sans-serif" font-size="12" lengthAdjust="spacing" textLength="145" x="20" y="105.1074">Requirements Gathering</text><line style="stroke:#181818;stroke-width:1.5;" x1="92.5" x2="102.5" y1="149.9219" y2="149.9219"/><rect fill="#F1F1F1" height="33.9688" style="stroke:#181818;stroke-width:1.5;" width="205" x="102.5" y="132.9375"/><text fill="#000000" font-family="sans-serif" font-size="12" lengthAdjust="spacing" textLength="185" x="112.5" y="154.0762">Define functional requirements</text><line style="stroke:#181818;stroke-width:1.5;" x1="205" x2="215" y1="198.8906" y2="198.8906"/><rect fill="#F1F1F1" height="33.9688" style="stroke:#181818;stroke-width:1.5;" width="236" x="215" y="181.9063"/><text fill="#000000" font-family="sans-serif" font-size="12" lengthAdjust="spacing" textLength="216" x="225" y="203.0449">Define graph creation requirements</text><line style="stroke:#181818;stroke-width:1.5;" x1="205" x2="215" y1="247.8594" y2="247.8594"/><rect fill="#F1F1F1" height="33.9688" style="stroke:#181818;stroke-width:1.5;" width="228" x="215" y="230.875"/><text fill="#000000" font-family="sans-serif" font-size="12" lengthAdjust="spacing" textLength="208" x="225" y="252.0137">Define graph editing requirements</text><line style="stroke:#181818;stroke-width:1.5;" x1="205" x2="215" y1="296.8281" y2="296.8281"/><rect fill="#F1F1F1" height="33.9688" style="stroke:#181818;stroke-width:1.5;" width="245" x="215" y="279.8438"/><text fill="#000000" font-family="sans-serif" font-size="12" lengthAdjust="spacing" textLength="225" x="225" y="300.9824">Define graph exporting requirements</text><line style="stroke:#181818;stroke-width:1.5;" x1="205" x2="215" y1="345.7969" y2="345.7969"/><rect fill="#F1F1F1" height="33.9688" style="stroke:#181818;stroke-width:1.5;" width="244" x="215" y="328.8125"/><text fill="#000000" font-family="sans-serif" font-size="12" lengthAdjust="spacing" textLength="224" x="225" y="349.9512">Define graph importing requirements</text><line style="stroke:#181818;stroke-width:1.5;" x1="205" x2="215" y1="394.7656" y2="394.7656"/><rect fill="#F1F1F1" height="33.9688" style="stroke:#181818;stroke-width:1.5;" width="338" x="215" y="377.7813"/><text fill="#000000" font-family="sans-serif" font-size="12" lengthAdjust="spacing" textLength="318" x="225" y="398.9199">Define data visualization requirements (if applicable)</text><line style="stroke:#181818;stroke-width:1.5;" x1="205" x2="215" y1="443.7344" y2="443.7344"/><rect fill="#F1F1F1" height="33.9688" style="stroke:#181818;stroke-width:1.5;" width="414" x="215" y="426.75"/><text fill="#000000" font-family="sans-serif" font-size="12" lengthAdjust="spacing" textLength="394" x="225" y="447.8887">Define interactive graph visualization requirements (if applicable)</text><line style="stroke:#181818;stroke-width:1.5;" x1="205" x2="205" y1="166.9063" y2="443.7344"/><line style="stroke:#181818;stroke-width:1.5;" x1="92.5" x2="102.5" y1="492.7031" y2="492.7031"/><rect fill="#F1F1F1" height="33.9688" style="stroke:#181818;stroke-width:1.5;" width="141" x="102.5" y="475.7188"/><text fill="#000000" font-family="sans-serif" font-size="12" lengthAdjust="spacing" textLength="121" x="112.5" y="496.8574">Identify user stories</text><line style="stroke:#181818;stroke-width:1.5;" x1="173" x2="183" y1="541.6719" y2="541.6719"/><rect fill="#F1F1F1" height="33.9688" style="stroke:#181818;stroke-width:1.5;" width="190" x="183" y="524.6875"/><text fill="#000000" font-family="sans-serif" font-size="12" lengthAdjust="spacing" textLength="170" x="193" y="545.8262">Create user story templates</text><line style="stroke:#181818;stroke-width:1.5;" x1="173" x2="183" y1="590.6406" y2="590.6406"/><rect fill="#F1F1F1" height="33.9688" style="stroke:#181818;stroke-width:1.5;" width="163" x="183" y="573.6563"/><text fill="#000000" font-family="sans-serif" font-size="12" lengthAdjust="spacing" textLength="143" x="193" y="594.7949">Create user story maps</text><line style="stroke:#181818;stroke-width:1.5;" x1="173" x2="183" y1="639.6094" y2="639.6094"/><rect fill="#F1F1F1" height="33.9688" style="stroke:#181818;stroke-width:1.5;" width="403" x="183" y="622.625"/><text fill="#000000" font-family="sans-serif" font-size="12" lengthAdjust="spacing" textLength="383" x="193" y="643.7637">Prioritize user stories based on business value and user needs</text><line style="stroke:#181818;stroke-width:1.5;" x1="173" x2="173" y1="509.6875" y2="639.6094"/><line style="stroke:#181818;stroke-width:1.5;" x1="92.5" x2="102.5" y1="688.5781" y2="688.5781"/><rect fill="#F1F1F1" height="33.9688" style="stroke:#181818;stroke-width:1.5;" width="152" x="102.5" y="671.5938"/><text fill="#000000" font-family="sans-serif" font-size="12" lengthAdjust="spacing" textLength="132" x="112.5" y="692.7324">Create user personas</text><line style="stroke:#181818;stroke-width:1.5;" x1="178.5" x2="188.5" y1="737.5469" y2="737.5469"/><rect fill="#F1F1F1" height="33.9688" style="stroke:#181818;stroke-width:1.5;" width="299" x="188.5" y="720.5625"/><text fill="#000000" font-family="sans-serif" font-size="12" lengthAdjust="spacing" textLength="279" x="198.5" y="741.7012">Define user demographics and characteristics</text><line style="stroke:#181818;stroke-width:1.5;" x1="178.5" x2="188.5" y1="786.5156" y2="786.5156"/><rect fill="#F1F1F1" height="33.9688" style="stroke:#181818;stroke-width:1.5;" width="209" x="188.5" y="769.5313"/><text fill="#000000" font-family="sans-serif" font-size="12" lengthAdjust="spacing" textLength="189" x="198.5" y="790.6699">Create user persona templates</text><line style="stroke:#181818;stroke-width:1.5;" x1="178.5" x2="188.5" y1="835.4844" y2="835.4844"/><rect fill="#F1F1F1" height="33.9688" style="stroke:#181818;stroke-width:1.5;" width="406" x="188.5" y="818.5"/><text fill="#000000" font-family="sans-serif" font-size="12" lengthAdjust="spacing" textLength="386" x="198.5" y="839.6387">Prioritize user personas based on their relevance to the project</text><line style="stroke:#181818;stroke-width:1.5;" x1="178.5" x2="178.5" y1="705.5625" y2="835.4844"/><line style="stroke:#181818;stroke-width:1.5;" x1="92.5" x2="102.5" y1="884.4531" y2="884.4531"/><rect fill="#F1F1F1" height="33.9688" style="stroke:#181818;stroke-width:1.5;" width="125" x="102.5" y="867.4688"/><text fill="#000000" font-family="sans-serif" font-size="12" lengthAdjust="spacing" textLength="105" x="112.5" y="888.6074">Define use cases</text><line style="stroke:#181818;stroke-width:1.5;" x1="165" x2="175" y1="933.4219" y2="933.4219"/><rect fill="#F1F1F1" height="33.9688" style="stroke:#181818;stroke-width:1.5;" width="183" x="175" y="916.4375"/><text fill="#000000" font-family="sans-serif" font-size="12" lengthAdjust="spacing" textLength="163" x="185" y="937.5762">Create use case templates</text><line style="stroke:#181818;stroke-width:1.5;" x1="165" x2="175" y1="982.3906" y2="982.3906"/><rect fill="#F1F1F1" height="33.9688" style="stroke:#181818;stroke-width:1.5;" width="293" x="175" y="965.4063"/><text fill="#000000" font-family="sans-serif" font-size="12" lengthAdjust="spacing" textLength="273" x="185" y="986.5449">Identify primary use cases for the application</text><line style="stroke:#181818;stroke-width:1.5;" x1="165" x2="175" y1="1031.3594" y2="1031.3594"/><rect fill="#F1F1F1" height="33.9688" style="stroke:#181818;stroke-width:1.5;" width="380" x="175" y="1014.375"/><text fill="#000000" font-family="sans-serif" font-size="12" lengthAdjust="spacing" textLength="360" x="185" y="1035.5137">Prioritize use cases based on their relevance to the project</text><line style="stroke:#181818;stroke-width:1.5;" x1="165" x2="165" y1="901.4375" y2="1031.3594"/><line style="stroke:#181818;stroke-width:1.5;" x1="92.5" x2="92.5" y1="117.9375" y2="884.4531"/><line style="stroke:#181818;stroke-width:1.5;" x1="680" x2="680" y1="63.9688" y2="83.9688"/><rect fill="#F1F1F1" height="33.9688" style="stroke:#181818;stroke-width:1.5;" width="62" x="649" y="83.9688"/><text fill="#000000" font-family="sans-serif" font-size="12" lengthAdjust="spacing" textLength="42" x="659" y="105.1074">Design</text><line style="stroke:#181818;stroke-width:1.5;" x1="680" x2="690" y1="149.9219" y2="149.9219"/><rect fill="#F1F1F1" height="33.9688" style="stroke:#181818;stroke-width:1.5;" width="217" x="690" y="132.9375"/><text fill="#000000" font-family="sans-serif" font-size="12" lengthAdjust="spacing" textLength="197" x="700" y="154.0762">Create wireframes and mockups</text><line style="stroke:#181818;stroke-width:1.5;" x1="798.5" x2="808.5" y1="198.8906" y2="198.8906"/><rect fill="#F1F1F1" height="33.9688" style="stroke:#181818;stroke-width:1.5;" width="200" x="808.5" y="181.9063"/><text fill="#000000" font-family="sans-serif" font-size="12" lengthAdjust="spacing" textLength="180" x="818.5" y="203.0449">Develop wireframe templates</text><line style="stroke:#181818;stroke-width:1.5;" x1="798.5" x2="808.5" y1="247.8594" y2="247.8594"/><rect fill="#F1F1F1" height="33.9688" style="stroke:#181818;stroke-width:1.5;" width="366" x="808.5" y="230.875"/><text fill="#000000" font-family="sans-serif" font-size="12" lengthAdjust="spacing" textLength="346" x="818.5" y="252.0137">Create wireframes for each key screen of the application</text><line style="stroke:#181818;stroke-width:1.5;" x1="798.5" x2="808.5" y1="296.8281" y2="296.8281"/><rect fill="#F1F1F1" height="33.9688" style="stroke:#181818;stroke-width:1.5;" width="266" x="808.5" y="279.8438"/><text fill="#000000" font-family="sans-serif" font-size="12" lengthAdjust="spacing" textLength="246" x="818.5" y="300.9824">Incorporate feedback from stakeholders</text><line style="stroke:#181818;stroke-width:1.5;" x1="798.5" x2="798.5" y1="166.9063" y2="296.8281"/><line style="stroke:#181818;stroke-width:1.5;" x1="680" x2="690" y1="345.7969" y2="345.7969"/><rect fill="#F1F1F1" height="33.9688" style="stroke:#181818;stroke-width:1.5;" width="153" x="690" y="328.8125"/><text fill="#000000" font-family="sans-serif" font-size="12" lengthAdjust="spacing" textLength="133" x="700" y="349.9512">Develop UI/UX design</text><line style="stroke:#181818;stroke-width:1.5;" x1="766.5" x2="776.5" y1="394.7656" y2="394.7656"/><rect fill="#F1F1F1" height="33.9688" style="stroke:#181818;stroke-width:1.5;" width="217" x="776.5" y="377.7813"/><text fill="#000000" font-family="sans-serif" font-size="12" lengthAdjust="spacing" textLength="197" x="786.5" y="398.9199">Develop UI/UX design templates</text><line style="stroke:#181818;stroke-width:1.5;" x1="766.5" x2="776.5" y1="443.7344" y2="443.7344"/><rect fill="#F1F1F1" height="33.9688" style="stroke:#181818;stroke-width:1.5;" width="447" x="776.5" y="426.75"/><text fill="#000000" font-family="sans-serif" font-size="12" lengthAdjust="spacing" textLength="427" x="786.5" y="447.8887">Develop UI/UX design elements for each key screen of the application</text><line style="stroke:#181818;stroke-width:1.5;" x1="766.5" x2="776.5" y1="492.7031" y2="492.7031"/><rect fill="#F1F1F1" height="33.9688" style="stroke:#181818;stroke-width:1.5;" width="266" x="776.5" y="475.7188"/><text fill="#000000" font-family="sans-serif" font-size="12" lengthAdjust="spacing" textLength="246" x="786.5" y="496.8574">Incorporate feedback from stakeholders</text><line style="stroke:#181818;stroke-width:1.5;" x1="766.5" x2="766.5" y1="362.7813" y2="492.7031"/><line style="stroke:#181818;stroke-width:1.5;" x1="680" x2="690" y1="541.6719" y2="541.6719"/><rect fill="#F1F1F1" height="33.9688" style="stroke:#181818;stroke-width:1.5;" width="203" x="690" y="524.6875"/><text fill="#000000" font-family="sans-serif" font-size="12" lengthAdjust="spacing" textLength="183" x="700" y="545.8262">Create visual design elements</text><line style="stroke:#181818;stroke-width:1.5;" x1="791.5" x2="801.5" y1="590.6406" y2="590.6406"/><rect fill="#F1F1F1" height="33.9688" style="stroke:#181818;stroke-width:1.5;" width="218" x="801.5" y="573.6563"/><text fill="#000000" font-family="sans-serif" font-size="12" lengthAdjust="spacing" textLength="198" x="811.5" y="594.7949">Develop visual design templates</text><line style="stroke:#181818;stroke-width:1.5;" x1="791.5" x2="801.5" y1="639.6094" y2="639.6094"/><rect fill="#F1F1F1" height="33.9688" style="stroke:#181818;stroke-width:1.5;" width="437" x="801.5" y="622.625"/><text fill="#000000" font-family="sans-serif" font-size="12" lengthAdjust="spacing" textLength="417" x="811.5" y="643.7637">Create visual design elements for each key screen of the application</text><line style="stroke:#181818;stroke-width:1.5;" x1="791.5" x2="801.5" y1="688.5781" y2="688.5781"/><rect fill="#F1F1F1" height="33.9688" style="stroke:#181818;stroke-width:1.5;" width="266" x="801.5" y="671.5938"/><text fill="#000000" font-family="sans-serif" font-size="12" lengthAdjust="spacing" textLength="246" x="811.5" y="692.7324">Incorporate feedback from stakeholders</text><line style="stroke:#181818;stroke-width:1.5;" x1="791.5" x2="791.5" y1="558.6563" y2="688.5781"/><line style="stroke:#181818;stroke-width:1.5;" x1="680" x2="690" y1="737.5469" y2="737.5469"/><rect fill="#F1F1F1" height="33.9688" style="stroke:#181818;stroke-width:1.5;" width="198" x="690" y="720.5625"/><text fill="#000000" font-family="sans-serif" font-size="12" lengthAdjust="spacing" textLength="178" x="700" y="741.7012">Create design documentation</text><line style="stroke:#181818;stroke-width:1.5;" x1="789" x2="799" y1="786.5156" y2="786.5156"/><rect fill="#F1F1F1" height="33.9688" style="stroke:#181818;stroke-width:1.5;" width="233" x="799" y="769.5313"/><text fill="#000000" font-family="sans-serif" font-size="12" lengthAdjust="spacing" textLength="213" x="809" y="790.6699">Create design document templates</text><line style="stroke:#181818;stroke-width:1.5;" x1="789" x2="799" y1="835.4844" y2="835.4844"/><rect fill="#F1F1F1" height="33.9688" style="stroke:#181818;stroke-width:1.5;" width="291" x="799" y="818.5"/><text fill="#000000" font-family="sans-serif" font-size="12" lengthAdjust="spacing" textLength="271" x="809" y="839.6387">Document all design decisions and elements</text><line style="stroke:#181818;stroke-width:1.5;" x1="789" x2="799" y1="884.4531" y2="884.4531"/><rect fill="#F1F1F1" height="33.9688" style="stroke:#181818;stroke-width:1.5;" width="266" x="799" y="867.4688"/><text fill="#000000" font-family="sans-serif" font-size="12" lengthAdjust="spacing" textLength="246" x="809" y="888.6074">Incorporate feedback from stakeholders</text><line style="stroke:#181818;stroke-width:1.5;" x1="789" x2="789" y1="754.5313" y2="884.4531"/><line style="stroke:#181818;stroke-width:1.5;" x1="680" x2="680" y1="117.9375" y2="737.5469"/><line style="stroke:#181818;stroke-width:1.5;" x1="1309" x2="1309" y1="63.9688" y2="83.9688"/><rect fill="#F1F1F1" height="33.9688" style="stroke:#181818;stroke-width:1.5;" width="101" x="1258.5" y="83.9688"/><text fill="#000000" font-family="sans-serif" font-size="12" lengthAdjust="spacing" textLength="81" x="1268.5" y="105.1074">Development</text><line style="stroke:#181818;stroke-width:1.5;" x1="1309" x2="1319" y1="149.9219" y2="149.9219"/><rect fill="#F1F1F1" height="33.9688" style="stroke:#181818;stroke-width:1.5;" width="302" x="1319" y="132.9375"/><text fill="#000000" font-family="sans-serif" font-size="12" lengthAdjust="spacing" textLength="282" x="1329" y="154.0762">Create or import graph using JSON or GraphML</text><line style="stroke:#181818;stroke-width:1.5;" x1="1470" x2="1480" y1="198.8906" y2="198.8906"/><rect fill="#F1F1F1" height="33.9688" style="stroke:#181818;stroke-width:1.5;" width="222" x="1480" y="181.9063"/><text fill="#000000" font-family="sans-serif" font-size="12" lengthAdjust="spacing" textLength="202" x="1490" y="203.0449">Implement graph creation feature</text><line style="stroke:#181818;stroke-width:1.5;" x1="1470" x2="1480" y1="247.8594" y2="247.8594"/><rect fill="#F1F1F1" height="33.9688" style="stroke:#181818;stroke-width:1.5;" width="230" x="1480" y="230.875"/><text fill="#000000" font-family="sans-serif" font-size="12" lengthAdjust="spacing" textLength="210" x="1490" y="252.0137">Implement graph importing feature</text><line style="stroke:#181818;stroke-width:1.5;" x1="1470" x2="1480" y1="296.8281" y2="296.8281"/><rect fill="#F1F1F1" height="33.9688" style="stroke:#181818;stroke-width:1.5;" width="266" x="1480" y="279.8438"/><text fill="#000000" font-family="sans-serif" font-size="12" lengthAdjust="spacing" textLength="246" x="1490" y="300.9824">Incorporate feedback from stakeholders</text><line style="stroke:#181818;stroke-width:1.5;" x1="1470" x2="1470" y1="166.9063" y2="296.8281"/><line style="stroke:#181818;stroke-width:1.5;" x1="1309" x2="1319" y1="345.7969" y2="345.7969"/><rect fill="#F1F1F1" height="33.9688" style="stroke:#181818;stroke-width:1.5;" width="199" x="1319" y="328.8125"/><text fill="#000000" font-family="sans-serif" font-size="12" lengthAdjust="spacing" textLength="179" x="1329" y="349.9512">Add or edit nodes and edges</text><line style="stroke:#181818;stroke-width:1.5;" x1="1418.5" x2="1428.5" y1="394.7656" y2="394.7656"/><rect fill="#F1F1F1" height="33.9688" style="stroke:#181818;stroke-width:1.5;" width="280" x="1428.5" y="377.7813"/><text fill="#000000" font-family="sans-serif" font-size="12" lengthAdjust="spacing" textLength="260" x="1438.5" y="398.9199">Implement node and edge creation feature</text><line style="stroke:#181818;stroke-width:1.5;" x1="1418.5" x2="1428.5" y1="443.7344" y2="443.7344"/><rect fill="#F1F1F1" height="33.9688" style="stroke:#181818;stroke-width:1.5;" width="272" x="1428.5" y="426.75"/><text fill="#000000" font-family="sans-serif" font-size="12" lengthAdjust="spacing" textLength="252" x="1438.5" y="447.8887">Implement node and edge editing feature</text><line style="stroke:#181818;stroke-width:1.5;" x1="1418.5" x2="1428.5" y1="492.7031" y2="492.7031"/><rect fill="#F1F1F1" height="33.9688" style="stroke:#181818;stroke-width:1.5;" width="266" x="1428.5" y="475.7188"/><text fill="#000000" font-family="sans-serif" font-size="12" lengthAdjust="spacing" textLength="246" x="1438.5" y="496.8574">Incorporate feedback from stakeholders</text><line style="stroke:#181818;stroke-width:1.5;" x1="1418.5" x2="1418.5" y1="362.7813" y2="492.7031"/><line style="stroke:#181818;stroke-width:1.5;" x1="1309" x2="1319" y1="541.6719" y2="541.6719"/><rect fill="#F1F1F1" height="33.9688" style="stroke:#181818;stroke-width:1.5;" width="205" x="1319" y="524.6875"/><text fill="#000000" font-family="sans-serif" font-size="12" lengthAdjust="spacing" textLength="185" x="1329" y="545.8262">Save and load graph progress</text><line style="stroke:#181818;stroke-width:1.5;" x1="1421.5" x2="1431.5" y1="590.6406" y2="590.6406"/><rect fill="#F1F1F1" height="33.9688" style="stroke:#181818;stroke-width:1.5;" width="219" x="1431.5" y="573.6563"/><text fill="#000000" font-family="sans-serif" font-size="12" lengthAdjust="spacing" textLength="199" x="1441.5" y="594.7949">Implement save and load feature</text><line style="stroke:#181818;stroke-width:1.5;" x1="1421.5" x2="1431.5" y1="639.6094" y2="639.6094"/><rect fill="#F1F1F1" height="33.9688" style="stroke:#181818;stroke-width:1.5;" width="266" x="1431.5" y="622.625"/><text fill="#000000" font-family="sans-serif" font-size="12" lengthAdjust="spacing" textLength="246" x="1441.5" y="643.7637">Incorporate feedback from stakeholders</text><line style="stroke:#181818;stroke-width:1.5;" x1="1421.5" x2="1421.5" y1="558.6563" y2="639.6094"/><line style="stroke:#181818;stroke-width:1.5;" x1="1309" x2="1319" y1="688.5781" y2="688.5781"/><rect fill="#F1F1F1" height="33.9688" style="stroke:#181818;stroke-width:1.5;" width="280" x="1319" y="671.5938"/><text fill="#000000" font-family="sans-serif" font-size="12" lengthAdjust="spacing" textLength="260" x="1329" y="692.7324">Export graph in GraphML format for sharing</text><line style="stroke:#181818;stroke-width:1.5;" x1="1459" x2="1469" y1="737.5469" y2="737.5469"/><rect fill="#F1F1F1" height="33.9688" style="stroke:#181818;stroke-width:1.5;" width="230" x="1469" y="720.5625"/><text fill="#000000" font-family="sans-serif" font-size="12" lengthAdjust="spacing" textLength="210" x="1479" y="741.7012">Implement GraphML export feature</text><line style="stroke:#181818;stroke-width:1.5;" x1="1459" x2="1469" y1="786.5156" y2="786.5156"/><rect fill="#F1F1F1" height="33.9688" style="stroke:#181818;stroke-width:1.5;" width="266" x="1469" y="769.5313"/><text fill="#000000" font-family="sans-serif" font-size="12" lengthAdjust="spacing" textLength="246" x="1479" y="790.6699">Incorporate feedback from stakeholders</text><line style="stroke:#181818;stroke-width:1.5;" x1="1459" x2="1459" y1="705.5625" y2="786.5156"/><line style="stroke:#181818;stroke-width:1.5;" x1="1309" x2="1319" y1="835.4844" y2="835.4844"/><rect fill="#F1F1F1" height="33.9688" style="stroke:#181818;stroke-width:1.5;" width="277" x="1319" y="818.5"/><text fill="#000000" font-family="sans-serif" font-size="12" lengthAdjust="spacing" textLength="257" x="1329" y="839.6387">Implement data visualization (if applicable)</text><line style="stroke:#181818;stroke-width:1.5;" x1="1457.5" x2="1467.5" y1="884.4531" y2="884.4531"/><rect fill="#F1F1F1" height="33.9688" style="stroke:#181818;stroke-width:1.5;" width="237" x="1467.5" y="867.4688"/><text fill="#000000" font-family="sans-serif" font-size="12" lengthAdjust="spacing" textLength="217" x="1477.5" y="888.6074">Implement data visualization feature</text><line style="stroke:#181818;stroke-width:1.5;" x1="1457.5" x2="1467.5" y1="933.4219" y2="933.4219"/><rect fill="#F1F1F1" height="33.9688" style="stroke:#181818;stroke-width:1.5;" width="266" x="1467.5" y="916.4375"/><text fill="#000000" font-family="sans-serif" font-size="12" lengthAdjust="spacing" textLength="246" x="1477.5" y="937.5762">Incorporate feedback from stakeholders</text><line style="stroke:#181818;stroke-width:1.5;" x1="1457.5" x2="1457.5" y1="852.4688" y2="933.4219"/><line style="stroke:#181818;stroke-width:1.5;" x1="1309" x2="1319" y1="982.3906" y2="982.3906"/><rect fill="#F1F1F1" height="33.9688" style="stroke:#181818;stroke-width:1.5;" width="353" x="1319" y="965.4063"/><text fill="#000000" font-family="sans-serif" font-size="12" lengthAdjust="spacing" textLength="333" x="1329" y="986.5449">Implement interactive graph visualization (if applicable)</text><line style="stroke:#181818;stroke-width:1.5;" x1="1495.5" x2="1505.5" y1="1031.3594" y2="1031.3594"/><rect fill="#F1F1F1" height="33.9688" style="stroke:#181818;stroke-width:1.5;" width="274" x="1505.5" y="1014.375"/><text fill="#000000" font-family="sans-serif" font-size="12" lengthAdjust="spacing" textLength="254" x="1515.5" y="1035.5137">Implement interactive visualization feature</text><line style="stroke:#181818;stroke-width:1.5;" x1="1495.5" x2="1505.5" y1="1080.3281" y2="1080.3281"/><rect fill="#F1F1F1" height="33.9688" style="stroke:#181818;stroke-width:1.5;" width="266" x="1505.5" y="1063.3438"/><text fill="#000000" font-family="sans-serif" font-size="12" lengthAdjust="spacing" textLength="246" x="1515.5" y="1084.4824">Incorporate feedback from stakeholders</text><line style="stroke:#181818;stroke-width:1.5;" x1="1495.5" x2="1495.5" y1="999.375" y2="1080.3281"/><line style="stroke:#181818;stroke-width:1.5;" x1="1309" x2="1319" y1="1129.2969" y2="1129.2969"/><rect fill="#F1F1F1" height="33.9688" style="stroke:#181818;stroke-width:1.5;" width="339" x="1319" y="1112.3125"/><text fill="#000000" font-family="sans-serif" font-size="12" lengthAdjust="spacing" textLength="319" x="1329" y="1133.4512">Export graph visualization as an image (if applicable)</text><line style="stroke:#181818;stroke-width:1.5;" x1="1488.5" x2="1498.5" y1="1178.2656" y2="1178.2656"/><rect fill="#F1F1F1" height="33.9688" style="stroke:#181818;stroke-width:1.5;" width="215" x="1498.5" y="1161.2813"/><text fill="#000000" font-family="sans-serif" font-size="12" lengthAdjust="spacing" textLength="195" x="1508.5" y="1182.4199">Implement image export feature</text><line style="stroke:#181818;stroke-width:1.5;" x1="1488.5" x2="1498.5" y1="1227.2344" y2="1227.2344"/><rect fill="#F1F1F1" height="33.9688" style="stroke:#181818;stroke-width:1.5;" width="266" x="1498.5" y="1210.25"/><text fill="#000000" font-family="sans-serif" font-size="12" lengthAdjust="spacing" textLength="246" x="1508.5" y="1231.3887">Incorporate feedback from stakeholders</text><line style="stroke:#181818;stroke-width:1.5;" x1="1488.5" x2="1488.5" y1="1146.2813" y2="1227.2344"/><line style="stroke:#181818;stroke-width:1.5;" x1="1309" x2="1309" y1="117.9375" y2="1129.2969"/><line style="stroke:#181818;stroke-width:1.5;" x1="92.5" x2="1309" y1="63.9688" y2="63.9688"/><rect fill="#F1F1F1" height="33.9688" style="stroke:#181818;stroke-width:1.5;" width="137" x="632.25" y="10"/><text fill="#000000" font-family="sans-serif" font-size="12" lengthAdjust="spacing" textLength="117" x="642.25" y="31.1387">SPA GraphML Editor</text><line style="stroke:#181818;stroke-width:1.5;" x1="700.75" x2="700.75" y1="43.9688" y2="63.9688"/><!--SRC=[xLPTSzCw47tthzWtskb0WGiCq-dj56WfxRJS3ccO-xgMrebkRCb8ialuzQninx5JSrCAlFaf4-_HsQFzqEwnysZzRUoYHuU9qHw4IOtz-mJjOfAYfpEBowF3-EY4IafDdX53Rj0j72J6mkJw3J0YdrzTmgbKtjZ3_VZeS3ym7KLx0_PeRmy-qPT2MGfS3ixGpyagFMFB7fnGeZH1KcZXbT6OWks00wJ5p08l24iOaDjmnDxPoLROrzpO-m1LjXKeqIEKoXMOgcztHSAEIW3pF5K2uvHsUsULzcIHOr2k7FuS4PnBDgba2OKZ2uuZhwYHzow4ZDQ69NZAyf3i7m8op1lRjLLCvTKtwZ53Z8uaiBAuS7m1vw34j210BMkW9f8LHuy-9-iupVt0LHP9cQbkheIhMCGSGqIuLfpdRtUbDboRjzbKl7Avbim5g2o7DAKIjI3m9do2t9h_IFYehmm47xlZlVgwwRdDGMvLXdQvFburJ_3Hf2taT4XjWxw_KXRgr4ntutpBTP9OpAWEOsR4eiZRW5TTlSRye1Gw744vePZ3WfRWkFr8Wqc6BtEkXR7S9u4YuVp7A1QGM9DnsU22vYQLd8oegsHwlZ_zbvE_kiMmPLFc88QZLFV77vBSnAPkp4sdVLrzp72CXtd-iFZ6cpIY2EuwNCE0Eu5VVSUqbIv9ACSyTRtr0t9lXT0PE5t178twwMsUnV3QpE1Yyi_7O6fcJUEBbLQ-DqT5mh-5fM7K-c7lm-uVsZTI1YrXue0sikaxahFsNMXT1dDhtIgmZrvDj8VAd61PiwK6PNDvVaXcbX_lJS-kXtsenzEldSGftMu6NE8P-ghI7J_opIxGzRz2rkFvmGBMX0EpUN0S_- -9NvUnRSnlqTGz_dkazLBKfyHGnzmUoBMtJLS5-eLa7PEMOIUDZjlrT5mcnsLoN2R7PN9S9iTbSbmcnsLoN2R7PV8dbydh5BMVSkPB_XnKF7lo_EdplvwyYidZovsfNcXpgq6OB5SfJo-LiPgTi-jBSAQmF24bRmjMnKMumcvqWIN2fq87t064VpitLximELrzX5DTAcjqzUnSVBwgGV31-4bkV0L-zUBnM-xi2LdM19-l8juDi4Wz7nL6Sl4UmFJc_UFNqINgMS61E03IqJl33koIRPFl]--></g></svg>