<?xml version="1.0" encoding="us-ascii" standalone="no"?><svg xmlns="http://www.w3.org/2000/svg" xmlns:xlink="http://www.w3.org/1999/xlink" contentStyleType="text/css" height="1157px" preserveAspectRatio="none" style="width:1757px;height:1157px;background:#FFFFFF;" version="1.1" viewBox="0 0 1757 1157" width="1757px" zoomAndPan="magnify"><defs/><g><line style="stroke:#181818;stroke-width:1.5;" x1="60" x2="60" y1="63.9688" y2="83.9688"/><rect fill="#F1F1F1" height="33.9688" style="stroke:#181818;stroke-width:1.5;" width="100" x="10" y="83.9688"/><text fill="#000000" font-family="sans-serif" font-size="12" lengthAdjust="spacing" textLength="80" x="20" y="105.1074">Create Graph</text><line style="stroke:#181818;stroke-width:1.5;" x1="60" x2="70" y1="149.9219" y2="149.9219"/><rect fill="#F1F1F1" height="33.9688" style="stroke:#181818;stroke-width:1.5;" width="194" x="70" y="132.9375"/><text fill="#000000" font-family="sans-serif" font-size="12" lengthAdjust="spacing" textLength="174" x="80" y="154.0762">Implement Add Node feature</text><line style="stroke:#181818;stroke-width:1.5;" x1="167" x2="177" y1="198.8906" y2="198.8906"/><rect fill="#F1F1F1" height="33.9688" style="stroke:#181818;stroke-width:1.5;" width="267" x="177" y="181.9063"/><text fill="#000000" font-family="sans-serif" font-size="12" lengthAdjust="spacing" textLength="247" x="187" y="203.0449">Develop user interface for adding nodes</text><line style="stroke:#181818;stroke-width:1.5;" x1="167" x2="177" y1="247.8594" y2="247.8594"/><rect fill="#F1F1F1" height="33.9688" style="stroke:#181818;stroke-width:1.5;" width="279" x="177" y="230.875"/><text fill="#000000" font-family="sans-serif" font-size="12" lengthAdjust="spacing" textLength="259" x="187" y="252.0137">Implement logic for adding nodes to graph</text><line style="stroke:#181818;stroke-width:1.5;" x1="167" x2="167" y1="166.9063" y2="247.8594"/><line style="stroke:#181818;stroke-width:1.5;" x1="60" x2="70" y1="296.8281" y2="296.8281"/><rect fill="#F1F1F1" height="33.9688" style="stroke:#181818;stroke-width:1.5;" width="192" x="70" y="279.8438"/><text fill="#000000" font-family="sans-serif" font-size="12" lengthAdjust="spacing" textLength="172" x="80" y="300.9824">Implement Edit Node feature</text><line style="stroke:#181818;stroke-width:1.5;" x1="166" x2="176" y1="345.7969" y2="345.7969"/><rect fill="#F1F1F1" height="33.9688" style="stroke:#181818;stroke-width:1.5;" width="267" x="176" y="328.8125"/><text fill="#000000" font-family="sans-serif" font-size="12" lengthAdjust="spacing" textLength="247" x="186" y="349.9512">Develop user interface for editing nodes</text><line style="stroke:#181818;stroke-width:1.5;" x1="166" x2="176" y1="394.7656" y2="394.7656"/><rect fill="#F1F1F1" height="33.9688" style="stroke:#181818;stroke-width:1.5;" width="277" x="176" y="377.7813"/><text fill="#000000" font-family="sans-serif" font-size="12" lengthAdjust="spacing" textLength="257" x="186" y="398.9199">Implement logic for editing nodes in graph</text><line style="stroke:#181818;stroke-width:1.5;" x1="166" x2="166" y1="313.8125" y2="394.7656"/><line style="stroke:#181818;stroke-width:1.5;" x1="60" x2="70" y1="443.7344" y2="443.7344"/><rect fill="#F1F1F1" height="33.9688" style="stroke:#181818;stroke-width:1.5;" width="210" x="70" y="426.75"/><text fill="#000000" font-family="sans-serif" font-size="12" lengthAdjust="spacing" textLength="190" x="80" y="447.8887">Implement Delete Node feature</text><line style="stroke:#181818;stroke-width:1.5;" x1="175" x2="185" y1="492.7031" y2="492.7031"/><rect fill="#F1F1F1" height="33.9688" style="stroke:#181818;stroke-width:1.5;" width="275" x="185" y="475.7188"/><text fill="#000000" font-family="sans-serif" font-size="12" lengthAdjust="spacing" textLength="255" x="195" y="496.8574">Develop user interface for deleting nodes</text><line style="stroke:#181818;stroke-width:1.5;" x1="175" x2="185" y1="541.6719" y2="541.6719"/><rect fill="#F1F1F1" height="33.9688" style="stroke:#181818;stroke-width:1.5;" width="303" x="185" y="524.6875"/><text fill="#000000" font-family="sans-serif" font-size="12" lengthAdjust="spacing" textLength="283" x="195" y="545.8262">Implement logic for deleting nodes from graph</text><line style="stroke:#181818;stroke-width:1.5;" x1="175" x2="175" y1="460.7188" y2="541.6719"/><line style="stroke:#181818;stroke-width:1.5;" x1="60" x2="70" y1="590.6406" y2="590.6406"/><rect fill="#F1F1F1" height="33.9688" style="stroke:#181818;stroke-width:1.5;" width="193" x="70" y="573.6563"/><text fill="#000000" font-family="sans-serif" font-size="12" lengthAdjust="spacing" textLength="173" x="80" y="594.7949">Implement Add Edge feature</text><line style="stroke:#181818;stroke-width:1.5;" x1="166.5" x2="176.5" y1="639.6094" y2="639.6094"/><rect fill="#F1F1F1" height="33.9688" style="stroke:#181818;stroke-width:1.5;" width="268" x="176.5" y="622.625"/><text fill="#000000" font-family="sans-serif" font-size="12" lengthAdjust="spacing" textLength="248" x="186.5" y="643.7637">Develop user interface for adding edges</text><line style="stroke:#181818;stroke-width:1.5;" x1="166.5" x2="176.5" y1="688.5781" y2="688.5781"/><rect fill="#F1F1F1" height="33.9688" style="stroke:#181818;stroke-width:1.5;" width="280" x="176.5" y="671.5938"/><text fill="#000000" font-family="sans-serif" font-size="12" lengthAdjust="spacing" textLength="260" x="186.5" y="692.7324">Implement logic for adding edges to graph</text><line style="stroke:#181818;stroke-width:1.5;" x1="166.5" x2="166.5" y1="607.625" y2="688.5781"/><line style="stroke:#181818;stroke-width:1.5;" x1="60" x2="70" y1="737.5469" y2="737.5469"/><rect fill="#F1F1F1" height="33.9688" style="stroke:#181818;stroke-width:1.5;" width="360" x="70" y="720.5625"/><text fill="#000000" font-family="sans-serif" font-size="12" lengthAdjust="spacing" textLength="340" x="80" y="741.7012">Implement Automatic Key Creation feature (stretch goal)</text><line style="stroke:#181818;stroke-width:1.5;" x1="250" x2="260" y1="786.5156" y2="786.5156"/><rect fill="#F1F1F1" height="33.9688" style="stroke:#181818;stroke-width:1.5;" width="266" x="260" y="769.5313"/><text fill="#000000" font-family="sans-serif" font-size="12" lengthAdjust="spacing" textLength="246" x="270" y="790.6699">Develop logic for automatic key creation</text><line style="stroke:#181818;stroke-width:1.5;" x1="250" x2="260" y1="835.4844" y2="835.4844"/><rect fill="#F1F1F1" height="33.9688" style="stroke:#181818;stroke-width:1.5;" width="266" x="260" y="818.5"/><text fill="#000000" font-family="sans-serif" font-size="12" lengthAdjust="spacing" textLength="246" x="270" y="839.6387">Incorporate feedback from stakeholders</text><line style="stroke:#181818;stroke-width:1.5;" x1="250" x2="250" y1="754.5313" y2="835.4844"/><line style="stroke:#181818;stroke-width:1.5;" x1="60" x2="60" y1="117.9375" y2="737.5469"/><line style="stroke:#181818;stroke-width:1.5;" x1="587" x2="587" y1="63.9688" y2="83.9688"/><rect fill="#F1F1F1" height="33.9688" style="stroke:#181818;stroke-width:1.5;" width="82" x="546" y="83.9688"/><text fill="#000000" font-family="sans-serif" font-size="12" lengthAdjust="spacing" textLength="62" x="556" y="105.1074">Edit Graph</text><line style="stroke:#181818;stroke-width:1.5;" x1="587" x2="597" y1="149.9219" y2="149.9219"/><rect fill="#F1F1F1" height="33.9688" style="stroke:#181818;stroke-width:1.5;" width="192" x="597" y="132.9375"/><text fill="#000000" font-family="sans-serif" font-size="12" lengthAdjust="spacing" textLength="172" x="607" y="154.0762">Implement Edit Node feature</text><line style="stroke:#181818;stroke-width:1.5;" x1="693" x2="703" y1="198.8906" y2="198.8906"/><rect fill="#F1F1F1" height="33.9688" style="stroke:#181818;stroke-width:1.5;" width="267" x="703" y="181.9063"/><text fill="#000000" font-family="sans-serif" font-size="12" lengthAdjust="spacing" textLength="247" x="713" y="203.0449">Develop user interface for editing nodes</text><line style="stroke:#181818;stroke-width:1.5;" x1="693" x2="703" y1="247.8594" y2="247.8594"/><rect fill="#F1F1F1" height="33.9688" style="stroke:#181818;stroke-width:1.5;" width="277" x="703" y="230.875"/><text fill="#000000" font-family="sans-serif" font-size="12" lengthAdjust="spacing" textLength="257" x="713" y="252.0137">Implement logic for editing nodes in graph</text><line style="stroke:#181818;stroke-width:1.5;" x1="693" x2="693" y1="166.9063" y2="247.8594"/><line style="stroke:#181818;stroke-width:1.5;" x1="587" x2="597" y1="296.8281" y2="296.8281"/><rect fill="#F1F1F1" height="33.9688" style="stroke:#181818;stroke-width:1.5;" width="210" x="597" y="279.8438"/><text fill="#000000" font-family="sans-serif" font-size="12" lengthAdjust="spacing" textLength="190" x="607" y="300.9824">Implement Delete Node feature</text><line style="stroke:#181818;stroke-width:1.5;" x1="702" x2="712" y1="345.7969" y2="345.7969"/><rect fill="#F1F1F1" height="33.9688" style="stroke:#181818;stroke-width:1.5;" width="275" x="712" y="328.8125"/><text fill="#000000" font-family="sans-serif" font-size="12" lengthAdjust="spacing" textLength="255" x="722" y="349.9512">Develop user interface for deleting nodes</text><line style="stroke:#181818;stroke-width:1.5;" x1="702" x2="712" y1="394.7656" y2="394.7656"/><rect fill="#F1F1F1" height="33.9688" style="stroke:#181818;stroke-width:1.5;" width="468" x="712" y="377.7813"/><text fill="#000000" font-family="sans-serif" font-size="12" lengthAdjust="spacing" textLength="448" x="722" y="398.9199">Implement logic for deleting nodes from graph, and handle dependencies</text><line style="stroke:#181818;stroke-width:1.5;" x1="702" x2="702" y1="313.8125" y2="394.7656"/><line style="stroke:#181818;stroke-width:1.5;" x1="587" x2="597" y1="443.7344" y2="443.7344"/><rect fill="#F1F1F1" height="33.9688" style="stroke:#181818;stroke-width:1.5;" width="191" x="597" y="426.75"/><text fill="#000000" font-family="sans-serif" font-size="12" lengthAdjust="spacing" textLength="171" x="607" y="447.8887">Implement Edit Edge feature</text><line style="stroke:#181818;stroke-width:1.5;" x1="692.5" x2="702.5" y1="492.7031" y2="492.7031"/><rect fill="#F1F1F1" height="33.9688" style="stroke:#181818;stroke-width:1.5;" width="268" x="702.5" y="475.7188"/><text fill="#000000" font-family="sans-serif" font-size="12" lengthAdjust="spacing" textLength="248" x="712.5" y="496.8574">Develop user interface for editing edges</text><line style="stroke:#181818;stroke-width:1.5;" x1="692.5" x2="702.5" y1="541.6719" y2="541.6719"/><rect fill="#F1F1F1" height="33.9688" style="stroke:#181818;stroke-width:1.5;" width="278" x="702.5" y="524.6875"/><text fill="#000000" font-family="sans-serif" font-size="12" lengthAdjust="spacing" textLength="258" x="712.5" y="545.8262">Implement logic for editing edges in graph</text><line style="stroke:#181818;stroke-width:1.5;" x1="692.5" x2="692.5" y1="460.7188" y2="541.6719"/><line style="stroke:#181818;stroke-width:1.5;" x1="587" x2="597" y1="590.6406" y2="590.6406"/><rect fill="#F1F1F1" height="33.9688" style="stroke:#181818;stroke-width:1.5;" width="209" x="597" y="573.6563"/><text fill="#000000" font-family="sans-serif" font-size="12" lengthAdjust="spacing" textLength="189" x="607" y="594.7949">Implement Delete Edge feature</text><line style="stroke:#181818;stroke-width:1.5;" x1="701.5" x2="711.5" y1="639.6094" y2="639.6094"/><rect fill="#F1F1F1" height="33.9688" style="stroke:#181818;stroke-width:1.5;" width="276" x="711.5" y="622.625"/><text fill="#000000" font-family="sans-serif" font-size="12" lengthAdjust="spacing" textLength="256" x="721.5" y="643.7637">Develop user interface for deleting edges</text><line style="stroke:#181818;stroke-width:1.5;" x1="701.5" x2="711.5" y1="688.5781" y2="688.5781"/><rect fill="#F1F1F1" height="33.9688" style="stroke:#181818;stroke-width:1.5;" width="304" x="711.5" y="671.5938"/><text fill="#000000" font-family="sans-serif" font-size="12" lengthAdjust="spacing" textLength="284" x="721.5" y="692.7324">Implement logic for deleting edges from graph</text><line style="stroke:#181818;stroke-width:1.5;" x1="701.5" x2="701.5" y1="607.625" y2="688.5781"/><line style="stroke:#181818;stroke-width:1.5;" x1="587" x2="597" y1="737.5469" y2="737.5469"/><rect fill="#F1F1F1" height="33.9688" style="stroke:#181818;stroke-width:1.5;" width="222" x="597" y="720.5625"/><text fill="#000000" font-family="sans-serif" font-size="12" lengthAdjust="spacing" textLength="202" x="607" y="741.7012">Implement Save Progress feature</text><line style="stroke:#181818;stroke-width:1.5;" x1="708" x2="718" y1="786.5156" y2="786.5156"/><rect fill="#F1F1F1" height="33.9688" style="stroke:#181818;stroke-width:1.5;" width="329" x="718" y="769.5313"/><text fill="#000000" font-family="sans-serif" font-size="12" lengthAdjust="spacing" textLength="309" x="728" y="790.6699">Implement logic for saving progress of graph edits</text><line style="stroke:#181818;stroke-width:1.5;" x1="708" x2="718" y1="835.4844" y2="835.4844"/><rect fill="#F1F1F1" height="33.9688" style="stroke:#181818;stroke-width:1.5;" width="266" x="718" y="818.5"/><text fill="#000000" font-family="sans-serif" font-size="12" lengthAdjust="spacing" textLength="246" x="728" y="839.6387">Incorporate feedback from stakeholders</text><line style="stroke:#181818;stroke-width:1.5;" x1="708" x2="708" y1="754.5313" y2="835.4844"/><line style="stroke:#181818;stroke-width:1.5;" x1="587" x2="597" y1="884.4531" y2="884.4531"/><rect fill="#F1F1F1" height="33.9688" style="stroke:#181818;stroke-width:1.5;" width="221" x="597" y="867.4688"/><text fill="#000000" font-family="sans-serif" font-size="12" lengthAdjust="spacing" textLength="201" x="607" y="888.6074">Implement Load Progress feature</text><line style="stroke:#181818;stroke-width:1.5;" x1="707.5" x2="717.5" y1="933.4219" y2="933.4219"/><rect fill="#F1F1F1" height="33.9688" style="stroke:#181818;stroke-width:1.5;" width="334" x="717.5" y="916.4375"/><text fill="#000000" font-family="sans-serif" font-size="12" lengthAdjust="spacing" textLength="314" x="727.5" y="937.5762">Implement logic for loading progress of graph edits</text><line style="stroke:#181818;stroke-width:1.5;" x1="707.5" x2="717.5" y1="982.3906" y2="982.3906"/><rect fill="#F1F1F1" height="33.9688" style="stroke:#181818;stroke-width:1.5;" width="266" x="717.5" y="965.4063"/><text fill="#000000" font-family="sans-serif" font-size="12" lengthAdjust="spacing" textLength="246" x="727.5" y="986.5449">Incorporate feedback from stakeholders</text><line style="stroke:#181818;stroke-width:1.5;" x1="707.5" x2="707.5" y1="901.4375" y2="982.3906"/><line style="stroke:#181818;stroke-width:1.5;" x1="587" x2="597" y1="1031.3594" y2="1031.3594"/><rect fill="#F1F1F1" height="33.9688" style="stroke:#181818;stroke-width:1.5;" width="249" x="597" y="1014.375"/><text fill="#000000" font-family="sans-serif" font-size="12" lengthAdjust="spacing" textLength="229" x="607" y="1035.5137">Implement Undo/Redo Actions feature</text><line style="stroke:#181818;stroke-width:1.5;" x1="721.5" x2="731.5" y1="1080.3281" y2="1080.3281"/><rect fill="#F1F1F1" height="33.9688" style="stroke:#181818;stroke-width:1.5;" width="356" x="731.5" y="1063.3438"/><text fill="#000000" font-family="sans-serif" font-size="12" lengthAdjust="spacing" textLength="336" x="741.5" y="1084.4824">Develop user interface for undoing and redoing actions</text><line style="stroke:#181818;stroke-width:1.5;" x1="721.5" x2="731.5" y1="1129.2969" y2="1129.2969"/><rect fill="#F1F1F1" height="33.9688" style="stroke:#181818;stroke-width:1.5;" width="366" x="731.5" y="1112.3125"/><text fill="#000000" font-family="sans-serif" font-size="12" lengthAdjust="spacing" textLength="346" x="741.5" y="1133.4512">Implement logic for undoing and redoing actions in graph</text><line style="stroke:#181818;stroke-width:1.5;" x1="721.5" x2="721.5" y1="1048.3438" y2="1129.2969"/><line style="stroke:#181818;stroke-width:1.5;" x1="587" x2="587" y1="117.9375" y2="1031.3594"/><line style="stroke:#181818;stroke-width:1.5;" x1="1229" x2="1229" y1="63.9688" y2="83.9688"/><rect fill="#F1F1F1" height="33.9688" style="stroke:#181818;stroke-width:1.5;" width="58" x="1200" y="83.9688"/><text fill="#000000" font-family="sans-serif" font-size="12" lengthAdjust="spacing" textLength="38" x="1210" y="105.1074">File IO</text><line style="stroke:#181818;stroke-width:1.5;" x1="1229" x2="1239" y1="149.9219" y2="149.9219"/><rect fill="#F1F1F1" height="33.9688" style="stroke:#181818;stroke-width:1.5;" width="229" x="1239" y="132.9375"/><text fill="#000000" font-family="sans-serif" font-size="12" lengthAdjust="spacing" textLength="209" x="1249" y="154.0762">Implement Export GraphML feature</text><line style="stroke:#181818;stroke-width:1.5;" x1="1353.5" x2="1363.5" y1="198.8906" y2="198.8906"/><rect fill="#F1F1F1" height="33.9688" style="stroke:#181818;stroke-width:1.5;" width="383" x="1363.5" y="181.9063"/><text fill="#000000" font-family="sans-serif" font-size="12" lengthAdjust="spacing" textLength="363" x="1373.5" y="203.0449">Implement logic for exporting graph data to GraphML format</text><line style="stroke:#181818;stroke-width:1.5;" x1="1353.5" x2="1363.5" y1="247.8594" y2="247.8594"/><rect fill="#F1F1F1" height="33.9688" style="stroke:#181818;stroke-width:1.5;" width="266" x="1363.5" y="230.875"/><text fill="#000000" font-family="sans-serif" font-size="12" lengthAdjust="spacing" textLength="246" x="1373.5" y="252.0137">Incorporate feedback from stakeholders</text><line style="stroke:#181818;stroke-width:1.5;" x1="1353.5" x2="1353.5" y1="166.9063" y2="247.8594"/><line style="stroke:#181818;stroke-width:1.5;" x1="1229" x2="1239" y1="296.8281" y2="296.8281"/><rect fill="#F1F1F1" height="33.9688" style="stroke:#181818;stroke-width:1.5;" width="229" x="1239" y="279.8438"/><text fill="#000000" font-family="sans-serif" font-size="12" lengthAdjust="spacing" textLength="209" x="1249" y="300.9824">Implement Import GraphML feature</text><line style="stroke:#181818;stroke-width:1.5;" x1="1353.5" x2="1363.5" y1="345.7969" y2="345.7969"/><rect fill="#F1F1F1" height="33.9688" style="stroke:#181818;stroke-width:1.5;" width="350" x="1363.5" y="328.8125"/><text fill="#000000" font-family="sans-serif" font-size="12" lengthAdjust="spacing" textLength="330" x="1373.5" y="349.9512">Implement logic for importing GraphML data for editing</text><line style="stroke:#181818;stroke-width:1.5;" x1="1353.5" x2="1363.5" y1="394.7656" y2="394.7656"/><rect fill="#F1F1F1" height="33.9688" style="stroke:#181818;stroke-width:1.5;" width="266" x="1363.5" y="377.7813"/><text fill="#000000" font-family="sans-serif" font-size="12" lengthAdjust="spacing" textLength="246" x="1373.5" y="398.9199">Incorporate feedback from stakeholders</text><line style="stroke:#181818;stroke-width:1.5;" x1="1353.5" x2="1353.5" y1="313.8125" y2="394.7656"/><line style="stroke:#181818;stroke-width:1.5;" x1="1229" x2="1239" y1="443.7344" y2="443.7344"/><rect fill="#F1F1F1" height="33.9688" style="stroke:#181818;stroke-width:1.5;" width="207" x="1239" y="426.75"/><text fill="#000000" font-family="sans-serif" font-size="12" lengthAdjust="spacing" textLength="187" x="1249" y="447.8887">Implement Export JSON feature</text><line style="stroke:#181818;stroke-width:1.5;" x1="1342.5" x2="1352.5" y1="492.7031" y2="492.7031"/><rect fill="#F1F1F1" height="33.9688" style="stroke:#181818;stroke-width:1.5;" width="361" x="1352.5" y="475.7188"/><text fill="#000000" font-family="sans-serif" font-size="12" lengthAdjust="spacing" textLength="341" x="1362.5" y="496.8574">Implement logic for exporting graph data to JSON format</text><line style="stroke:#181818;stroke-width:1.5;" x1="1342.5" x2="1352.5" y1="541.6719" y2="541.6719"/><rect fill="#F1F1F1" height="33.9688" style="stroke:#181818;stroke-width:1.5;" width="266" x="1352.5" y="524.6875"/><text fill="#000000" font-family="sans-serif" font-size="12" lengthAdjust="spacing" textLength="246" x="1362.5" y="545.8262">Incorporate feedback from stakeholders</text><line style="stroke:#181818;stroke-width:1.5;" x1="1342.5" x2="1342.5" y1="460.7188" y2="541.6719"/><line style="stroke:#181818;stroke-width:1.5;" x1="1229" x2="1239" y1="590.6406" y2="590.6406"/><rect fill="#F1F1F1" height="33.9688" style="stroke:#181818;stroke-width:1.5;" width="207" x="1239" y="573.6563"/><text fill="#000000" font-family="sans-serif" font-size="12" lengthAdjust="spacing" textLength="187" x="1249" y="594.7949">Implement Import JSON feature</text><line style="stroke:#181818;stroke-width:1.5;" x1="1342.5" x2="1352.5" y1="639.6094" y2="639.6094"/><rect fill="#F1F1F1" height="33.9688" style="stroke:#181818;stroke-width:1.5;" width="328" x="1352.5" y="622.625"/><text fill="#000000" font-family="sans-serif" font-size="12" lengthAdjust="spacing" textLength="308" x="1362.5" y="643.7637">Implement logic for importing JSON data for editing</text><line style="stroke:#181818;stroke-width:1.5;" x1="1342.5" x2="1352.5" y1="688.5781" y2="688.5781"/><rect fill="#F1F1F1" height="33.9688" style="stroke:#181818;stroke-width:1.5;" width="266" x="1352.5" y="671.5938"/><text fill="#000000" font-family="sans-serif" font-size="12" lengthAdjust="spacing" textLength="246" x="1362.5" y="692.7324">Incorporate feedback from stakeholders</text><line style="stroke:#181818;stroke-width:1.5;" x1="1342.5" x2="1342.5" y1="607.625" y2="688.5781"/><line style="stroke:#181818;stroke-width:1.5;" x1="1229" x2="1229" y1="117.9375" y2="590.6406"/><line style="stroke:#181818;stroke-width:1.5;" x1="60" x2="1229" y1="63.9688" y2="63.9688"/><rect fill="#F1F1F1" height="33.9688" style="stroke:#181818;stroke-width:1.5;" width="222" x="533.5" y="10"/><text fill="#000000" font-family="sans-serif" font-size="12" lengthAdjust="spacing" textLength="202" x="543.5" y="31.1387">SPA GraphML Editor Development</text><line style="stroke:#181818;stroke-width:1.5;" x1="644.5" x2="644.5" y1="43.9688" y2="63.9688"/><!--SRC=[xLPDRzf04BtxLyoj89gaJTkeYYWA3IGDXGJ58VV5EpOMzewrNfFcttVMnWHIKd3JNYfVB7-ycNdp_7Ptpb8Zj7cOfiwRja_AW4SHwIyzeUTk90nUQl7OQKyxFLnWH4cC3BaJwJm5dpIuuoum8fcDXj2NeI7TFffssaSsKyTfRVaEQucSLWlEDNAL0iJFBRYAamZpCbqfuPeaWi-GJAFzt2hZ8KjHGwWCQbzucBCHKeOg0CKnQG5-IXPH47g_eC0G15jAMwxLQYD7x55y0yOfjbRlOOIiIQNwqiRiGM0J1xwcU2i7AtvV1fN5HuxPBNwEUadyRcOe5eOZlkDZOP2GL4a46gdHQBmP12IYvYQljKAh97DEuYsJB8afZtH2sXhFHvHJuSqB9NWnp756aKHjcoXyS5aRn79u2q99cF4bGaObg2GgBonoFPUcadNAddTuPmEsGvfAzLSjxo2mYNjvxRXYWJ3M56XCqqqMszAcOc6J9cK0-KNMlE6qecNNImn9o0ey8eR_6o8J9Ude5YL1rxFBCDtxrsGSQJbPwsbStXSvNcxaDq7hje6Ba9ryTVFSlp-uFRCwjdRAXZdUrYZ4ai88kxMj4f3cZUWLwl5T9K9XN18gGt9AQqle5MIMwWpSc-i_bwQ8_akwx4VbIPGS_of5pdZhinEJSxOQdkfHfnvrwb6d7dNgKQSUTUfHfnvr_hjHPnm9PIOiy89VspFg_U7nk-CFXoTJDE9JOwBcYXuKU1GdrcecZB7fD2x7GqWfqsnn6V9X5aupwyscCn0B0RUPihXJi4-Dkr4Jt7xv4lfg4MfI-V0qk1yL8FX6nat8vE2JZmTVUVzrKJCdk1yvFVH55l6FuzxiyZw5oTt5mMTdA5IGYO0BeNBEYGleH_xc_WG0]--></g></svg>