<?xml version="1.0" encoding="us-ascii" standalone="no"?><svg xmlns="http://www.w3.org/2000/svg" xmlns:xlink="http://www.w3.org/1999/xlink" contentStyleType="text/css" height="1500px" preserveAspectRatio="none" style="width:3608px;height:1500px;background:#FFFFFF;" version="1.1" viewBox="0 0 3608 1500" width="3608px" zoomAndPan="magnify"><defs/><g><line style="stroke:#181818;stroke-width:1.5;" x1="70.5" x2="70.5" y1="63.9688" y2="83.9688"/><rect fill="#F1F1F1" height="33.9688" style="stroke:#181818;stroke-width:1.5;" width="121" x="10" y="83.9688"/><text fill="#000000" font-family="sans-serif" font-size="12" lengthAdjust="spacing" textLength="101" x="20" y="105.1074">1.1 Create Graph</text><line style="stroke:#181818;stroke-width:1.5;" x1="70.5" x2="80.5" y1="149.9219" y2="149.9219"/><rect fill="#F1F1F1" height="33.9688" style="stroke:#181818;stroke-width:1.5;" width="225" x="80.5" y="132.9375"/><text fill="#000000" font-family="sans-serif" font-size="12" lengthAdjust="spacing" textLength="205" x="90.5" y="154.0762">1.1.1 Implement Add Node feature</text><line style="stroke:#181818;stroke-width:1.5;" x1="193" x2="203" y1="198.8906" y2="198.8906"/><rect fill="#F1F1F1" height="33.9688" style="stroke:#181818;stroke-width:1.5;" width="308" x="203" y="181.9063"/><text fill="#000000" font-family="sans-serif" font-size="12" lengthAdjust="spacing" textLength="288" x="213" y="203.0449">1.1.1.1 Develop user interface for adding nodes</text><line style="stroke:#181818;stroke-width:1.5;" x1="357" x2="367" y1="247.8594" y2="247.8594"/><rect fill="#F1F1F1" height="33.9688" style="stroke:#181818;stroke-width:1.5;" width="300" x="367" y="230.875"/><text fill="#000000" font-family="sans-serif" font-size="12" lengthAdjust="spacing" textLength="280" x="377" y="252.0137">"graphUI.js: OperationsUIObjectsFormSetup()"</text><line style="stroke:#181818;stroke-width:1.5;" x1="357" x2="367" y1="296.8281" y2="296.8281"/><rect fill="#F1F1F1" height="33.9688" style="stroke:#181818;stroke-width:1.5;" width="54" x="367" y="279.8438"/><text fill="#000000" font-family="sans-serif" font-size="12" lengthAdjust="spacing" textLength="34" x="377" y="300.9824">DONE</text><line style="stroke:#181818;stroke-width:1.5;" x1="357" x2="357" y1="215.875" y2="296.8281"/><line style="stroke:#181818;stroke-width:1.5;" x1="193" x2="203" y1="345.7969" y2="345.7969"/><rect fill="#F1F1F1" height="33.9688" style="stroke:#181818;stroke-width:1.5;" width="321" x="203" y="328.8125"/><text fill="#000000" font-family="sans-serif" font-size="12" lengthAdjust="spacing" textLength="301" x="213" y="349.9512">1.1.1.2 Implement logic for adding nodes to graph</text><line style="stroke:#181818;stroke-width:1.5;" x1="363.5" x2="373.5" y1="394.7656" y2="394.7656"/><rect fill="#F1F1F1" height="33.9688" style="stroke:#181818;stroke-width:1.5;" width="285" x="373.5" y="377.7813"/><text fill="#000000" font-family="sans-serif" font-size="12" lengthAdjust="spacing" textLength="265" x="383.5" y="398.9199">"graphOperations.js: addObjectOrUpdate()"</text><line style="stroke:#181818;stroke-width:1.5;" x1="363.5" x2="373.5" y1="443.7344" y2="443.7344"/><rect fill="#F1F1F1" height="33.9688" style="stroke:#181818;stroke-width:1.5;" width="54" x="373.5" y="426.75"/><text fill="#000000" font-family="sans-serif" font-size="12" lengthAdjust="spacing" textLength="34" x="383.5" y="447.8887">DONE</text><line style="stroke:#181818;stroke-width:1.5;" x1="363.5" x2="363.5" y1="362.7813" y2="443.7344"/><line style="stroke:#181818;stroke-width:1.5;" x1="193" x2="193" y1="166.9063" y2="345.7969"/><line style="stroke:#181818;stroke-width:1.5;" x1="70.5" x2="80.5" y1="492.7031" y2="492.7031"/><rect fill="#F1F1F1" height="33.9688" style="stroke:#181818;stroke-width:1.5;" width="224" x="80.5" y="475.7188"/><text fill="#000000" font-family="sans-serif" font-size="12" lengthAdjust="spacing" textLength="204" x="90.5" y="496.8574">1.1.2 Implement Edit Node feature</text><line style="stroke:#181818;stroke-width:1.5;" x1="192.5" x2="202.5" y1="541.6719" y2="541.6719"/><rect fill="#F1F1F1" height="33.9688" style="stroke:#181818;stroke-width:1.5;" width="309" x="202.5" y="524.6875"/><text fill="#000000" font-family="sans-serif" font-size="12" lengthAdjust="spacing" textLength="289" x="212.5" y="545.8262">1.1.2.1 Develop user interface for editing nodes</text><line style="stroke:#181818;stroke-width:1.5;" x1="357" x2="367" y1="590.6406" y2="590.6406"/><rect fill="#F1F1F1" height="33.9688" style="stroke:#181818;stroke-width:1.5;" width="371" x="367" y="573.6563"/><text fill="#000000" font-family="sans-serif" font-size="12" lengthAdjust="spacing" textLength="351" x="377" y="594.7949">"graphUI.js: OperationsUIObjectsFormSetup, editObject()"</text><line style="stroke:#181818;stroke-width:1.5;" x1="357" x2="367" y1="639.6094" y2="639.6094"/><rect fill="#F1F1F1" height="33.9688" style="stroke:#181818;stroke-width:1.5;" width="54" x="367" y="622.625"/><text fill="#000000" font-family="sans-serif" font-size="12" lengthAdjust="spacing" textLength="34" x="377" y="643.7637">DONE</text><line style="stroke:#181818;stroke-width:1.5;" x1="357" x2="357" y1="558.6563" y2="639.6094"/><line style="stroke:#181818;stroke-width:1.5;" x1="192.5" x2="202.5" y1="688.5781" y2="688.5781"/><rect fill="#F1F1F1" height="33.9688" style="stroke:#181818;stroke-width:1.5;" width="320" x="202.5" y="671.5938"/><text fill="#000000" font-family="sans-serif" font-size="12" lengthAdjust="spacing" textLength="300" x="212.5" y="692.7324">1.1.2.2 Implement logic for editing nodes in graph</text><line style="stroke:#181818;stroke-width:1.5;" x1="362.5" x2="372.5" y1="737.5469" y2="737.5469"/><rect fill="#F1F1F1" height="33.9688" style="stroke:#181818;stroke-width:1.5;" width="199" x="372.5" y="720.5625"/><text fill="#000000" font-family="sans-serif" font-size="12" lengthAdjust="spacing" textLength="179" x="382.5" y="741.7012">"graphEditing.js: editObject()"</text><line style="stroke:#181818;stroke-width:1.5;" x1="362.5" x2="372.5" y1="786.5156" y2="786.5156"/><rect fill="#F1F1F1" height="33.9688" style="stroke:#181818;stroke-width:1.5;" width="54" x="372.5" y="769.5313"/><text fill="#000000" font-family="sans-serif" font-size="12" lengthAdjust="spacing" textLength="34" x="382.5" y="790.6699">DONE</text><line style="stroke:#181818;stroke-width:1.5;" x1="362.5" x2="362.5" y1="705.5625" y2="786.5156"/><line style="stroke:#181818;stroke-width:1.5;" x1="192.5" x2="192.5" y1="509.6875" y2="688.5781"/><line style="stroke:#181818;stroke-width:1.5;" x1="70.5" x2="80.5" y1="835.4844" y2="835.4844"/><rect fill="#F1F1F1" height="33.9688" style="stroke:#181818;stroke-width:1.5;" width="242" x="80.5" y="818.5"/><text fill="#000000" font-family="sans-serif" font-size="12" lengthAdjust="spacing" textLength="222" x="90.5" y="839.6387">1.1.3 Implement Delete Node feature</text><line style="stroke:#181818;stroke-width:1.5;" x1="201.5" x2="211.5" y1="884.4531" y2="884.4531"/><rect fill="#F1F1F1" height="33.9688" style="stroke:#181818;stroke-width:1.5;" width="317" x="211.5" y="867.4688"/><text fill="#000000" font-family="sans-serif" font-size="12" lengthAdjust="spacing" textLength="297" x="221.5" y="888.6074">1.1.3.1 Develop user interface for deleting nodes</text><line style="stroke:#181818;stroke-width:1.5;" x1="370" x2="380" y1="933.4219" y2="933.4219"/><rect fill="#F1F1F1" height="33.9688" style="stroke:#181818;stroke-width:1.5;" width="183" x="380" y="916.4375"/><text fill="#000000" font-family="sans-serif" font-size="12" lengthAdjust="spacing" textLength="163" x="390" y="937.5762">"graphUI.js: updateTable()"</text><line style="stroke:#181818;stroke-width:1.5;" x1="370" x2="380" y1="982.3906" y2="982.3906"/><rect fill="#F1F1F1" height="33.9688" style="stroke:#181818;stroke-width:1.5;" width="54" x="380" y="965.4063"/><text fill="#000000" font-family="sans-serif" font-size="12" lengthAdjust="spacing" textLength="34" x="390" y="986.5449">DONE</text><line style="stroke:#181818;stroke-width:1.5;" x1="370" x2="370" y1="901.4375" y2="982.3906"/><line style="stroke:#181818;stroke-width:1.5;" x1="201.5" x2="211.5" y1="1031.3594" y2="1031.3594"/><rect fill="#F1F1F1" height="33.9688" style="stroke:#181818;stroke-width:1.5;" width="346" x="211.5" y="1014.375"/><text fill="#000000" font-family="sans-serif" font-size="12" lengthAdjust="spacing" textLength="326" x="221.5" y="1035.5137">1.1.3.2 Implement logic for deleting nodes from graph</text><line style="stroke:#181818;stroke-width:1.5;" x1="384.5" x2="394.5" y1="1080.3281" y2="1080.3281"/><rect fill="#F1F1F1" height="33.9688" style="stroke:#181818;stroke-width:1.5;" width="223" x="394.5" y="1063.3438"/><text fill="#000000" font-family="sans-serif" font-size="12" lengthAdjust="spacing" textLength="203" x="404.5" y="1084.4824">"graphEditing.js: removeObject()"</text><line style="stroke:#181818;stroke-width:1.5;" x1="384.5" x2="394.5" y1="1129.2969" y2="1129.2969"/><rect fill="#F1F1F1" height="33.9688" style="stroke:#181818;stroke-width:1.5;" width="54" x="394.5" y="1112.3125"/><text fill="#000000" font-family="sans-serif" font-size="12" lengthAdjust="spacing" textLength="34" x="404.5" y="1133.4512">DONE</text><line style="stroke:#181818;stroke-width:1.5;" x1="384.5" x2="384.5" y1="1048.3438" y2="1129.2969"/><line style="stroke:#181818;stroke-width:1.5;" x1="201.5" x2="201.5" y1="852.4688" y2="1031.3594"/><line style="stroke:#181818;stroke-width:1.5;" x1="70.5" x2="80.5" y1="1178.2656" y2="1178.2656"/><rect fill="#F1F1F1" height="33.9688" style="stroke:#181818;stroke-width:1.5;" width="225" x="80.5" y="1161.2813"/><text fill="#000000" font-family="sans-serif" font-size="12" lengthAdjust="spacing" textLength="205" x="90.5" y="1182.4199">1.1.4 Implement Add Edge feature</text><line style="stroke:#181818;stroke-width:1.5;" x1="193" x2="203" y1="1227.2344" y2="1227.2344"/><rect fill="#F1F1F1" height="33.9688" style="stroke:#181818;stroke-width:1.5;" width="310" x="203" y="1210.25"/><text fill="#000000" font-family="sans-serif" font-size="12" lengthAdjust="spacing" textLength="290" x="213" y="1231.3887">1.1.4.1 Develop user interface for adding edges</text><line style="stroke:#181818;stroke-width:1.5;" x1="358" x2="368" y1="1276.2031" y2="1276.2031"/><rect fill="#F1F1F1" height="33.9688" style="stroke:#181818;stroke-width:1.5;" width="300" x="368" y="1259.2188"/><text fill="#000000" font-family="sans-serif" font-size="12" lengthAdjust="spacing" textLength="280" x="378" y="1280.3574">"graphUI.js: OperationsUIObjectsFormSetup()"</text><line style="stroke:#181818;stroke-width:1.5;" x1="358" x2="368" y1="1325.1719" y2="1325.1719"/><rect fill="#F1F1F1" height="33.9688" style="stroke:#181818;stroke-width:1.5;" width="54" x="368" y="1308.1875"/><text fill="#000000" font-family="sans-serif" font-size="12" lengthAdjust="spacing" textLength="34" x="378" y="1329.3262">DONE</text><line style="stroke:#181818;stroke-width:1.5;" x1="358" x2="358" y1="1244.2188" y2="1325.1719"/><line style="stroke:#181818;stroke-width:1.5;" x1="193" x2="203" y1="1374.1406" y2="1374.1406"/><rect fill="#F1F1F1" height="33.9688" style="stroke:#181818;stroke-width:1.5;" width="323" x="203" y="1357.1563"/><text fill="#000000" font-family="sans-serif" font-size="12" lengthAdjust="spacing" textLength="303" x="213" y="1378.2949">1.1.4.2 Implement logic for adding edges to graph</text><line style="stroke:#181818;stroke-width:1.5;" x1="364.5" x2="374.5" y1="1423.1094" y2="1423.1094"/><rect fill="#F1F1F1" height="33.9688" style="stroke:#181818;stroke-width:1.5;" width="285" x="374.5" y="1406.125"/><text fill="#000000" font-family="sans-serif" font-size="12" lengthAdjust="spacing" textLength="265" x="384.5" y="1427.2637">"graphOperations.js: addObjectOrUpdate()"</text><line style="stroke:#181818;stroke-width:1.5;" x1="364.5" x2="374.5" y1="1472.0781" y2="1472.0781"/><rect fill="#F1F1F1" height="33.9688" style="stroke:#181818;stroke-width:1.5;" width="54" x="374.5" y="1455.0938"/><text fill="#000000" font-family="sans-serif" font-size="12" lengthAdjust="spacing" textLength="34" x="384.5" y="1476.2324">DONE</text><line style="stroke:#181818;stroke-width:1.5;" x1="364.5" x2="364.5" y1="1391.125" y2="1472.0781"/><line style="stroke:#181818;stroke-width:1.5;" x1="193" x2="193" y1="1195.25" y2="1374.1406"/><line style="stroke:#181818;stroke-width:1.5;" x1="70.5" x2="70.5" y1="117.9375" y2="1178.2656"/><line style="stroke:#181818;stroke-width:1.5;" x1="810" x2="810" y1="63.9688" y2="83.9688"/><rect fill="#F1F1F1" height="33.9688" style="stroke:#181818;stroke-width:1.5;" width="104" x="758" y="83.9688"/><text fill="#000000" font-family="sans-serif" font-size="12" lengthAdjust="spacing" textLength="84" x="768" y="105.1074">1.2 Edit Graph</text><line style="stroke:#181818;stroke-width:1.5;" x1="810" x2="820" y1="149.9219" y2="149.9219"/><rect fill="#F1F1F1" height="33.9688" style="stroke:#181818;stroke-width:1.5;" width="224" x="820" y="132.9375"/><text fill="#000000" font-family="sans-serif" font-size="12" lengthAdjust="spacing" textLength="204" x="830" y="154.0762">1.2.1 Implement Edit Node feature</text><line style="stroke:#181818;stroke-width:1.5;" x1="932" x2="942" y1="198.8906" y2="198.8906"/><rect fill="#F1F1F1" height="33.9688" style="stroke:#181818;stroke-width:1.5;" width="309" x="942" y="181.9063"/><text fill="#000000" font-family="sans-serif" font-size="12" lengthAdjust="spacing" textLength="289" x="952" y="203.0449">1.2.1.1 Develop user interface for editing nodes</text><line style="stroke:#181818;stroke-width:1.5;" x1="1096.5" x2="1106.5" y1="247.8594" y2="247.8594"/><rect fill="#F1F1F1" height="33.9688" style="stroke:#181818;stroke-width:1.5;" width="371" x="1106.5" y="230.875"/><text fill="#000000" font-family="sans-serif" font-size="12" lengthAdjust="spacing" textLength="351" x="1116.5" y="252.0137">"graphUI.js: OperationsUIObjectsFormSetup, editObject()"</text><line style="stroke:#181818;stroke-width:1.5;" x1="1096.5" x2="1106.5" y1="296.8281" y2="296.8281"/><rect fill="#F1F1F1" height="33.9688" style="stroke:#181818;stroke-width:1.5;" width="54" x="1106.5" y="279.8438"/><text fill="#000000" font-family="sans-serif" font-size="12" lengthAdjust="spacing" textLength="34" x="1116.5" y="300.9824">DONE</text><line style="stroke:#181818;stroke-width:1.5;" x1="1096.5" x2="1096.5" y1="215.875" y2="296.8281"/><line style="stroke:#181818;stroke-width:1.5;" x1="932" x2="942" y1="345.7969" y2="345.7969"/><rect fill="#F1F1F1" height="33.9688" style="stroke:#181818;stroke-width:1.5;" width="320" x="942" y="328.8125"/><text fill="#000000" font-family="sans-serif" font-size="12" lengthAdjust="spacing" textLength="300" x="952" y="349.9512">1.2.1.2 Implement logic for editing nodes in graph</text><line style="stroke:#181818;stroke-width:1.5;" x1="1102" x2="1112" y1="394.7656" y2="394.7656"/><rect fill="#F1F1F1" height="33.9688" style="stroke:#181818;stroke-width:1.5;" width="199" x="1112" y="377.7813"/><text fill="#000000" font-family="sans-serif" font-size="12" lengthAdjust="spacing" textLength="179" x="1122" y="398.9199">"graphEditing.js: editObject()"</text><line style="stroke:#181818;stroke-width:1.5;" x1="1102" x2="1112" y1="443.7344" y2="443.7344"/><rect fill="#F1F1F1" height="33.9688" style="stroke:#181818;stroke-width:1.5;" width="54" x="1112" y="426.75"/><text fill="#000000" font-family="sans-serif" font-size="12" lengthAdjust="spacing" textLength="34" x="1122" y="447.8887">DONE</text><line style="stroke:#181818;stroke-width:1.5;" x1="1102" x2="1102" y1="362.7813" y2="443.7344"/><line style="stroke:#181818;stroke-width:1.5;" x1="932" x2="932" y1="166.9063" y2="345.7969"/><line style="stroke:#181818;stroke-width:1.5;" x1="810" x2="820" y1="492.7031" y2="492.7031"/><rect fill="#F1F1F1" height="33.9688" style="stroke:#181818;stroke-width:1.5;" width="243" x="820" y="475.7188"/><text fill="#000000" font-family="sans-serif" font-size="12" lengthAdjust="spacing" textLength="223" x="830" y="496.8574">1.2.2 Implement Delete Node feature</text><line style="stroke:#181818;stroke-width:1.5;" x1="941.5" x2="951.5" y1="541.6719" y2="541.6719"/><rect fill="#F1F1F1" height="33.9688" style="stroke:#181818;stroke-width:1.5;" width="318" x="951.5" y="524.6875"/><text fill="#000000" font-family="sans-serif" font-size="12" lengthAdjust="spacing" textLength="298" x="961.5" y="545.8262">1.2.2.1 Develop user interface for deleting nodes</text><line style="stroke:#181818;stroke-width:1.5;" x1="1110.5" x2="1120.5" y1="590.6406" y2="590.6406"/><rect fill="#F1F1F1" height="33.9688" style="stroke:#181818;stroke-width:1.5;" width="183" x="1120.5" y="573.6563"/><text fill="#000000" font-family="sans-serif" font-size="12" lengthAdjust="spacing" textLength="163" x="1130.5" y="594.7949">"graphUI.js: updateTable()"</text><line style="stroke:#181818;stroke-width:1.5;" x1="1110.5" x2="1120.5" y1="639.6094" y2="639.6094"/><rect fill="#F1F1F1" height="33.9688" style="stroke:#181818;stroke-width:1.5;" width="54" x="1120.5" y="622.625"/><text fill="#000000" font-family="sans-serif" font-size="12" lengthAdjust="spacing" textLength="34" x="1130.5" y="643.7637">DONE</text><line style="stroke:#181818;stroke-width:1.5;" x1="1110.5" x2="1110.5" y1="558.6563" y2="639.6094"/><line style="stroke:#181818;stroke-width:1.5;" x1="941.5" x2="951.5" y1="688.5781" y2="688.5781"/><rect fill="#F1F1F1" height="33.9688" style="stroke:#181818;stroke-width:1.5;" width="512" x="951.5" y="671.5938"/><text fill="#000000" font-family="sans-serif" font-size="12" lengthAdjust="spacing" textLength="492" x="961.5" y="692.7324">1.2.2.2 Implement logic for deleting nodes from graph, and handle dependencies</text><line style="stroke:#181818;stroke-width:1.5;" x1="1207.5" x2="1217.5" y1="737.5469" y2="737.5469"/><rect fill="#F1F1F1" height="33.9688" style="stroke:#181818;stroke-width:1.5;" width="223" x="1217.5" y="720.5625"/><text fill="#000000" font-family="sans-serif" font-size="12" lengthAdjust="spacing" textLength="203" x="1227.5" y="741.7012">"graphEditing.js: removeObject()"</text><line style="stroke:#181818;stroke-width:1.5;" x1="1207.5" x2="1217.5" y1="786.5156" y2="786.5156"/><rect fill="#F1F1F1" height="33.9688" style="stroke:#181818;stroke-width:1.5;" width="54" x="1217.5" y="769.5313"/><text fill="#000000" font-family="sans-serif" font-size="12" lengthAdjust="spacing" textLength="34" x="1227.5" y="790.6699">DONE</text><line style="stroke:#181818;stroke-width:1.5;" x1="1207.5" x2="1207.5" y1="705.5625" y2="786.5156"/><line style="stroke:#181818;stroke-width:1.5;" x1="941.5" x2="941.5" y1="509.6875" y2="688.5781"/><line style="stroke:#181818;stroke-width:1.5;" x1="810" x2="820" y1="835.4844" y2="835.4844"/><rect fill="#F1F1F1" height="33.9688" style="stroke:#181818;stroke-width:1.5;" width="224" x="820" y="818.5"/><text fill="#000000" font-family="sans-serif" font-size="12" lengthAdjust="spacing" textLength="204" x="830" y="839.6387">1.2.3 Implement Edit Edge feature</text><line style="stroke:#181818;stroke-width:1.5;" x1="932" x2="942" y1="884.4531" y2="884.4531"/><rect fill="#F1F1F1" height="33.9688" style="stroke:#181818;stroke-width:1.5;" width="311" x="942" y="867.4688"/><text fill="#000000" font-family="sans-serif" font-size="12" lengthAdjust="spacing" textLength="291" x="952" y="888.6074">1.2.3.1 Develop user interface for editing edges</text><line style="stroke:#181818;stroke-width:1.5;" x1="1097.5" x2="1107.5" y1="933.4219" y2="933.4219"/><rect fill="#F1F1F1" height="33.9688" style="stroke:#181818;stroke-width:1.5;" width="371" x="1107.5" y="916.4375"/><text fill="#000000" font-family="sans-serif" font-size="12" lengthAdjust="spacing" textLength="351" x="1117.5" y="937.5762">"graphUI.js: OperationsUIObjectsFormSetup, editObject()"</text><line style="stroke:#181818;stroke-width:1.5;" x1="1097.5" x2="1107.5" y1="982.3906" y2="982.3906"/><rect fill="#F1F1F1" height="33.9688" style="stroke:#181818;stroke-width:1.5;" width="54" x="1107.5" y="965.4063"/><text fill="#000000" font-family="sans-serif" font-size="12" lengthAdjust="spacing" textLength="34" x="1117.5" y="986.5449">DONE</text><line style="stroke:#181818;stroke-width:1.5;" x1="1097.5" x2="1097.5" y1="901.4375" y2="982.3906"/><line style="stroke:#181818;stroke-width:1.5;" x1="932" x2="942" y1="1031.3594" y2="1031.3594"/><rect fill="#F1F1F1" height="33.9688" style="stroke:#181818;stroke-width:1.5;" width="322" x="942" y="1014.375"/><text fill="#000000" font-family="sans-serif" font-size="12" lengthAdjust="spacing" textLength="302" x="952" y="1035.5137">1.2.3.2 Implement logic for editing edges in graph</text><line style="stroke:#181818;stroke-width:1.5;" x1="1103" x2="1113" y1="1080.3281" y2="1080.3281"/><rect fill="#F1F1F1" height="33.9688" style="stroke:#181818;stroke-width:1.5;" width="199" x="1113" y="1063.3438"/><text fill="#000000" font-family="sans-serif" font-size="12" lengthAdjust="spacing" textLength="179" x="1123" y="1084.4824">"graphEditing.js: editObject()"</text><line style="stroke:#181818;stroke-width:1.5;" x1="1103" x2="1113" y1="1129.2969" y2="1129.2969"/><rect fill="#F1F1F1" height="33.9688" style="stroke:#181818;stroke-width:1.5;" width="54" x="1113" y="1112.3125"/><text fill="#000000" font-family="sans-serif" font-size="12" lengthAdjust="spacing" textLength="34" x="1123" y="1133.4512">DONE</text><line style="stroke:#181818;stroke-width:1.5;" x1="1103" x2="1103" y1="1048.3438" y2="1129.2969"/><line style="stroke:#181818;stroke-width:1.5;" x1="932" x2="932" y1="852.4688" y2="1031.3594"/><line style="stroke:#181818;stroke-width:1.5;" x1="810" x2="820" y1="1178.2656" y2="1178.2656"/><rect fill="#F1F1F1" height="33.9688" style="stroke:#181818;stroke-width:1.5;" width="242" x="820" y="1161.2813"/><text fill="#000000" font-family="sans-serif" font-size="12" lengthAdjust="spacing" textLength="222" x="830" y="1182.4199">1.2.4 Implement Delete Edge feature</text><line style="stroke:#181818;stroke-width:1.5;" x1="941" x2="951" y1="1227.2344" y2="1227.2344"/><rect fill="#F1F1F1" height="33.9688" style="stroke:#181818;stroke-width:1.5;" width="319" x="951" y="1210.25"/><text fill="#000000" font-family="sans-serif" font-size="12" lengthAdjust="spacing" textLength="299" x="961" y="1231.3887">1.2.4.1 Develop user interface for deleting edges</text><line style="stroke:#181818;stroke-width:1.5;" x1="1110.5" x2="1120.5" y1="1276.2031" y2="1276.2031"/><rect fill="#F1F1F1" height="33.9688" style="stroke:#181818;stroke-width:1.5;" width="183" x="1120.5" y="1259.2188"/><text fill="#000000" font-family="sans-serif" font-size="12" lengthAdjust="spacing" textLength="163" x="1130.5" y="1280.3574">"graphUI.js: updateTable()"</text><line style="stroke:#181818;stroke-width:1.5;" x1="1110.5" x2="1120.5" y1="1325.1719" y2="1325.1719"/><rect fill="#F1F1F1" height="33.9688" style="stroke:#181818;stroke-width:1.5;" width="54" x="1120.5" y="1308.1875"/><text fill="#000000" font-family="sans-serif" font-size="12" lengthAdjust="spacing" textLength="34" x="1130.5" y="1329.3262">DONE</text><line style="stroke:#181818;stroke-width:1.5;" x1="1110.5" x2="1110.5" y1="1244.2188" y2="1325.1719"/><line style="stroke:#181818;stroke-width:1.5;" x1="941" x2="951" y1="1374.1406" y2="1374.1406"/><rect fill="#F1F1F1" height="33.9688" style="stroke:#181818;stroke-width:1.5;" width="348" x="951" y="1357.1563"/><text fill="#000000" font-family="sans-serif" font-size="12" lengthAdjust="spacing" textLength="328" x="961" y="1378.2949">1.2.4.2 Implement logic for deleting edges from graph</text><line style="stroke:#181818;stroke-width:1.5;" x1="1125" x2="1135" y1="1423.1094" y2="1423.1094"/><rect fill="#F1F1F1" height="33.9688" style="stroke:#181818;stroke-width:1.5;" width="223" x="1135" y="1406.125"/><text fill="#000000" font-family="sans-serif" font-size="12" lengthAdjust="spacing" textLength="203" x="1145" y="1427.2637">"graphEditing.js: removeObject()"</text><line style="stroke:#181818;stroke-width:1.5;" x1="1125" x2="1135" y1="1472.0781" y2="1472.0781"/><rect fill="#F1F1F1" height="33.9688" style="stroke:#181818;stroke-width:1.5;" width="54" x="1135" y="1455.0938"/><text fill="#000000" font-family="sans-serif" font-size="12" lengthAdjust="spacing" textLength="34" x="1145" y="1476.2324">DONE</text><line style="stroke:#181818;stroke-width:1.5;" x1="1125" x2="1125" y1="1391.125" y2="1472.0781"/><line style="stroke:#181818;stroke-width:1.5;" x1="941" x2="941" y1="1195.25" y2="1374.1406"/><line style="stroke:#181818;stroke-width:1.5;" x1="810" x2="810" y1="117.9375" y2="1178.2656"/><line style="stroke:#181818;stroke-width:1.5;" x1="1538.5" x2="1538.5" y1="63.9688" y2="83.9688"/><rect fill="#F1F1F1" height="33.9688" style="stroke:#181818;stroke-width:1.5;" width="80" x="1498.5" y="83.9688"/><text fill="#000000" font-family="sans-serif" font-size="12" lengthAdjust="spacing" textLength="60" x="1508.5" y="105.1074">1.3 File IO</text><line style="stroke:#181818;stroke-width:1.5;" x1="1538.5" x2="1548.5" y1="149.9219" y2="149.9219"/><rect fill="#F1F1F1" height="33.9688" style="stroke:#181818;stroke-width:1.5;" width="261" x="1548.5" y="132.9375"/><text fill="#000000" font-family="sans-serif" font-size="12" lengthAdjust="spacing" textLength="241" x="1558.5" y="154.0762">1.3.1 Implement Export GraphML feature</text><line style="stroke:#181818;stroke-width:1.5;" x1="1679" x2="1689" y1="198.8906" y2="198.8906"/><rect fill="#F1F1F1" height="33.9688" style="stroke:#181818;stroke-width:1.5;" width="172" x="1689" y="181.9063"/><text fill="#000000" font-family="sans-serif" font-size="12" lengthAdjust="spacing" textLength="152" x="1699" y="203.0449">Not in the current JS files.</text><line style="stroke:#181818;stroke-width:1.5;" x1="1679" x2="1689" y1="247.8594" y2="247.8594"/><rect fill="#F1F1F1" height="33.9688" style="stroke:#181818;stroke-width:1.5;" width="209" x="1689" y="230.875"/><text fill="#000000" font-family="sans-serif" font-size="12" lengthAdjust="spacing" textLength="189" x="1699" y="252.0137">MIGRATE FROM THIS TASK AREA</text><line style="stroke:#181818;stroke-width:1.5;" x1="1679" x2="1679" y1="166.9063" y2="247.8594"/><line style="stroke:#181818;stroke-width:1.5;" x1="1538.5" x2="1548.5" y1="296.8281" y2="296.8281"/><rect fill="#F1F1F1" height="33.9688" style="stroke:#181818;stroke-width:1.5;" width="334" x="1548.5" y="279.8438"/><text fill="#000000" font-family="sans-serif" font-size="12" lengthAdjust="spacing" textLength="314" x="1558.5" y="300.9824">1.3.2 Implement Import GraphML feature (OPTIONAL)</text><line style="stroke:#181818;stroke-width:1.5;" x1="1715.5" x2="1725.5" y1="345.7969" y2="345.7969"/><rect fill="#F1F1F1" height="33.9688" style="stroke:#181818;stroke-width:1.5;" width="172" x="1725.5" y="328.8125"/><text fill="#000000" font-family="sans-serif" font-size="12" lengthAdjust="spacing" textLength="152" x="1735.5" y="349.9512">Not in the current JS files.</text><line style="stroke:#181818;stroke-width:1.5;" x1="1715.5" x2="1725.5" y1="394.7656" y2="394.7656"/><rect fill="#F1F1F1" height="33.9688" style="stroke:#181818;stroke-width:1.5;" width="209" x="1725.5" y="377.7813"/><text fill="#000000" font-family="sans-serif" font-size="12" lengthAdjust="spacing" textLength="189" x="1735.5" y="398.9199">MIGRATE FROM THIS TASK AREA</text><line style="stroke:#181818;stroke-width:1.5;" x1="1715.5" x2="1715.5" y1="313.8125" y2="394.7656"/><line style="stroke:#181818;stroke-width:1.5;" x1="1538.5" x2="1548.5" y1="443.7344" y2="443.7344"/><rect fill="#F1F1F1" height="33.9688" style="stroke:#181818;stroke-width:1.5;" width="240" x="1548.5" y="426.75"/><text fill="#000000" font-family="sans-serif" font-size="12" lengthAdjust="spacing" textLength="220" x="1558.5" y="447.8887">1.3.3 Implement Export JSON feature</text><line style="stroke:#181818;stroke-width:1.5;" x1="1668.5" x2="1678.5" y1="492.7031" y2="492.7031"/><rect fill="#F1F1F1" height="33.9688" style="stroke:#181818;stroke-width:1.5;" width="404" x="1678.5" y="475.7188"/><text fill="#000000" font-family="sans-serif" font-size="12" lengthAdjust="spacing" textLength="384" x="1688.5" y="496.8574">1.3.3.1 Implement logic for exporting graph data to JSON format</text><line style="stroke:#181818;stroke-width:1.5;" x1="1880.5" x2="1890.5" y1="541.6719" y2="541.6719"/><rect fill="#F1F1F1" height="33.9688" style="stroke:#181818;stroke-width:1.5;" width="111" x="1890.5" y="524.6875"/><text fill="#000000" font-family="sans-serif" font-size="12" lengthAdjust="spacing" textLength="91" x="1900.5" y="545.8262">"Export Button"</text><line style="stroke:#181818;stroke-width:1.5;" x1="1880.5" x2="1890.5" y1="590.6406" y2="590.6406"/><rect fill="#F1F1F1" height="33.9688" style="stroke:#181818;stroke-width:1.5;" width="54" x="1890.5" y="573.6563"/><text fill="#000000" font-family="sans-serif" font-size="12" lengthAdjust="spacing" textLength="34" x="1900.5" y="594.7949">DONE</text><line style="stroke:#181818;stroke-width:1.5;" x1="1880.5" x2="1890.5" y1="639.6094" y2="639.6094"/><rect fill="#F1F1F1" height="33.9688" style="stroke:#181818;stroke-width:1.5;" width="231" x="1890.5" y="622.625"/><text fill="#000000" font-family="sans-serif" font-size="12" lengthAdjust="spacing" textLength="211" x="1900.5" y="643.7637">"graphUI.js: exportGraphObjects()"</text><line style="stroke:#181818;stroke-width:1.5;" x1="1880.5" x2="1890.5" y1="688.5781" y2="688.5781"/><rect fill="#F1F1F1" height="33.9688" style="stroke:#181818;stroke-width:1.5;" width="160" x="1890.5" y="671.5938"/><text fill="#000000" font-family="sans-serif" font-size="12" lengthAdjust="spacing" textLength="140" x="1900.5" y="692.7324">TO DO - Migrate to SJFI</text><line style="stroke:#181818;stroke-width:1.5;" x1="1880.5" x2="1880.5" y1="509.6875" y2="688.5781"/><line style="stroke:#181818;stroke-width:1.5;" x1="1668.5" x2="1668.5" y1="460.7188" y2="492.7031"/><line style="stroke:#181818;stroke-width:1.5;" x1="1538.5" x2="1548.5" y1="737.5469" y2="737.5469"/><rect fill="#F1F1F1" height="33.9688" style="stroke:#181818;stroke-width:1.5;" width="240" x="1548.5" y="720.5625"/><text fill="#000000" font-family="sans-serif" font-size="12" lengthAdjust="spacing" textLength="220" x="1558.5" y="741.7012">1.3.4 Implement Import JSON feature</text><line style="stroke:#181818;stroke-width:1.5;" x1="1668.5" x2="1678.5" y1="786.5156" y2="786.5156"/><rect fill="#F1F1F1" height="33.9688" style="stroke:#181818;stroke-width:1.5;" width="371" x="1678.5" y="769.5313"/><text fill="#000000" font-family="sans-serif" font-size="12" lengthAdjust="spacing" textLength="351" x="1688.5" y="790.6699">1.3.4.1 Implement logic for importing JSON data for editing</text><line style="stroke:#181818;stroke-width:1.5;" x1="1864" x2="1874" y1="835.4844" y2="835.4844"/><rect fill="#F1F1F1" height="33.9688" style="stroke:#181818;stroke-width:1.5;" width="111" x="1874" y="818.5"/><text fill="#000000" font-family="sans-serif" font-size="12" lengthAdjust="spacing" textLength="91" x="1884" y="839.6387">"Import Button"</text><line style="stroke:#181818;stroke-width:1.5;" x1="1864" x2="1874" y1="884.4531" y2="884.4531"/><rect fill="#F1F1F1" height="33.9688" style="stroke:#181818;stroke-width:1.5;" width="54" x="1874" y="867.4688"/><text fill="#000000" font-family="sans-serif" font-size="12" lengthAdjust="spacing" textLength="34" x="1884" y="888.6074">DONE</text><line style="stroke:#181818;stroke-width:1.5;" x1="1864" x2="1874" y1="933.4219" y2="933.4219"/><rect fill="#F1F1F1" height="33.9688" style="stroke:#181818;stroke-width:1.5;" width="230" x="1874" y="916.4375"/><text fill="#000000" font-family="sans-serif" font-size="12" lengthAdjust="spacing" textLength="210" x="1884" y="937.5762">"graphUI.js: importGraphObjects()"</text><line style="stroke:#181818;stroke-width:1.5;" x1="1864" x2="1874" y1="982.3906" y2="982.3906"/><rect fill="#F1F1F1" height="33.9688" style="stroke:#181818;stroke-width:1.5;" width="407" x="1874" y="965.4063"/><text fill="#000000" font-family="sans-serif" font-size="12" lengthAdjust="spacing" textLength="387" x="1884" y="986.5449">TO DO - Migrate to SJFI++ 1.4 Local Storage (IMPORTED Library)</text><line style="stroke:#181818;stroke-width:1.5;" x1="1864" x2="1864" y1="803.5" y2="982.3906"/><line style="stroke:#181818;stroke-width:1.5;" x1="1668.5" x2="1668.5" y1="754.5313" y2="786.5156"/><line style="stroke:#181818;stroke-width:1.5;" x1="1538.5" x2="1538.5" y1="117.9375" y2="737.5469"/><line style="stroke:#181818;stroke-width:1.5;" x1="2422.5" x2="2422.5" y1="63.9688" y2="83.9688"/><rect fill="#F1F1F1" height="33.9688" style="stroke:#181818;stroke-width:1.5;" width="243" x="2301" y="83.9688"/><text fill="#000000" font-family="sans-serif" font-size="12" lengthAdjust="spacing" textLength="223" x="2311" y="105.1074">1.4 Local Storage (IMPORTED Library)</text><line style="stroke:#181818;stroke-width:1.5;" x1="2422.5" x2="2432.5" y1="149.9219" y2="149.9219"/><rect fill="#F1F1F1" height="33.9688" style="stroke:#181818;stroke-width:1.5;" width="236" x="2432.5" y="132.9375"/><text fill="#000000" font-family="sans-serif" font-size="12" lengthAdjust="spacing" textLength="216" x="2442.5" y="154.0762">1.4.1 Implement Save Graph feature</text><line style="stroke:#181818;stroke-width:1.5;" x1="2550.5" x2="2560.5" y1="198.8906" y2="198.8906"/><rect fill="#F1F1F1" height="33.9688" style="stroke:#181818;stroke-width:1.5;" width="260" x="2560.5" y="181.9063"/><text fill="#000000" font-family="sans-serif" font-size="12" lengthAdjust="spacing" textLength="240" x="2570.5" y="203.0449">"SJFI/lib-localstorage.js: saveFunction()"</text><line style="stroke:#181818;stroke-width:1.5;" x1="2550.5" x2="2560.5" y1="247.8594" y2="247.8594"/><rect fill="#F1F1F1" height="33.9688" style="stroke:#181818;stroke-width:1.5;" width="54" x="2560.5" y="230.875"/><text fill="#000000" font-family="sans-serif" font-size="12" lengthAdjust="spacing" textLength="34" x="2570.5" y="252.0137">DONE</text><line style="stroke:#181818;stroke-width:1.5;" x1="2550.5" x2="2550.5" y1="166.9063" y2="247.8594"/><line style="stroke:#181818;stroke-width:1.5;" x1="2422.5" x2="2432.5" y1="296.8281" y2="296.8281"/><rect fill="#F1F1F1" height="33.9688" style="stroke:#181818;stroke-width:1.5;" width="236" x="2432.5" y="279.8438"/><text fill="#000000" font-family="sans-serif" font-size="12" lengthAdjust="spacing" textLength="216" x="2442.5" y="300.9824">1.4.2 Implement Load Graph feature</text><line style="stroke:#181818;stroke-width:1.5;" x1="2550.5" x2="2560.5" y1="345.7969" y2="345.7969"/><rect fill="#F1F1F1" height="33.9688" style="stroke:#181818;stroke-width:1.5;" width="290" x="2560.5" y="328.8125"/><text fill="#000000" font-family="sans-serif" font-size="12" lengthAdjust="spacing" textLength="270" x="2570.5" y="349.9512">"SJFI/lib-localstorage.js: loadGraphObjects()"</text><line style="stroke:#181818;stroke-width:1.5;" x1="2550.5" x2="2560.5" y1="394.7656" y2="394.7656"/><rect fill="#F1F1F1" height="33.9688" style="stroke:#181818;stroke-width:1.5;" width="54" x="2560.5" y="377.7813"/><text fill="#000000" font-family="sans-serif" font-size="12" lengthAdjust="spacing" textLength="34" x="2570.5" y="398.9199">DONE</text><line style="stroke:#181818;stroke-width:1.5;" x1="2550.5" x2="2550.5" y1="313.8125" y2="394.7656"/><line style="stroke:#181818;stroke-width:1.5;" x1="2422.5" x2="2432.5" y1="443.7344" y2="443.7344"/><rect fill="#F1F1F1" height="33.9688" style="stroke:#181818;stroke-width:1.5;" width="241" x="2432.5" y="426.75"/><text fill="#000000" font-family="sans-serif" font-size="12" lengthAdjust="spacing" textLength="221" x="2442.5" y="447.8887">1.4.3 Implement Reset Graph feature</text><line style="stroke:#181818;stroke-width:1.5;" x1="2553" x2="2563" y1="492.7031" y2="492.7031"/><rect fill="#F1F1F1" height="33.9688" style="stroke:#181818;stroke-width:1.5;" width="292" x="2563" y="475.7188"/><text fill="#000000" font-family="sans-serif" font-size="12" lengthAdjust="spacing" textLength="272" x="2573" y="496.8574">"SJFI/lib-localstorage.js: resetLocalStorage()"</text><line style="stroke:#181818;stroke-width:1.5;" x1="2553" x2="2563" y1="541.6719" y2="541.6719"/><rect fill="#F1F1F1" height="33.9688" style="stroke:#181818;stroke-width:1.5;" width="54" x="2563" y="524.6875"/><text fill="#000000" font-family="sans-serif" font-size="12" lengthAdjust="spacing" textLength="34" x="2573" y="545.8262">DONE</text><line style="stroke:#181818;stroke-width:1.5;" x1="2553" x2="2553" y1="460.7188" y2="541.6719"/><line style="stroke:#181818;stroke-width:1.5;" x1="2422.5" x2="2422.5" y1="117.9375" y2="443.7344"/><line style="stroke:#181818;stroke-width:1.5;" x1="3018" x2="3018" y1="63.9688" y2="83.9688"/><rect fill="#F1F1F1" height="33.9688" style="stroke:#181818;stroke-width:1.5;" width="286" x="2875" y="83.9688"/><text fill="#000000" font-family="sans-serif" font-size="12" lengthAdjust="spacing" textLength="266" x="2885" y="105.1074">1.5 JSON IMPORT/EXPORT (IMPORTED Library)</text><line style="stroke:#181818;stroke-width:1.5;" x1="3018" x2="3028" y1="149.9219" y2="149.9219"/><rect fill="#F1F1F1" height="33.9688" style="stroke:#181818;stroke-width:1.5;" width="393" x="3028" y="132.9375"/><text fill="#000000" font-family="sans-serif" font-size="12" lengthAdjust="spacing" textLength="373" x="3038" y="154.0762">1.5.1 Implement logic for exporting graph data to JSON format</text><line style="stroke:#181818;stroke-width:1.5;" x1="3224.5" x2="3234.5" y1="198.8906" y2="198.8906"/><rect fill="#F1F1F1" height="33.9688" style="stroke:#181818;stroke-width:1.5;" width="231" x="3234.5" y="181.9063"/><text fill="#000000" font-family="sans-serif" font-size="12" lengthAdjust="spacing" textLength="211" x="3244.5" y="203.0449">"graphUI.js: exportGraphObjects()"</text><line style="stroke:#181818;stroke-width:1.5;" x1="3224.5" x2="3234.5" y1="247.8594" y2="247.8594"/><rect fill="#F1F1F1" height="33.9688" style="stroke:#181818;stroke-width:1.5;" width="363" x="3234.5" y="230.875"/><text fill="#000000" font-family="sans-serif" font-size="12" lengthAdjust="spacing" textLength="343" x="3244.5" y="252.0137">"TO DO - Migrate to SJFI -- SJFI/lib-localstorage.js: TBD()"</text><line style="stroke:#181818;stroke-width:1.5;" x1="3224.5" x2="3224.5" y1="166.9063" y2="247.8594"/><line style="stroke:#181818;stroke-width:1.5;" x1="3018" x2="3028" y1="296.8281" y2="296.8281"/><rect fill="#F1F1F1" height="33.9688" style="stroke:#181818;stroke-width:1.5;" width="240" x="3028" y="279.8438"/><text fill="#000000" font-family="sans-serif" font-size="12" lengthAdjust="spacing" textLength="220" x="3038" y="300.9824">1.5.2 Implement Import JSON feature</text><line style="stroke:#181818;stroke-width:1.5;" x1="3148" x2="3158" y1="345.7969" y2="345.7969"/><rect fill="#F1F1F1" height="33.9688" style="stroke:#181818;stroke-width:1.5;" width="230" x="3158" y="328.8125"/><text fill="#000000" font-family="sans-serif" font-size="12" lengthAdjust="spacing" textLength="210" x="3168" y="349.9512">"graphUI.js: importGraphObjects()"</text><line style="stroke:#181818;stroke-width:1.5;" x1="3148" x2="3158" y1="394.7656" y2="394.7656"/><rect fill="#F1F1F1" height="33.9688" style="stroke:#181818;stroke-width:1.5;" width="363" x="3158" y="377.7813"/><text fill="#000000" font-family="sans-serif" font-size="12" lengthAdjust="spacing" textLength="343" x="3168" y="398.9199">"TO DO - Migrate to SJFI -- SJFI/lib-localstorage.js: TBD()"</text><line style="stroke:#181818;stroke-width:1.5;" x1="3148" x2="3148" y1="313.8125" y2="394.7656"/><line style="stroke:#181818;stroke-width:1.5;" x1="3018" x2="3018" y1="117.9375" y2="296.8281"/><line style="stroke:#181818;stroke-width:1.5;" x1="70.5" x2="3018" y1="63.9688" y2="63.9688"/><rect fill="#F1F1F1" height="33.9688" style="stroke:#181818;stroke-width:1.5;" width="233" x="1427.75" y="10"/><text fill="#000000" font-family="sans-serif" font-size="12" lengthAdjust="spacing" textLength="213" x="1437.75" y="31.1387">1 SPA GraphML Editor Development</text><line style="stroke:#181818;stroke-width:1.5;" x1="1544.25" x2="1544.25" y1="43.9688" y2="63.9688"/><!--SRC=[jLVHTff047tdA-RaIKzgqY9fU_9K4p75gdW4U_gwmcfeSPUpBARv-yukc8AAaiQ-997Cp9rxT-wmVaab4V9faHgNy06yQGyU14aUnoEmmqXo0NsweJ5FrfH9un9ZhZx0lQ14qZmGd-c7-DXP9p5LST0BGvZmaC8I0pD1LL0HXN55HSXIAY1Yaeeb2J0MmKWOHcm537DJdNG95oi5CtUkVgQtu2PK41bnbiuTT_6J1Z8TSB7sgCoILlkYIEcx4xiCQPPQY_ag2lQmG79ORUcyWFv5q-2Oa6EwOfw4gC0-8kp2AH5hf32FIq4nyv-rUAVJywTrkfWrkbI0iQa3mjXvY6xZ6936wPPG-ZIcE3c71UaU5oHKkKSLoVIf-6GHqphItHhIrUAm57nzWhUWQxwXHvbREvQmmzK1sbOZIr3CFPibhEEMq5XdiWGeFsWNbDU5MLaNjIOnJ-sB_smIitPvdDSaLIiUCObvQckSmIHcxMQeDSax82o4H_mHKunAA0if2wAT1bxb7hEoD_I47BAFUMfhR0_gd_pJP4Aw9oOaDzFR9yJQdv33WbWD9wHMaGOJOfsQa9prMzSegBV78CAXSjn2Y6vrS_nEk90lLvQA5XCkbUpoaKAG2Q72XnuiiLfwbKUCdOTPpxTXC7F7u7zrFF1xtZVepUpU2rgP9_vr00rQxjHtt4blr3udS7UVvj1p9xldtTrHf3I0EaaTXXOTy529Mkfv5Hnn8hUdKjI_owJaRE_4TyOZhwj5AFpozzny5zEW0-C8Ct124SuR3fmNKjQ-ceT9MJMaelMMbCxJd4fks_PRr6v6AA_vAaAwImj6F20nU7XD9kZ4bZEUkZFVxiCeMWWYdjj6ypWTM27jaKrnnwxASw4Qk8wZHITMPTEygcQIOieWOu5QPriEvIrIjUs8a_2L036c71Ag2b8UtHbDgNmbYb0vMhD2ibqOHBd91o2Nyjh-eNxLAtlpHeyqTG1Sr0mCT3fGJzY_wnSLTAzc4vSq7E6tTVG5t-Jgkw4nZGcJSrnw6ofId2xr5dXlTgy-BQWaLclEVZ7-n23WwqIjQncjQTjeFKn7aF9CuAidZ58feaMcHhDj3Cc6m2nZAkuMrAUMFsw3PsyVWiqsaU1CV-qSVX_dGV2LIo_XKWT_j3ftU2lmgC2UuFlOwDCboMBSbYpWwXvx2tD_qFbiZ0XRPKWC3uuPznm1n3F-p_i3]--></g></svg>