<?xml version="1.0" encoding="us-ascii" standalone="no"?><svg xmlns="http://www.w3.org/2000/svg" xmlns:xlink="http://www.w3.org/1999/xlink" contentStyleType="text/css" height="1157px" preserveAspectRatio="none" style="width:1967px;height:1157px;background:#FFFFFF;" version="1.1" viewBox="0 0 1967 1157" width="1967px" zoomAndPan="magnify"><defs/><g><line style="stroke:#181818;stroke-width:1.5;" x1="70.5" x2="70.5" y1="63.9688" y2="83.9688"/><rect fill="#F1F1F1" height="33.9688" style="stroke:#181818;stroke-width:1.5;" width="121" x="10" y="83.9688"/><text fill="#000000" font-family="sans-serif" font-size="12" lengthAdjust="spacing" textLength="101" x="20" y="105.1074">1.1 Create Graph</text><line style="stroke:#181818;stroke-width:1.5;" x1="70.5" x2="80.5" y1="149.9219" y2="149.9219"/><rect fill="#F1F1F1" height="33.9688" style="stroke:#181818;stroke-width:1.5;" width="225" x="80.5" y="132.9375"/><text fill="#000000" font-family="sans-serif" font-size="12" lengthAdjust="spacing" textLength="205" x="90.5" y="154.0762">1.1.1 Implement Add Node feature</text><line style="stroke:#181818;stroke-width:1.5;" x1="193" x2="203" y1="198.8906" y2="198.8906"/><rect fill="#F1F1F1" height="33.9688" style="stroke:#181818;stroke-width:1.5;" width="308" x="203" y="181.9063"/><text fill="#000000" font-family="sans-serif" font-size="12" lengthAdjust="spacing" textLength="288" x="213" y="203.0449">1.1.1.1 Develop user interface for adding nodes</text><line style="stroke:#181818;stroke-width:1.5;" x1="193" x2="203" y1="247.8594" y2="247.8594"/><rect fill="#F1F1F1" height="33.9688" style="stroke:#181818;stroke-width:1.5;" width="321" x="203" y="230.875"/><text fill="#000000" font-family="sans-serif" font-size="12" lengthAdjust="spacing" textLength="301" x="213" y="252.0137">1.1.1.2 Implement logic for adding nodes to graph</text><line style="stroke:#181818;stroke-width:1.5;" x1="193" x2="193" y1="166.9063" y2="247.8594"/><line style="stroke:#181818;stroke-width:1.5;" x1="70.5" x2="80.5" y1="296.8281" y2="296.8281"/><rect fill="#F1F1F1" height="33.9688" style="stroke:#181818;stroke-width:1.5;" width="224" x="80.5" y="279.8438"/><text fill="#000000" font-family="sans-serif" font-size="12" lengthAdjust="spacing" textLength="204" x="90.5" y="300.9824">1.1.2 Implement Edit Node feature</text><line style="stroke:#181818;stroke-width:1.5;" x1="192.5" x2="202.5" y1="345.7969" y2="345.7969"/><rect fill="#F1F1F1" height="33.9688" style="stroke:#181818;stroke-width:1.5;" width="309" x="202.5" y="328.8125"/><text fill="#000000" font-family="sans-serif" font-size="12" lengthAdjust="spacing" textLength="289" x="212.5" y="349.9512">1.1.2.1 Develop user interface for editing nodes</text><line style="stroke:#181818;stroke-width:1.5;" x1="192.5" x2="202.5" y1="394.7656" y2="394.7656"/><rect fill="#F1F1F1" height="33.9688" style="stroke:#181818;stroke-width:1.5;" width="320" x="202.5" y="377.7813"/><text fill="#000000" font-family="sans-serif" font-size="12" lengthAdjust="spacing" textLength="300" x="212.5" y="398.9199">1.1.2.2 Implement logic for editing nodes in graph</text><line style="stroke:#181818;stroke-width:1.5;" x1="192.5" x2="192.5" y1="313.8125" y2="394.7656"/><line style="stroke:#181818;stroke-width:1.5;" x1="70.5" x2="80.5" y1="443.7344" y2="443.7344"/><rect fill="#F1F1F1" height="33.9688" style="stroke:#181818;stroke-width:1.5;" width="242" x="80.5" y="426.75"/><text fill="#000000" font-family="sans-serif" font-size="12" lengthAdjust="spacing" textLength="222" x="90.5" y="447.8887">1.1.3 Implement Delete Node feature</text><line style="stroke:#181818;stroke-width:1.5;" x1="201.5" x2="211.5" y1="492.7031" y2="492.7031"/><rect fill="#F1F1F1" height="33.9688" style="stroke:#181818;stroke-width:1.5;" width="317" x="211.5" y="475.7188"/><text fill="#000000" font-family="sans-serif" font-size="12" lengthAdjust="spacing" textLength="297" x="221.5" y="496.8574">1.1.3.1 Develop user interface for deleting nodes</text><line style="stroke:#181818;stroke-width:1.5;" x1="201.5" x2="211.5" y1="541.6719" y2="541.6719"/><rect fill="#F1F1F1" height="33.9688" style="stroke:#181818;stroke-width:1.5;" width="346" x="211.5" y="524.6875"/><text fill="#000000" font-family="sans-serif" font-size="12" lengthAdjust="spacing" textLength="326" x="221.5" y="545.8262">1.1.3.2 Implement logic for deleting nodes from graph</text><line style="stroke:#181818;stroke-width:1.5;" x1="201.5" x2="201.5" y1="460.7188" y2="541.6719"/><line style="stroke:#181818;stroke-width:1.5;" x1="70.5" x2="80.5" y1="590.6406" y2="590.6406"/><rect fill="#F1F1F1" height="33.9688" style="stroke:#181818;stroke-width:1.5;" width="225" x="80.5" y="573.6563"/><text fill="#000000" font-family="sans-serif" font-size="12" lengthAdjust="spacing" textLength="205" x="90.5" y="594.7949">1.1.4 Implement Add Edge feature</text><line style="stroke:#181818;stroke-width:1.5;" x1="193" x2="203" y1="639.6094" y2="639.6094"/><rect fill="#F1F1F1" height="33.9688" style="stroke:#181818;stroke-width:1.5;" width="310" x="203" y="622.625"/><text fill="#000000" font-family="sans-serif" font-size="12" lengthAdjust="spacing" textLength="290" x="213" y="643.7637">1.1.4.1 Develop user interface for adding edges</text><line style="stroke:#181818;stroke-width:1.5;" x1="193" x2="203" y1="688.5781" y2="688.5781"/><rect fill="#F1F1F1" height="33.9688" style="stroke:#181818;stroke-width:1.5;" width="323" x="203" y="671.5938"/><text fill="#000000" font-family="sans-serif" font-size="12" lengthAdjust="spacing" textLength="303" x="213" y="692.7324">1.1.4.2 Implement logic for adding edges to graph</text><line style="stroke:#181818;stroke-width:1.5;" x1="193" x2="193" y1="607.625" y2="688.5781"/><line style="stroke:#181818;stroke-width:1.5;" x1="70.5" x2="80.5" y1="737.5469" y2="737.5469"/><rect fill="#F1F1F1" height="33.9688" style="stroke:#181818;stroke-width:1.5;" width="392" x="80.5" y="720.5625"/><text fill="#000000" font-family="sans-serif" font-size="12" lengthAdjust="spacing" textLength="372" x="90.5" y="741.7012">1.1.5 Implement Automatic Key Creation feature (stretch goal)</text><line style="stroke:#181818;stroke-width:1.5;" x1="276.5" x2="286.5" y1="786.5156" y2="786.5156"/><rect fill="#F1F1F1" height="33.9688" style="stroke:#181818;stroke-width:1.5;" width="308" x="286.5" y="769.5313"/><text fill="#000000" font-family="sans-serif" font-size="12" lengthAdjust="spacing" textLength="288" x="296.5" y="790.6699">1.1.5.1 Develop logic for automatic key creation</text><line style="stroke:#181818;stroke-width:1.5;" x1="276.5" x2="286.5" y1="835.4844" y2="835.4844"/><rect fill="#F1F1F1" height="33.9688" style="stroke:#181818;stroke-width:1.5;" width="309" x="286.5" y="818.5"/><text fill="#000000" font-family="sans-serif" font-size="12" lengthAdjust="spacing" textLength="289" x="296.5" y="839.6387">1.1.5.2 Incorporate feedback from stakeholders</text><line style="stroke:#181818;stroke-width:1.5;" x1="276.5" x2="276.5" y1="754.5313" y2="835.4844"/><line style="stroke:#181818;stroke-width:1.5;" x1="70.5" x2="70.5" y1="117.9375" y2="737.5469"/><line style="stroke:#181818;stroke-width:1.5;" x1="667.5" x2="667.5" y1="63.9688" y2="83.9688"/><rect fill="#F1F1F1" height="33.9688" style="stroke:#181818;stroke-width:1.5;" width="104" x="615.5" y="83.9688"/><text fill="#000000" font-family="sans-serif" font-size="12" lengthAdjust="spacing" textLength="84" x="625.5" y="105.1074">1.2 Edit Graph</text><line style="stroke:#181818;stroke-width:1.5;" x1="667.5" x2="677.5" y1="149.9219" y2="149.9219"/><rect fill="#F1F1F1" height="33.9688" style="stroke:#181818;stroke-width:1.5;" width="224" x="677.5" y="132.9375"/><text fill="#000000" font-family="sans-serif" font-size="12" lengthAdjust="spacing" textLength="204" x="687.5" y="154.0762">1.2.1 Implement Edit Node feature</text><line style="stroke:#181818;stroke-width:1.5;" x1="789.5" x2="799.5" y1="198.8906" y2="198.8906"/><rect fill="#F1F1F1" height="33.9688" style="stroke:#181818;stroke-width:1.5;" width="309" x="799.5" y="181.9063"/><text fill="#000000" font-family="sans-serif" font-size="12" lengthAdjust="spacing" textLength="289" x="809.5" y="203.0449">1.2.1.1 Develop user interface for editing nodes</text><line style="stroke:#181818;stroke-width:1.5;" x1="789.5" x2="799.5" y1="247.8594" y2="247.8594"/><rect fill="#F1F1F1" height="33.9688" style="stroke:#181818;stroke-width:1.5;" width="320" x="799.5" y="230.875"/><text fill="#000000" font-family="sans-serif" font-size="12" lengthAdjust="spacing" textLength="300" x="809.5" y="252.0137">1.2.1.2 Implement logic for editing nodes in graph</text><line style="stroke:#181818;stroke-width:1.5;" x1="789.5" x2="789.5" y1="166.9063" y2="247.8594"/><line style="stroke:#181818;stroke-width:1.5;" x1="667.5" x2="677.5" y1="296.8281" y2="296.8281"/><rect fill="#F1F1F1" height="33.9688" style="stroke:#181818;stroke-width:1.5;" width="243" x="677.5" y="279.8438"/><text fill="#000000" font-family="sans-serif" font-size="12" lengthAdjust="spacing" textLength="223" x="687.5" y="300.9824">1.2.2 Implement Delete Node feature</text><line style="stroke:#181818;stroke-width:1.5;" x1="799" x2="809" y1="345.7969" y2="345.7969"/><rect fill="#F1F1F1" height="33.9688" style="stroke:#181818;stroke-width:1.5;" width="318" x="809" y="328.8125"/><text fill="#000000" font-family="sans-serif" font-size="12" lengthAdjust="spacing" textLength="298" x="819" y="349.9512">1.2.2.1 Develop user interface for deleting nodes</text><line style="stroke:#181818;stroke-width:1.5;" x1="799" x2="809" y1="394.7656" y2="394.7656"/><rect fill="#F1F1F1" height="33.9688" style="stroke:#181818;stroke-width:1.5;" width="512" x="809" y="377.7813"/><text fill="#000000" font-family="sans-serif" font-size="12" lengthAdjust="spacing" textLength="492" x="819" y="398.9199">1.2.2.2 Implement logic for deleting nodes from graph, and handle dependencies</text><line style="stroke:#181818;stroke-width:1.5;" x1="799" x2="799" y1="313.8125" y2="394.7656"/><line style="stroke:#181818;stroke-width:1.5;" x1="667.5" x2="677.5" y1="443.7344" y2="443.7344"/><rect fill="#F1F1F1" height="33.9688" style="stroke:#181818;stroke-width:1.5;" width="224" x="677.5" y="426.75"/><text fill="#000000" font-family="sans-serif" font-size="12" lengthAdjust="spacing" textLength="204" x="687.5" y="447.8887">1.2.3 Implement Edit Edge feature</text><line style="stroke:#181818;stroke-width:1.5;" x1="789.5" x2="799.5" y1="492.7031" y2="492.7031"/><rect fill="#F1F1F1" height="33.9688" style="stroke:#181818;stroke-width:1.5;" width="311" x="799.5" y="475.7188"/><text fill="#000000" font-family="sans-serif" font-size="12" lengthAdjust="spacing" textLength="291" x="809.5" y="496.8574">1.2.3.1 Develop user interface for editing edges</text><line style="stroke:#181818;stroke-width:1.5;" x1="789.5" x2="799.5" y1="541.6719" y2="541.6719"/><rect fill="#F1F1F1" height="33.9688" style="stroke:#181818;stroke-width:1.5;" width="322" x="799.5" y="524.6875"/><text fill="#000000" font-family="sans-serif" font-size="12" lengthAdjust="spacing" textLength="302" x="809.5" y="545.8262">1.2.3.2 Implement logic for editing edges in graph</text><line style="stroke:#181818;stroke-width:1.5;" x1="789.5" x2="789.5" y1="460.7188" y2="541.6719"/><line style="stroke:#181818;stroke-width:1.5;" x1="667.5" x2="677.5" y1="590.6406" y2="590.6406"/><rect fill="#F1F1F1" height="33.9688" style="stroke:#181818;stroke-width:1.5;" width="242" x="677.5" y="573.6563"/><text fill="#000000" font-family="sans-serif" font-size="12" lengthAdjust="spacing" textLength="222" x="687.5" y="594.7949">1.2.4 Implement Delete Edge feature</text><line style="stroke:#181818;stroke-width:1.5;" x1="798.5" x2="808.5" y1="639.6094" y2="639.6094"/><rect fill="#F1F1F1" height="33.9688" style="stroke:#181818;stroke-width:1.5;" width="319" x="808.5" y="622.625"/><text fill="#000000" font-family="sans-serif" font-size="12" lengthAdjust="spacing" textLength="299" x="818.5" y="643.7637">1.2.4.1 Develop user interface for deleting edges</text><line style="stroke:#181818;stroke-width:1.5;" x1="798.5" x2="808.5" y1="688.5781" y2="688.5781"/><rect fill="#F1F1F1" height="33.9688" style="stroke:#181818;stroke-width:1.5;" width="348" x="808.5" y="671.5938"/><text fill="#000000" font-family="sans-serif" font-size="12" lengthAdjust="spacing" textLength="328" x="818.5" y="692.7324">1.2.4.2 Implement logic for deleting edges from graph</text><line style="stroke:#181818;stroke-width:1.5;" x1="798.5" x2="798.5" y1="607.625" y2="688.5781"/><line style="stroke:#181818;stroke-width:1.5;" x1="667.5" x2="677.5" y1="737.5469" y2="737.5469"/><rect fill="#F1F1F1" height="33.9688" style="stroke:#181818;stroke-width:1.5;" width="255" x="677.5" y="720.5625"/><text fill="#000000" font-family="sans-serif" font-size="12" lengthAdjust="spacing" textLength="235" x="687.5" y="741.7012">1.2.5 Implement Save Progress feature</text><line style="stroke:#181818;stroke-width:1.5;" x1="805" x2="815" y1="786.5156" y2="786.5156"/><rect fill="#F1F1F1" height="33.9688" style="stroke:#181818;stroke-width:1.5;" width="372" x="815" y="769.5313"/><text fill="#000000" font-family="sans-serif" font-size="12" lengthAdjust="spacing" textLength="352" x="825" y="790.6699">1.2.5.1 Implement logic for saving progress of graph edits</text><line style="stroke:#181818;stroke-width:1.5;" x1="805" x2="815" y1="835.4844" y2="835.4844"/><rect fill="#F1F1F1" height="33.9688" style="stroke:#181818;stroke-width:1.5;" width="310" x="815" y="818.5"/><text fill="#000000" font-family="sans-serif" font-size="12" lengthAdjust="spacing" textLength="290" x="825" y="839.6387">1.2.5.2 Incorporate feedback from stakeholders</text><line style="stroke:#181818;stroke-width:1.5;" x1="805" x2="805" y1="754.5313" y2="835.4844"/><line style="stroke:#181818;stroke-width:1.5;" x1="667.5" x2="677.5" y1="884.4531" y2="884.4531"/><rect fill="#F1F1F1" height="33.9688" style="stroke:#181818;stroke-width:1.5;" width="254" x="677.5" y="867.4688"/><text fill="#000000" font-family="sans-serif" font-size="12" lengthAdjust="spacing" textLength="234" x="687.5" y="888.6074">1.2.6 Implement Load Progress feature</text><line style="stroke:#181818;stroke-width:1.5;" x1="804.5" x2="814.5" y1="933.4219" y2="933.4219"/><rect fill="#F1F1F1" height="33.9688" style="stroke:#181818;stroke-width:1.5;" width="377" x="814.5" y="916.4375"/><text fill="#000000" font-family="sans-serif" font-size="12" lengthAdjust="spacing" textLength="357" x="824.5" y="937.5762">1.2.6.1 Implement logic for loading progress of graph edits</text><line style="stroke:#181818;stroke-width:1.5;" x1="804.5" x2="814.5" y1="982.3906" y2="982.3906"/><rect fill="#F1F1F1" height="33.9688" style="stroke:#181818;stroke-width:1.5;" width="310" x="814.5" y="965.4063"/><text fill="#000000" font-family="sans-serif" font-size="12" lengthAdjust="spacing" textLength="290" x="824.5" y="986.5449">1.2.6.2 Incorporate feedback from stakeholders</text><line style="stroke:#181818;stroke-width:1.5;" x1="804.5" x2="804.5" y1="901.4375" y2="982.3906"/><line style="stroke:#181818;stroke-width:1.5;" x1="667.5" x2="677.5" y1="1031.3594" y2="1031.3594"/><rect fill="#F1F1F1" height="33.9688" style="stroke:#181818;stroke-width:1.5;" width="282" x="677.5" y="1014.375"/><text fill="#000000" font-family="sans-serif" font-size="12" lengthAdjust="spacing" textLength="262" x="687.5" y="1035.5137">1.2.7 Implement Undo/Redo Actions feature</text><line style="stroke:#181818;stroke-width:1.5;" x1="818.5" x2="828.5" y1="1080.3281" y2="1080.3281"/><rect fill="#F1F1F1" height="33.9688" style="stroke:#181818;stroke-width:1.5;" width="399" x="828.5" y="1063.3438"/><text fill="#000000" font-family="sans-serif" font-size="12" lengthAdjust="spacing" textLength="379" x="838.5" y="1084.4824">1.2.7.1 Develop user interface for undoing and redoing actions</text><line style="stroke:#181818;stroke-width:1.5;" x1="818.5" x2="828.5" y1="1129.2969" y2="1129.2969"/><rect fill="#F1F1F1" height="33.9688" style="stroke:#181818;stroke-width:1.5;" width="410" x="828.5" y="1112.3125"/><text fill="#000000" font-family="sans-serif" font-size="12" lengthAdjust="spacing" textLength="390" x="838.5" y="1133.4512">1.2.7.2 Implement logic for undoing and redoing actions in graph</text><line style="stroke:#181818;stroke-width:1.5;" x1="818.5" x2="818.5" y1="1048.3438" y2="1129.2969"/><line style="stroke:#181818;stroke-width:1.5;" x1="667.5" x2="667.5" y1="117.9375" y2="1031.3594"/><line style="stroke:#181818;stroke-width:1.5;" x1="1381" x2="1381" y1="63.9688" y2="83.9688"/><rect fill="#F1F1F1" height="33.9688" style="stroke:#181818;stroke-width:1.5;" width="80" x="1341" y="83.9688"/><text fill="#000000" font-family="sans-serif" font-size="12" lengthAdjust="spacing" textLength="60" x="1351" y="105.1074">1.3 File IO</text><line style="stroke:#181818;stroke-width:1.5;" x1="1381" x2="1391" y1="149.9219" y2="149.9219"/><rect fill="#F1F1F1" height="33.9688" style="stroke:#181818;stroke-width:1.5;" width="261" x="1391" y="132.9375"/><text fill="#000000" font-family="sans-serif" font-size="12" lengthAdjust="spacing" textLength="241" x="1401" y="154.0762">1.3.1 Implement Export GraphML feature</text><line style="stroke:#181818;stroke-width:1.5;" x1="1521.5" x2="1531.5" y1="198.8906" y2="198.8906"/><rect fill="#F1F1F1" height="33.9688" style="stroke:#181818;stroke-width:1.5;" width="425" x="1531.5" y="181.9063"/><text fill="#000000" font-family="sans-serif" font-size="12" lengthAdjust="spacing" textLength="405" x="1541.5" y="203.0449">1.3.1.1 Implement logic for exporting graph data to GraphML format</text><line style="stroke:#181818;stroke-width:1.5;" x1="1521.5" x2="1531.5" y1="247.8594" y2="247.8594"/><rect fill="#F1F1F1" height="33.9688" style="stroke:#181818;stroke-width:1.5;" width="309" x="1531.5" y="230.875"/><text fill="#000000" font-family="sans-serif" font-size="12" lengthAdjust="spacing" textLength="289" x="1541.5" y="252.0137">1.3.1.2 Incorporate feedback from stakeholders</text><line style="stroke:#181818;stroke-width:1.5;" x1="1521.5" x2="1521.5" y1="166.9063" y2="247.8594"/><line style="stroke:#181818;stroke-width:1.5;" x1="1381" x2="1391" y1="296.8281" y2="296.8281"/><rect fill="#F1F1F1" height="33.9688" style="stroke:#181818;stroke-width:1.5;" width="262" x="1391" y="279.8438"/><text fill="#000000" font-family="sans-serif" font-size="12" lengthAdjust="spacing" textLength="242" x="1401" y="300.9824">1.3.2 Implement Import GraphML feature</text><line style="stroke:#181818;stroke-width:1.5;" x1="1522" x2="1532" y1="345.7969" y2="345.7969"/><rect fill="#F1F1F1" height="33.9688" style="stroke:#181818;stroke-width:1.5;" width="393" x="1532" y="328.8125"/><text fill="#000000" font-family="sans-serif" font-size="12" lengthAdjust="spacing" textLength="373" x="1542" y="349.9512">1.3.2.1 Implement logic for importing GraphML data for editing</text><line style="stroke:#181818;stroke-width:1.5;" x1="1522" x2="1532" y1="394.7656" y2="394.7656"/><rect fill="#F1F1F1" height="33.9688" style="stroke:#181818;stroke-width:1.5;" width="310" x="1532" y="377.7813"/><text fill="#000000" font-family="sans-serif" font-size="12" lengthAdjust="spacing" textLength="290" x="1542" y="398.9199">1.3.2.2 Incorporate feedback from stakeholders</text><line style="stroke:#181818;stroke-width:1.5;" x1="1522" x2="1522" y1="313.8125" y2="394.7656"/><line style="stroke:#181818;stroke-width:1.5;" x1="1381" x2="1391" y1="443.7344" y2="443.7344"/><rect fill="#F1F1F1" height="33.9688" style="stroke:#181818;stroke-width:1.5;" width="240" x="1391" y="426.75"/><text fill="#000000" font-family="sans-serif" font-size="12" lengthAdjust="spacing" textLength="220" x="1401" y="447.8887">1.3.3 Implement Export JSON feature</text><line style="stroke:#181818;stroke-width:1.5;" x1="1511" x2="1521" y1="492.7031" y2="492.7031"/><rect fill="#F1F1F1" height="33.9688" style="stroke:#181818;stroke-width:1.5;" width="404" x="1521" y="475.7188"/><text fill="#000000" font-family="sans-serif" font-size="12" lengthAdjust="spacing" textLength="384" x="1531" y="496.8574">1.3.3.1 Implement logic for exporting graph data to JSON format</text><line style="stroke:#181818;stroke-width:1.5;" x1="1511" x2="1511" y1="460.7188" y2="492.7031"/><line style="stroke:#181818;stroke-width:1.5;" x1="1381" x2="1391" y1="541.6719" y2="541.6719"/><rect fill="#F1F1F1" height="33.9688" style="stroke:#181818;stroke-width:1.5;" width="310" x="1391" y="524.6875"/><text fill="#000000" font-family="sans-serif" font-size="12" lengthAdjust="spacing" textLength="290" x="1401" y="545.8262">1.3.3.2 Incorporate feedback from stakeholders</text><line style="stroke:#181818;stroke-width:1.5;" x1="1381" x2="1391" y1="590.6406" y2="590.6406"/><rect fill="#F1F1F1" height="33.9688" style="stroke:#181818;stroke-width:1.5;" width="240" x="1391" y="573.6563"/><text fill="#000000" font-family="sans-serif" font-size="12" lengthAdjust="spacing" textLength="220" x="1401" y="594.7949">1.3.4 Implement Import JSON feature</text><line style="stroke:#181818;stroke-width:1.5;" x1="1511" x2="1521" y1="639.6094" y2="639.6094"/><rect fill="#F1F1F1" height="33.9688" style="stroke:#181818;stroke-width:1.5;" width="371" x="1521" y="622.625"/><text fill="#000000" font-family="sans-serif" font-size="12" lengthAdjust="spacing" textLength="351" x="1531" y="643.7637">1.3.4.1 Implement logic for importing JSON data for editing</text><line style="stroke:#181818;stroke-width:1.5;" x1="1511" x2="1521" y1="688.5781" y2="688.5781"/><rect fill="#F1F1F1" height="33.9688" style="stroke:#181818;stroke-width:1.5;" width="310" x="1521" y="671.5938"/><text fill="#000000" font-family="sans-serif" font-size="12" lengthAdjust="spacing" textLength="290" x="1531" y="692.7324">1.3.4.2 Incorporate feedback from stakeholders</text><line style="stroke:#181818;stroke-width:1.5;" x1="1511" x2="1511" y1="607.625" y2="688.5781"/><line style="stroke:#181818;stroke-width:1.5;" x1="1381" x2="1381" y1="117.9375" y2="590.6406"/><line style="stroke:#181818;stroke-width:1.5;" x1="70.5" x2="1381" y1="63.9688" y2="63.9688"/><rect fill="#F1F1F1" height="33.9688" style="stroke:#181818;stroke-width:1.5;" width="233" x="609.25" y="10"/><text fill="#000000" font-family="sans-serif" font-size="12" lengthAdjust="spacing" textLength="213" x="619.25" y="31.1387">1 SPA GraphML Editor Development</text><line style="stroke:#181818;stroke-width:1.5;" x1="725.75" x2="725.75" y1="43.9688" y2="63.9688"/><!--SRC=[bPPTK-8m58Rl-olE9OoxxjeMtF5ALz7L1ML4l0_DeNGeIITDSVttUz82flG3k74md8yd9- -RS9rgflJ7B7NEu08cunjuK2nPZ8Omu96M2kvmZR5CLYYqSqOnvnTmgv1fB09fBL-avSTL4gE9WnlEuLboX3a5PWfDq2QAuZOL8KjHGIGqgZaBA9QQCSuZ4OAWtDHESgtYiGoZe18DMa9O0h9pp5uQYDns8gJC6YIt0QaKJgNsc3mhwGvZf2dMKtdjLDparc1v3LZbU9WhkTeZy_UERy336Yp_gED3oatjfDRZowEhnzUpWJ8jLqnJtb_yBEGNIR75Wqwg5UfW0Q5aSVUhSS-YjThkYYsfMB0fPcSHhWYaIgGoCfyZyXaBbiNKo2vBNCYOeqeBFxY5kcmtk2KtD8hFFMI7Ml6vZNve5LzPiItYSmzPebvyRgCd6iNt3PZWiA0_CL9KWeAZ2AAYPbxIsnzZdIpTGsxPpgMaIxVHBANmwXZzwXZhgVmZnxY7vHyQOy5LyR1Riio4hH76IeOAqxJArYifzAj9ojQcHR9DbFEYHpwKrCu_mIH5IjzgE9ICjz3r6-XYIZiAhtywtgNLSIgu_F6ANC9DO2w76iJBziFDg88XDG9NkFbSrB9hr9zqIx8jHp3loNr4tdbysMp3Aryy_sZxUlUWx-t1stkqBGFaUQPhCLpED3CNzAwGL7I1sdLEd7RPUVIf5TDjm8nMMynjQWvgMTYkSJAYLvtaq-JbkShddJZ6eifkXfiQ9_FvrH7My_a7vvVdDG_FFnxkckvmysFI6STCw2cToPgMpMDD8ldfUkVz6MhMwqp5KiWF0O5S9KR1EbfXr-ayZ8UGoaoHYtX4hteqoupikyuJMpDupOI9kmBpN-Tjr8N9OBi80x6Eb1JvxzIdzr4H17-adYHIvy5z__jlUa8cg8W9taVE7SvP5jFfqjxClN85qxVxxx-S8HDXna9gXCAvbTH0VT9ta_y0]--></g></svg>