<?xml version="1.0" encoding="us-ascii" standalone="no"?><svg xmlns="http://www.w3.org/2000/svg" xmlns:xlink="http://www.w3.org/1999/xlink" contentStyleType="text/css" height="863px" preserveAspectRatio="none" style="width:2867px;height:863px;background:#FFFFFF;" version="1.1" viewBox="0 0 2867 863" width="2867px" zoomAndPan="magnify"><defs/><g><line style="stroke:#181818;stroke-width:1.5;" x1="95.5" x2="95.5" y1="63.9688" y2="83.9688"/><rect fill="#F1F1F1" height="33.9688" style="stroke:#181818;stroke-width:1.5;" width="171" x="10" y="83.9688"/><text fill="#000000" font-family="sans-serif" font-size="12" lengthAdjust="spacing" textLength="151" x="20" y="105.1074">2.0 Important and Urgent</text><line style="stroke:#181818;stroke-width:1.5;" x1="95.5" x2="105.5" y1="149.9219" y2="149.9219"/><rect fill="#F1F1F1" height="33.9688" style="stroke:#181818;stroke-width:1.5;" width="243" x="105.5" y="132.9375"/><text fill="#000000" font-family="sans-serif" font-size="12" lengthAdjust="spacing" textLength="223" x="115.5" y="154.0762">1.2.2 Implement Delete Node feature</text><line style="stroke:#181818;stroke-width:1.5;" x1="227" x2="237" y1="198.8906" y2="198.8906"/><rect fill="#F1F1F1" height="33.9688" style="stroke:#181818;stroke-width:1.5;" width="318" x="237" y="181.9063"/><text fill="#000000" font-family="sans-serif" font-size="12" lengthAdjust="spacing" textLength="298" x="247" y="203.0449">1.2.2.1 Develop user interface for deleting nodes</text><line style="stroke:#181818;stroke-width:1.5;" x1="227" x2="237" y1="247.8594" y2="247.8594"/><rect fill="#F1F1F1" height="33.9688" style="stroke:#181818;stroke-width:1.5;" width="512" x="237" y="230.875"/><text fill="#000000" font-family="sans-serif" font-size="12" lengthAdjust="spacing" textLength="492" x="247" y="252.0137">1.2.2.2 Implement logic for deleting nodes from graph, and handle dependencies</text><line style="stroke:#181818;stroke-width:1.5;" x1="227" x2="227" y1="166.9063" y2="247.8594"/><line style="stroke:#181818;stroke-width:1.5;" x1="95.5" x2="105.5" y1="296.8281" y2="296.8281"/><rect fill="#F1F1F1" height="33.9688" style="stroke:#181818;stroke-width:1.5;" width="242" x="105.5" y="279.8438"/><text fill="#000000" font-family="sans-serif" font-size="12" lengthAdjust="spacing" textLength="222" x="115.5" y="300.9824">1.2.4 Implement Delete Edge feature</text><line style="stroke:#181818;stroke-width:1.5;" x1="226.5" x2="236.5" y1="345.7969" y2="345.7969"/><rect fill="#F1F1F1" height="33.9688" style="stroke:#181818;stroke-width:1.5;" width="319" x="236.5" y="328.8125"/><text fill="#000000" font-family="sans-serif" font-size="12" lengthAdjust="spacing" textLength="299" x="246.5" y="349.9512">1.2.4.1 Develop user interface for deleting edges</text><line style="stroke:#181818;stroke-width:1.5;" x1="226.5" x2="236.5" y1="394.7656" y2="394.7656"/><rect fill="#F1F1F1" height="33.9688" style="stroke:#181818;stroke-width:1.5;" width="348" x="236.5" y="377.7813"/><text fill="#000000" font-family="sans-serif" font-size="12" lengthAdjust="spacing" textLength="328" x="246.5" y="398.9199">1.2.4.2 Implement logic for deleting edges from graph</text><line style="stroke:#181818;stroke-width:1.5;" x1="226.5" x2="226.5" y1="313.8125" y2="394.7656"/><line style="stroke:#181818;stroke-width:1.5;" x1="95.5" x2="105.5" y1="443.7344" y2="443.7344"/><rect fill="#F1F1F1" height="33.9688" style="stroke:#181818;stroke-width:1.5;" width="255" x="105.5" y="426.75"/><text fill="#000000" font-family="sans-serif" font-size="12" lengthAdjust="spacing" textLength="235" x="115.5" y="447.8887">1.2.5 Implement Save Progress feature</text><line style="stroke:#181818;stroke-width:1.5;" x1="233" x2="243" y1="492.7031" y2="492.7031"/><rect fill="#F1F1F1" height="33.9688" style="stroke:#181818;stroke-width:1.5;" width="372" x="243" y="475.7188"/><text fill="#000000" font-family="sans-serif" font-size="12" lengthAdjust="spacing" textLength="352" x="253" y="496.8574">1.2.5.1 Implement logic for saving progress of graph edits</text><line style="stroke:#181818;stroke-width:1.5;" x1="233" x2="243" y1="541.6719" y2="541.6719"/><rect fill="#F1F1F1" height="33.9688" style="stroke:#181818;stroke-width:1.5;" width="310" x="243" y="524.6875"/><text fill="#000000" font-family="sans-serif" font-size="12" lengthAdjust="spacing" textLength="290" x="253" y="545.8262">1.2.5.2 Incorporate feedback from stakeholders</text><line style="stroke:#181818;stroke-width:1.5;" x1="233" x2="233" y1="460.7188" y2="541.6719"/><line style="stroke:#181818;stroke-width:1.5;" x1="95.5" x2="105.5" y1="590.6406" y2="590.6406"/><rect fill="#F1F1F1" height="33.9688" style="stroke:#181818;stroke-width:1.5;" width="254" x="105.5" y="573.6563"/><text fill="#000000" font-family="sans-serif" font-size="12" lengthAdjust="spacing" textLength="234" x="115.5" y="594.7949">1.2.6 Implement Load Progress feature</text><line style="stroke:#181818;stroke-width:1.5;" x1="232.5" x2="242.5" y1="639.6094" y2="639.6094"/><rect fill="#F1F1F1" height="33.9688" style="stroke:#181818;stroke-width:1.5;" width="377" x="242.5" y="622.625"/><text fill="#000000" font-family="sans-serif" font-size="12" lengthAdjust="spacing" textLength="357" x="252.5" y="643.7637">1.2.6.1 Implement logic for loading progress of graph edits</text><line style="stroke:#181818;stroke-width:1.5;" x1="232.5" x2="242.5" y1="688.5781" y2="688.5781"/><rect fill="#F1F1F1" height="33.9688" style="stroke:#181818;stroke-width:1.5;" width="310" x="242.5" y="671.5938"/><text fill="#000000" font-family="sans-serif" font-size="12" lengthAdjust="spacing" textLength="290" x="252.5" y="692.7324">1.2.6.2 Incorporate feedback from stakeholders</text><line style="stroke:#181818;stroke-width:1.5;" x1="232.5" x2="232.5" y1="607.625" y2="688.5781"/><line style="stroke:#181818;stroke-width:1.5;" x1="95.5" x2="105.5" y1="737.5469" y2="737.5469"/><rect fill="#F1F1F1" height="33.9688" style="stroke:#181818;stroke-width:1.5;" width="282" x="105.5" y="720.5625"/><text fill="#000000" font-family="sans-serif" font-size="12" lengthAdjust="spacing" textLength="262" x="115.5" y="741.7012">1.2.7 Implement Undo/Redo Actions feature</text><line style="stroke:#181818;stroke-width:1.5;" x1="246.5" x2="256.5" y1="786.5156" y2="786.5156"/><rect fill="#F1F1F1" height="33.9688" style="stroke:#181818;stroke-width:1.5;" width="399" x="256.5" y="769.5313"/><text fill="#000000" font-family="sans-serif" font-size="12" lengthAdjust="spacing" textLength="379" x="266.5" y="790.6699">1.2.7.1 Develop user interface for undoing and redoing actions</text><line style="stroke:#181818;stroke-width:1.5;" x1="246.5" x2="256.5" y1="835.4844" y2="835.4844"/><rect fill="#F1F1F1" height="33.9688" style="stroke:#181818;stroke-width:1.5;" width="410" x="256.5" y="818.5"/><text fill="#000000" font-family="sans-serif" font-size="12" lengthAdjust="spacing" textLength="390" x="266.5" y="839.6387">1.2.7.2 Implement logic for undoing and redoing actions in graph</text><line style="stroke:#181818;stroke-width:1.5;" x1="246.5" x2="246.5" y1="754.5313" y2="835.4844"/><line style="stroke:#181818;stroke-width:1.5;" x1="95.5" x2="95.5" y1="117.9375" y2="737.5469"/><line style="stroke:#181818;stroke-width:1.5;" x1="829.5" x2="829.5" y1="63.9688" y2="83.9688"/><rect fill="#F1F1F1" height="33.9688" style="stroke:#181818;stroke-width:1.5;" width="121" x="769" y="83.9688"/><text fill="#000000" font-family="sans-serif" font-size="12" lengthAdjust="spacing" textLength="101" x="779" y="105.1074">1.1 Create Graph</text><line style="stroke:#181818;stroke-width:1.5;" x1="829.5" x2="839.5" y1="149.9219" y2="149.9219"/><rect fill="#F1F1F1" height="33.9688" style="stroke:#181818;stroke-width:1.5;" width="225" x="839.5" y="132.9375"/><text fill="#000000" font-family="sans-serif" font-size="12" lengthAdjust="spacing" textLength="205" x="849.5" y="154.0762">1.1.1 Implement Add Node feature</text><line style="stroke:#181818;stroke-width:1.5;" x1="952" x2="962" y1="198.8906" y2="198.8906"/><rect fill="#F1F1F1" height="33.9688" style="stroke:#181818;stroke-width:1.5;" width="308" x="962" y="181.9063"/><text fill="#000000" font-family="sans-serif" font-size="12" lengthAdjust="spacing" textLength="288" x="972" y="203.0449">1.1.1.1 Develop user interface for adding nodes</text><line style="stroke:#181818;stroke-width:1.5;" x1="952" x2="962" y1="247.8594" y2="247.8594"/><rect fill="#F1F1F1" height="33.9688" style="stroke:#181818;stroke-width:1.5;" width="321" x="962" y="230.875"/><text fill="#000000" font-family="sans-serif" font-size="12" lengthAdjust="spacing" textLength="301" x="972" y="252.0137">1.1.1.2 Implement logic for adding nodes to graph</text><line style="stroke:#181818;stroke-width:1.5;" x1="952" x2="952" y1="166.9063" y2="247.8594"/><line style="stroke:#181818;stroke-width:1.5;" x1="829.5" x2="839.5" y1="296.8281" y2="296.8281"/><rect fill="#F1F1F1" height="33.9688" style="stroke:#181818;stroke-width:1.5;" width="225" x="839.5" y="279.8438"/><text fill="#000000" font-family="sans-serif" font-size="12" lengthAdjust="spacing" textLength="205" x="849.5" y="300.9824">1.1.4 Implement Add Edge feature</text><line style="stroke:#181818;stroke-width:1.5;" x1="952" x2="962" y1="345.7969" y2="345.7969"/><rect fill="#F1F1F1" height="33.9688" style="stroke:#181818;stroke-width:1.5;" width="310" x="962" y="328.8125"/><text fill="#000000" font-family="sans-serif" font-size="12" lengthAdjust="spacing" textLength="290" x="972" y="349.9512">1.1.4.1 Develop user interface for adding edges</text><line style="stroke:#181818;stroke-width:1.5;" x1="952" x2="962" y1="394.7656" y2="394.7656"/><rect fill="#F1F1F1" height="33.9688" style="stroke:#181818;stroke-width:1.5;" width="323" x="962" y="377.7813"/><text fill="#000000" font-family="sans-serif" font-size="12" lengthAdjust="spacing" textLength="303" x="972" y="398.9199">1.1.4.2 Implement logic for adding edges to graph</text><line style="stroke:#181818;stroke-width:1.5;" x1="952" x2="952" y1="313.8125" y2="394.7656"/><line style="stroke:#181818;stroke-width:1.5;" x1="829.5" x2="829.5" y1="117.9375" y2="296.8281"/><line style="stroke:#181818;stroke-width:1.5;" x1="1401" x2="1401" y1="63.9688" y2="83.9688"/><rect fill="#F1F1F1" height="33.9688" style="stroke:#181818;stroke-width:1.5;" width="192" x="1305" y="83.9688"/><text fill="#000000" font-family="sans-serif" font-size="12" lengthAdjust="spacing" textLength="172" x="1315" y="105.1074">2.0 Important but Not Urgent</text><line style="stroke:#181818;stroke-width:1.5;" x1="1401" x2="1411" y1="149.9219" y2="149.9219"/><rect fill="#F1F1F1" height="33.9688" style="stroke:#181818;stroke-width:1.5;" width="224" x="1411" y="132.9375"/><text fill="#000000" font-family="sans-serif" font-size="12" lengthAdjust="spacing" textLength="204" x="1421" y="154.0762">1.1.2 Implement Edit Node feature</text><line style="stroke:#181818;stroke-width:1.5;" x1="1523" x2="1533" y1="198.8906" y2="198.8906"/><rect fill="#F1F1F1" height="33.9688" style="stroke:#181818;stroke-width:1.5;" width="309" x="1533" y="181.9063"/><text fill="#000000" font-family="sans-serif" font-size="12" lengthAdjust="spacing" textLength="289" x="1543" y="203.0449">1.1.2.1 Develop user interface for editing nodes</text><line style="stroke:#181818;stroke-width:1.5;" x1="1523" x2="1533" y1="247.8594" y2="247.8594"/><rect fill="#F1F1F1" height="33.9688" style="stroke:#181818;stroke-width:1.5;" width="320" x="1533" y="230.875"/><text fill="#000000" font-family="sans-serif" font-size="12" lengthAdjust="spacing" textLength="300" x="1543" y="252.0137">1.1.2.2 Implement logic for editing nodes in graph</text><line style="stroke:#181818;stroke-width:1.5;" x1="1523" x2="1523" y1="166.9063" y2="247.8594"/><line style="stroke:#181818;stroke-width:1.5;" x1="1401" x2="1411" y1="296.8281" y2="296.8281"/><rect fill="#F1F1F1" height="33.9688" style="stroke:#181818;stroke-width:1.5;" width="242" x="1411" y="279.8438"/><text fill="#000000" font-family="sans-serif" font-size="12" lengthAdjust="spacing" textLength="222" x="1421" y="300.9824">1.1.3 Implement Delete Node feature</text><line style="stroke:#181818;stroke-width:1.5;" x1="1532" x2="1542" y1="345.7969" y2="345.7969"/><rect fill="#F1F1F1" height="33.9688" style="stroke:#181818;stroke-width:1.5;" width="317" x="1542" y="328.8125"/><text fill="#000000" font-family="sans-serif" font-size="12" lengthAdjust="spacing" textLength="297" x="1552" y="349.9512">1.1.3.1 Develop user interface for deleting nodes</text><line style="stroke:#181818;stroke-width:1.5;" x1="1532" x2="1542" y1="394.7656" y2="394.7656"/><rect fill="#F1F1F1" height="33.9688" style="stroke:#181818;stroke-width:1.5;" width="346" x="1542" y="377.7813"/><text fill="#000000" font-family="sans-serif" font-size="12" lengthAdjust="spacing" textLength="326" x="1552" y="398.9199">1.1.3.2 Implement logic for deleting nodes from graph</text><line style="stroke:#181818;stroke-width:1.5;" x1="1532" x2="1532" y1="313.8125" y2="394.7656"/><line style="stroke:#181818;stroke-width:1.5;" x1="1401" x2="1411" y1="443.7344" y2="443.7344"/><rect fill="#F1F1F1" height="33.9688" style="stroke:#181818;stroke-width:1.5;" width="392" x="1411" y="426.75"/><text fill="#000000" font-family="sans-serif" font-size="12" lengthAdjust="spacing" textLength="372" x="1421" y="447.8887">1.1.5 Implement Automatic Key Creation feature (stretch goal)</text><line style="stroke:#181818;stroke-width:1.5;" x1="1607" x2="1617" y1="492.7031" y2="492.7031"/><rect fill="#F1F1F1" height="33.9688" style="stroke:#181818;stroke-width:1.5;" width="308" x="1617" y="475.7188"/><text fill="#000000" font-family="sans-serif" font-size="12" lengthAdjust="spacing" textLength="288" x="1627" y="496.8574">1.1.5.1 Develop logic for automatic key creation</text><line style="stroke:#181818;stroke-width:1.5;" x1="1607" x2="1617" y1="541.6719" y2="541.6719"/><rect fill="#F1F1F1" height="33.9688" style="stroke:#181818;stroke-width:1.5;" width="309" x="1617" y="524.6875"/><text fill="#000000" font-family="sans-serif" font-size="12" lengthAdjust="spacing" textLength="289" x="1627" y="545.8262">1.1.5.2 Incorporate feedback from stakeholders</text><line style="stroke:#181818;stroke-width:1.5;" x1="1607" x2="1607" y1="460.7188" y2="541.6719"/><line style="stroke:#181818;stroke-width:1.5;" x1="1401" x2="1401" y1="117.9375" y2="443.7344"/><line style="stroke:#181818;stroke-width:1.5;" x1="2042" x2="2042" y1="63.9688" y2="83.9688"/><rect fill="#F1F1F1" height="33.9688" style="stroke:#181818;stroke-width:1.5;" width="192" x="1946" y="83.9688"/><text fill="#000000" font-family="sans-serif" font-size="12" lengthAdjust="spacing" textLength="172" x="1956" y="105.1074">3.0 Urgent but Not Important</text><line style="stroke:#181818;stroke-width:1.5;" x1="2042" x2="2052" y1="149.9219" y2="149.9219"/><rect fill="#F1F1F1" height="33.9688" style="stroke:#181818;stroke-width:1.5;" width="261" x="2052" y="132.9375"/><text fill="#000000" font-family="sans-serif" font-size="12" lengthAdjust="spacing" textLength="241" x="2062" y="154.0762">1.3.1 Implement Export GraphML feature</text><line style="stroke:#181818;stroke-width:1.5;" x1="2182.5" x2="2192.5" y1="198.8906" y2="198.8906"/><rect fill="#F1F1F1" height="33.9688" style="stroke:#181818;stroke-width:1.5;" width="425" x="2192.5" y="181.9063"/><text fill="#000000" font-family="sans-serif" font-size="12" lengthAdjust="spacing" textLength="405" x="2202.5" y="203.0449">1.3.1.1 Implement logic for exporting graph data to GraphML format</text><line style="stroke:#181818;stroke-width:1.5;" x1="2182.5" x2="2192.5" y1="247.8594" y2="247.8594"/><rect fill="#F1F1F1" height="33.9688" style="stroke:#181818;stroke-width:1.5;" width="309" x="2192.5" y="230.875"/><text fill="#000000" font-family="sans-serif" font-size="12" lengthAdjust="spacing" textLength="289" x="2202.5" y="252.0137">1.3.1.2 Incorporate feedback from stakeholders</text><line style="stroke:#181818;stroke-width:1.5;" x1="2182.5" x2="2182.5" y1="166.9063" y2="247.8594"/><line style="stroke:#181818;stroke-width:1.5;" x1="2042" x2="2052" y1="296.8281" y2="296.8281"/><rect fill="#F1F1F1" height="33.9688" style="stroke:#181818;stroke-width:1.5;" width="262" x="2052" y="279.8438"/><text fill="#000000" font-family="sans-serif" font-size="12" lengthAdjust="spacing" textLength="242" x="2062" y="300.9824">1.3.2 Implement Import GraphML feature</text><line style="stroke:#181818;stroke-width:1.5;" x1="2183" x2="2193" y1="345.7969" y2="345.7969"/><rect fill="#F1F1F1" height="33.9688" style="stroke:#181818;stroke-width:1.5;" width="393" x="2193" y="328.8125"/><text fill="#000000" font-family="sans-serif" font-size="12" lengthAdjust="spacing" textLength="373" x="2203" y="349.9512">1.3.2.1 Implement logic for importing GraphML data for editing</text><line style="stroke:#181818;stroke-width:1.5;" x1="2183" x2="2193" y1="394.7656" y2="394.7656"/><rect fill="#F1F1F1" height="33.9688" style="stroke:#181818;stroke-width:1.5;" width="310" x="2193" y="377.7813"/><text fill="#000000" font-family="sans-serif" font-size="12" lengthAdjust="spacing" textLength="290" x="2203" y="398.9199">1.3.2.2 Incorporate feedback from stakeholders</text><line style="stroke:#181818;stroke-width:1.5;" x1="2183" x2="2183" y1="313.8125" y2="394.7656"/><line style="stroke:#181818;stroke-width:1.5;" x1="2042" x2="2052" y1="443.7344" y2="443.7344"/><rect fill="#F1F1F1" height="33.9688" style="stroke:#181818;stroke-width:1.5;" width="240" x="2052" y="426.75"/><text fill="#000000" font-family="sans-serif" font-size="12" lengthAdjust="spacing" textLength="220" x="2062" y="447.8887">1.3.3 Implement Export JSON feature</text><line style="stroke:#181818;stroke-width:1.5;" x1="2172" x2="2182" y1="492.7031" y2="492.7031"/><rect fill="#F1F1F1" height="33.9688" style="stroke:#181818;stroke-width:1.5;" width="404" x="2182" y="475.7188"/><text fill="#000000" font-family="sans-serif" font-size="12" lengthAdjust="spacing" textLength="384" x="2192" y="496.8574">1.3.3.1 Implement logic for exporting graph data to JSON format</text><line style="stroke:#181818;stroke-width:1.5;" x1="2172" x2="2182" y1="541.6719" y2="541.6719"/><rect fill="#F1F1F1" height="33.9688" style="stroke:#181818;stroke-width:1.5;" width="310" x="2182" y="524.6875"/><text fill="#000000" font-family="sans-serif" font-size="12" lengthAdjust="spacing" textLength="290" x="2192" y="545.8262">1.3.3.2 Incorporate feedback from stakeholders</text><line style="stroke:#181818;stroke-width:1.5;" x1="2172" x2="2172" y1="460.7188" y2="541.6719"/><line style="stroke:#181818;stroke-width:1.5;" x1="2042" x2="2052" y1="590.6406" y2="590.6406"/><rect fill="#F1F1F1" height="33.9688" style="stroke:#181818;stroke-width:1.5;" width="240" x="2052" y="573.6563"/><text fill="#000000" font-family="sans-serif" font-size="12" lengthAdjust="spacing" textLength="220" x="2062" y="594.7949">1.3.4 Implement Import JSON feature</text><line style="stroke:#181818;stroke-width:1.5;" x1="2172" x2="2182" y1="639.6094" y2="639.6094"/><rect fill="#F1F1F1" height="33.9688" style="stroke:#181818;stroke-width:1.5;" width="371" x="2182" y="622.625"/><text fill="#000000" font-family="sans-serif" font-size="12" lengthAdjust="spacing" textLength="351" x="2192" y="643.7637">1.3.4.1 Implement logic for importing JSON data for editing</text><line style="stroke:#181818;stroke-width:1.5;" x1="2172" x2="2182" y1="688.5781" y2="688.5781"/><rect fill="#F1F1F1" height="33.9688" style="stroke:#181818;stroke-width:1.5;" width="310" x="2182" y="671.5938"/><text fill="#000000" font-family="sans-serif" font-size="12" lengthAdjust="spacing" textLength="290" x="2192" y="692.7324">1.3.4.2 Incorporate feedback from stakeholders</text><line style="stroke:#181818;stroke-width:1.5;" x1="2172" x2="2172" y1="607.625" y2="688.5781"/><line style="stroke:#181818;stroke-width:1.5;" x1="2042" x2="2042" y1="117.9375" y2="590.6406"/><line style="stroke:#181818;stroke-width:1.5;" x1="2747" x2="2747" y1="63.9688" y2="83.9688"/><rect fill="#F1F1F1" height="33.9688" style="stroke:#181818;stroke-width:1.5;" width="219" x="2637.5" y="83.9688"/><text fill="#000000" font-family="sans-serif" font-size="12" lengthAdjust="spacing" textLength="199" x="2647.5" y="105.1074">4.0 Not Urgent and Not Important</text><line style="stroke:#181818;stroke-width:1.5;" x1="95.5" x2="2747" y1="63.9688" y2="63.9688"/><rect fill="#F1F1F1" height="33.9688" style="stroke:#181818;stroke-width:1.5;" width="233" x="1304.75" y="10"/><text fill="#000000" font-family="sans-serif" font-size="12" lengthAdjust="spacing" textLength="213" x="1314.75" y="31.1387">1 SPA GraphML Editor Development</text><line style="stroke:#181818;stroke-width:1.5;" x1="1421.25" x2="1421.25" y1="43.9688" y2="63.9688"/><!--SRC=[dPRVKzf04CVVyrVi8uoL2W7i-2HLQcl1CYA-7xabP4ZkCfSBrl- -Umd42oHWEiuuOlQx-zcVv3RHJEctPU9SG1Vcin4yA1QlfnCOyq1B1VUunL364GhjN5n0htC5lw9OAis41YOuB9IVFoC7dLwdPnw7QEn96w96U98SOOLCfmgDtSwmqzqxXpH11O7Gg5RC8rkAouqs43u8KYUsp8uGIZ_mAknXfMG4ladbIqQvfbyXabMCWgFmWjndvh9_Z3pcVWLo_vF8IEh4bfr1pkmjv89iOEdcR8imKz9Nc2J7R0DYgmgIiAq94U-5SfN7eA21JcmzGGfFAkejqoPvv4lcRN8icf8DhcN8KNtKRMW5d4Z6Jz0DQ-X2adqARzWSxzgAk11SVdr6Bc7awK2A2iJhqyrDoOCXDSEaSFTtxilsKTtf4s8AKpITV7JXJg59yC4QX6wfUYFEArSgjpkH0kFyQA7CJpMpRGrQbYQpMzeP0rIrCDrp2xCBKLgNRkswsDOsqC5DMgQQogFBTwcSf3bjDIKySvNCL5RKiEuebSpjJkSoztEtaWp_vrOQMSDRMP3PXsUKQXanJThV-9wF9mtk7X9QYLQelJNuaeNjZ-03YzbgOk5iGywydJDRrM3FmQNEvtqksbuCmYuNjxGxux_cQV4TTr1ezs3Jh4PcEbEo_3fnffcPmSAHL9ILxQVXkIgtAa-Y7hDNWnb4UyozD0ErHj7sqHZHFQxau_pFqp6Vsx2CkPU36hhD0Vl7DQm6x9yjOAQhhrw_qPpsQKu_RbBsDL2UrLjwAp4lOSuif8yBQjoMf6RDQ9AkUcvdk4JD1gs5s0Zv9i2JKHpG-umE8cmxhOVP11APAhe7FA1z36WRIDns7jcMmNCgZDqDc4-jbsaRvkFzFs4ije6I8dk_UtoTvaRmK-fvB7LcFEnVVgTxEKT5JF0wTUvnnTAGHe3oDoVv1XOlFow_EHCc_9Jv50Y5SoSfW7gdP_D_]--></g></svg>