<?xml version="1.0" encoding="us-ascii" standalone="no"?><svg xmlns="http://www.w3.org/2000/svg" xmlns:xlink="http://www.w3.org/1999/xlink" contentStyleType="text/css" height="1411px" preserveAspectRatio="none" style="width:1473px;height:1411px;background:#FFFFFF;" version="1.1" viewBox="0 0 1473 1411" width="1473px" zoomAndPan="magnify"><defs/><g><!--entity User--><g id="elem_User"><ellipse cx="21.5" cy="586.5" fill="#F1F1F1" rx="8" ry="8" style="stroke:#181818;stroke-width:0.5;"/><path d="M21.5,594.5 L21.5,621.5 M8.5,602.5 L34.5,602.5 M21.5,621.5 L8.5,636.5 M21.5,621.5 L34.5,636.5 " fill="none" style="stroke:#181818;stroke-width:0.5;"/><text fill="#000000" font-family="sans-serif" font-size="14" lengthAdjust="spacing" textLength="31" x="6" y="650.9951">User</text></g><g id="elem_Create Graph"><ellipse cx="173.5529" cy="159.2106" fill="#F1F1F1" rx="71.5529" ry="16.7106" style="stroke:#181818;stroke-width:0.5;"/><text fill="#000000" font-family="sans-serif" font-size="14" lengthAdjust="spacing" textLength="97" x="122.0529" y="162.9581">Create Graph</text></g><g id="elem_Edit Graph"><ellipse cx="173.3963" cy="615.7793" fill="#F1F1F1" rx="64.3963" ry="15.2793" style="stroke:#181818;stroke-width:0.5;"/><text fill="#000000" font-family="sans-serif" font-size="14" lengthAdjust="spacing" textLength="77" x="131.8963" y="619.5268">Edit Graph</text></g><g id="elem_File IO"><ellipse cx="505.3991" cy="353.1113" fill="#F1F1F1" rx="42.8991" ry="14.6113" style="stroke:#181818;stroke-width:0.5;"/><text fill="#000000" font-family="sans-serif" font-size="14" lengthAdjust="spacing" textLength="44" x="480.3991" y="356.8588">File IO</text></g><g id="elem_Visualize Graph"><ellipse cx="173.5612" cy="1152.2122" fill="#F1F1F1" rx="76.5612" ry="17.7122" style="stroke:#181818;stroke-width:0.5;"/><text fill="#000000" font-family="sans-serif" font-size="14" lengthAdjust="spacing" textLength="110" x="115.5612" y="1155.9598">Visualize Graph</text></g><g id="elem_Export GraphML"><ellipse cx="950.8735" cy="234.7747" fill="#F1F1F1" rx="79.3735" ry="18.2747" style="stroke:#181818;stroke-width:0.5;"/><text fill="#000000" font-family="sans-serif" font-size="14" lengthAdjust="spacing" textLength="117" x="890.4676" y="238.2248">Export GraphML</text></g><g id="elem_Import GraphML"><ellipse cx="950.7839" cy="314.8568" fill="#F1F1F1" rx="79.7839" ry="18.3568" style="stroke:#181818;stroke-width:0.5;"/><text fill="#000000" font-family="sans-serif" font-size="14" lengthAdjust="spacing" textLength="118" x="890.0356" y="318.2613">Import GraphML</text></g><g id="elem_Add Node"><ellipse cx="505.5597" cy="20.782" fill="#F1F1F1" rx="61.5597" ry="14.782" style="stroke:#181818;stroke-width:0.5;"/><text fill="#000000" font-family="sans-serif" font-size="14" lengthAdjust="spacing" textLength="69" x="468.0597" y="24.5295">Add Node</text></g><g id="elem_Edit Node"><ellipse cx="505.5868" cy="417.8174" fill="#F1F1F1" rx="62.0868" ry="14.8174" style="stroke:#181818;stroke-width:0.5;"/><text fill="#000000" font-family="sans-serif" font-size="14" lengthAdjust="spacing" textLength="70" x="467.5868" y="421.5649">Edit Node</text></g><g id="elem_Delete Node"><ellipse cx="505.464" cy="484.1928" fill="#F1F1F1" rx="68.964" ry="16.1928" style="stroke:#181818;stroke-width:0.5;"/><text fill="#000000" font-family="sans-serif" font-size="14" lengthAdjust="spacing" textLength="90" x="457.464" y="487.9404">Delete Node</text></g><g id="elem_Add Edge"><ellipse cx="505.313" cy="85.7771" fill="#F1F1F1" rx="60.813" ry="14.7771" style="stroke:#181818;stroke-width:0.5;"/><text fill="#000000" font-family="sans-serif" font-size="14" lengthAdjust="spacing" textLength="68" x="468.313" y="89.5247">Add Edge</text></g><g id="elem_Automatic Key Creation"><ellipse cx="505.6177" cy="159.1235" fill="#F1F1F1" rx="103.6177" ry="23.1235" style="stroke:#181818;stroke-width:0.5;"/><text fill="#000000" font-family="sans-serif" font-size="14" lengthAdjust="spacing" textLength="172" x="419.6177" y="161.9702">Automatic Key Creation</text></g><g id="elem_Edit Edge"><ellipse cx="505.5597" cy="549.782" fill="#F1F1F1" rx="61.5597" ry="14.782" style="stroke:#181818;stroke-width:0.5;"/><text fill="#000000" font-family="sans-serif" font-size="14" lengthAdjust="spacing" textLength="69" x="468.0597" y="553.5295">Edit Edge</text></g><g id="elem_Delete Edge"><ellipse cx="505.6011" cy="616.1202" fill="#F1F1F1" rx="68.6011" ry="16.1202" style="stroke:#181818;stroke-width:0.5;"/><text fill="#000000" font-family="sans-serif" font-size="14" lengthAdjust="spacing" textLength="89" x="458.1011" y="619.8678">Delete Edge</text></g><g id="elem_Save Progress"><ellipse cx="505.6868" cy="683.9374" fill="#F1F1F1" rx="72.6868" ry="16.9374" style="stroke:#181818;stroke-width:0.5;"/><text fill="#000000" font-family="sans-serif" font-size="14" lengthAdjust="spacing" textLength="100" x="452.6868" y="687.6849">Save Progress</text></g><g id="elem_Load Progress"><ellipse cx="505.6868" cy="752.9374" fill="#F1F1F1" rx="72.6868" ry="16.9374" style="stroke:#181818;stroke-width:0.5;"/><text fill="#000000" font-family="sans-serif" font-size="14" lengthAdjust="spacing" textLength="100" x="452.6868" y="756.6849">Load Progress</text></g><g id="elem_Export JSON"><ellipse cx="950.8807" cy="388.9761" fill="#F1F1F1" rx="67.8807" ry="15.9761" style="stroke:#181818;stroke-width:0.5;"/><text fill="#000000" font-family="sans-serif" font-size="14" lengthAdjust="spacing" textLength="87" x="904.3807" y="392.7237">Export JSON</text></g><g id="elem_Import JSON"><ellipse cx="951.24" cy="466.048" fill="#F1F1F1" rx="68.24" ry="16.048" style="stroke:#181818;stroke-width:0.5;"/><text fill="#000000" font-family="sans-serif" font-size="14" lengthAdjust="spacing" textLength="88" x="904.24" y="469.7956">Import JSON</text></g><g id="elem_Undo Action"><ellipse cx="505.3807" cy="820.9761" fill="#F1F1F1" rx="67.8807" ry="15.9761" style="stroke:#181818;stroke-width:0.5;"/><text fill="#000000" font-family="sans-serif" font-size="14" lengthAdjust="spacing" textLength="87" x="458.8807" y="824.7237">Undo Action</text></g><g id="elem_Redo Action"><ellipse cx="951.24" cy="785.048" fill="#F1F1F1" rx="68.24" ry="16.048" style="stroke:#181818;stroke-width:0.5;"/><text fill="#000000" font-family="sans-serif" font-size="14" lengthAdjust="spacing" textLength="88" x="904.24" y="788.7956">Redo Action</text></g><g id="elem_Zoom In/Out"><ellipse cx="505.464" cy="1009.1928" fill="#F1F1F1" rx="68.964" ry="16.1928" style="stroke:#181818;stroke-width:0.5;"/><text fill="#000000" font-family="sans-serif" font-size="14" lengthAdjust="spacing" textLength="90" x="457.464" y="1012.9404">Zoom In/Out</text></g><g id="elem_Navigate Graph"><ellipse cx="505.4563" cy="1077.7913" fill="#F1F1F1" rx="76.9563" ry="17.7913" style="stroke:#181818;stroke-width:0.5;"/><text fill="#000000" font-family="sans-serif" font-size="14" lengthAdjust="spacing" textLength="111" x="447.0675" y="1081.5101">Navigate Graph</text></g><g id="elem_Search Nodes/Edges"><ellipse cx="505.4431" cy="1152.1886" fill="#F1F1F1" rx="91.4431" ry="20.6886" style="stroke:#181818;stroke-width:0.5;"/><text fill="#000000" font-family="sans-serif" font-size="14" lengthAdjust="spacing" textLength="145" x="432.9431" y="1155.0353">Search Nodes/Edges</text></g><g id="elem_Filter Nodes/Edges"><ellipse cx="505.5998" cy="1227.22" fill="#F1F1F1" rx="86.5998" ry="19.72" style="stroke:#181818;stroke-width:0.5;"/><text fill="#000000" font-family="sans-serif" font-size="14" lengthAdjust="spacing" textLength="134" x="438.5998" y="1230.0666">Filter Nodes/Edges</text></g><g id="elem_Export Image"><ellipse cx="505.5529" cy="1298.2106" fill="#F1F1F1" rx="71.5529" ry="16.7106" style="stroke:#181818;stroke-width:0.5;"/><text fill="#000000" font-family="sans-serif" font-size="14" lengthAdjust="spacing" textLength="97" x="454.0529" y="1301.9581">Export Image</text></g><g id="elem_GMN51"><path d="M405.5,217 L405.5,225.63 L217.303,172.1 L405.5,233.63 L405.5,302.6641 A0,0 0 0 0 405.5,302.6641 L605.5,302.6641 A0,0 0 0 0 605.5,302.6641 L605.5,227 L595.5,217 L405.5,217 A0,0 0 0 0 405.5,217 " fill="#FEFFDD" style="stroke:#181818;stroke-width:0.5;"/><path d="M595.5,217 L595.5,227 L605.5,227 L595.5,217 " fill="#FEFFDD" style="stroke:#181818;stroke-width:0.5;"/><text fill="#000000" font-family="sans-serif" font-size="13" lengthAdjust="spacing" textLength="61" x="411.5" y="234.0669">Features:</text><ellipse cx="417" cy="244.7656" fill="#000000" rx="2.5" ry="2.5" style="stroke:#000000;stroke-width:0.0;"/><text fill="#000000" font-family="sans-serif" font-size="13" lengthAdjust="spacing" textLength="144" x="423.5" y="249.1997">Saving/load of a graph</text><ellipse cx="417" cy="259.8984" fill="#000000" rx="2.5" ry="2.5" style="stroke:#000000;stroke-width:0.0;"/><text fill="#000000" font-family="sans-serif" font-size="13" lengthAdjust="spacing" textLength="130" x="423.5" y="264.3325">Adding node objects</text><ellipse cx="417" cy="275.0313" fill="#000000" rx="2.5" ry="2.5" style="stroke:#000000;stroke-width:0.0;"/><text fill="#000000" font-family="sans-serif" font-size="13" lengthAdjust="spacing" textLength="130" x="423.5" y="279.4653">Adding edge objects</text><ellipse cx="417" cy="290.1641" fill="#000000" rx="2.5" ry="2.5" style="stroke:#000000;stroke-width:0.0;"/><text fill="#000000" font-family="sans-serif" font-size="13" lengthAdjust="spacing" textLength="167" x="423.5" y="294.5981">Leveraging dynamic filling</text></g><g id="elem_GMN54"><path d="M351.5,872 L351.5,957.6641 L659.5,957.6641 L659.5,882 L649.5,872 L351.5,872 " fill="#FEFFDD" style="stroke:#181818;stroke-width:0.5;"/><path d="M649.5,872 L649.5,882 L659.5,882 L649.5,872 " fill="#FEFFDD" style="stroke:#181818;stroke-width:1.0;"/><text fill="#000000" font-family="sans-serif" font-size="13" lengthAdjust="spacing" textLength="61" x="357.5" y="889.0669">Features:</text><ellipse cx="363" cy="899.7656" fill="#000000" rx="2.5" ry="2.5" style="stroke:#000000;stroke-width:0.0;"/><text fill="#000000" font-family="sans-serif" font-size="13" lengthAdjust="spacing" textLength="161" x="369.5" y="904.1997">Dynamic object selection</text><ellipse cx="363" cy="914.8984" fill="#000000" rx="2.5" ry="2.5" style="stroke:#000000;stroke-width:0.0;"/><text fill="#000000" font-family="sans-serif" font-size="13" lengthAdjust="spacing" textLength="270" x="369.5" y="919.3325">Object removal with dependency handling</text><ellipse cx="363" cy="930.0313" fill="#000000" rx="2.5" ry="2.5" style="stroke:#000000;stroke-width:0.0;"/><text fill="#000000" font-family="sans-serif" font-size="13" lengthAdjust="spacing" textLength="209" x="369.5" y="934.4653">Template for GraphML attributes</text><ellipse cx="363" cy="945.1641" fill="#000000" rx="2.5" ry="2.5" style="stroke:#000000;stroke-width:0.0;"/><text fill="#000000" font-family="sans-serif" font-size="13" lengthAdjust="spacing" textLength="275" x="369.5" y="949.5981">Stretch goal: auto-populated attribute tags</text></g><g id="elem_GMN57"><path d="M310,1349.5 L310,1404.8984 L701,1404.8984 L701,1359.5 L691,1349.5 L310,1349.5 " fill="#FEFFDD" style="stroke:#181818;stroke-width:0.5;"/><path d="M691,1349.5 L691,1359.5 L701,1359.5 L691,1349.5 " fill="#FEFFDD" style="stroke:#181818;stroke-width:1.0;"/><text fill="#000000" font-family="sans-serif" font-size="13" lengthAdjust="spacing" textLength="159" x="316" y="1366.5669">Features (Stretch goals):</text><ellipse cx="321.5" cy="1377.2656" fill="#000000" rx="2.5" ry="2.5" style="stroke:#000000;stroke-width:0.0;"/><text fill="#000000" font-family="sans-serif" font-size="13" lengthAdjust="spacing" textLength="186" x="328" y="1381.6997">Real-time graph visualization</text><ellipse cx="321.5" cy="1392.3984" fill="#000000" rx="2.5" ry="2.5" style="stroke:#000000;stroke-width:0.0;"/><text fill="#000000" font-family="sans-serif" font-size="13" lengthAdjust="spacing" textLength="358" x="328" y="1396.8325">Navigable graph visualization with mouse and keyboard</text></g><g id="elem_GMN60"><path d="M1217,198.5 L1217,224.74 L1030.38,233.15 L1217,232.74 L1217,253.8984 A0,0 0 0 0 1217,253.8984 L1450,253.8984 A0,0 0 0 0 1450,253.8984 L1450,208.5 L1440,198.5 L1217,198.5 A0,0 0 0 0 1217,198.5 " fill="#FEFFDD" style="stroke:#181818;stroke-width:0.5;"/><path d="M1440,198.5 L1440,208.5 L1450,208.5 L1440,198.5 " fill="#FEFFDD" style="stroke:#181818;stroke-width:0.5;"/><text fill="#000000" font-family="sans-serif" font-size="13" lengthAdjust="spacing" textLength="61" x="1223" y="215.5669">Features:</text><ellipse cx="1228.5" cy="226.2656" fill="#000000" rx="2.5" ry="2.5" style="stroke:#000000;stroke-width:0.0;"/><text fill="#000000" font-family="sans-serif" font-size="13" lengthAdjust="spacing" textLength="200" x="1235" y="230.6997">Export data to GraphML format</text><ellipse cx="1228.5" cy="241.3984" fill="#000000" rx="2.5" ry="2.5" style="stroke:#000000;stroke-width:0.0;"/><text fill="#000000" font-family="sans-serif" font-size="13" lengthAdjust="spacing" textLength="187" x="1235" y="245.8325">Share data to larger systems</text></g><g id="elem_GMN63"><path d="M1215,289 L1215,306.86 L1030.84,313.76 L1215,314.86 L1215,329.2656 A0,0 0 0 0 1215,329.2656 L1452,329.2656 A0,0 0 0 0 1452,329.2656 L1452,299 L1442,289 L1215,289 A0,0 0 0 0 1215,289 " fill="#FEFFDD" style="stroke:#181818;stroke-width:0.5;"/><path d="M1442,289 L1442,299 L1452,299 L1442,289 " fill="#FEFFDD" style="stroke:#181818;stroke-width:0.5;"/><text fill="#000000" font-family="sans-serif" font-size="13" lengthAdjust="spacing" textLength="61" x="1221" y="306.0669">Features:</text><ellipse cx="1226.5" cy="316.7656" fill="#000000" rx="2.5" ry="2.5" style="stroke:#000000;stroke-width:0.0;"/><text fill="#000000" font-family="sans-serif" font-size="13" lengthAdjust="spacing" textLength="204" x="1233" y="321.1997">Import GraphML data for editing</text></g><g id="elem_GMN66"><path d="M1201,364.5 L1201,386.96 L1019.15,389.53 L1201,394.96 L1201,419.8984 A0,0 0 0 0 1201,419.8984 L1466,419.8984 A0,0 0 0 0 1466,419.8984 L1466,374.5 L1456,364.5 L1201,364.5 A0,0 0 0 0 1201,364.5 " fill="#FEFFDD" style="stroke:#181818;stroke-width:0.5;"/><path d="M1456,364.5 L1456,374.5 L1466,374.5 L1456,364.5 " fill="#FEFFDD" style="stroke:#181818;stroke-width:0.5;"/><text fill="#000000" font-family="sans-serif" font-size="13" lengthAdjust="spacing" textLength="61" x="1207" y="381.5669">Features:</text><ellipse cx="1212.5" cy="392.2656" fill="#000000" rx="2.5" ry="2.5" style="stroke:#000000;stroke-width:0.0;"/><text fill="#000000" font-family="sans-serif" font-size="13" lengthAdjust="spacing" textLength="175" x="1219" y="396.6997">Export data to JSON format</text><ellipse cx="1212.5" cy="407.3984" fill="#000000" rx="2.5" ry="2.5" style="stroke:#000000;stroke-width:0.0;"/><text fill="#000000" font-family="sans-serif" font-size="13" lengthAdjust="spacing" textLength="232" x="1219" y="411.8325">Share data for active graph creation</text></g><g id="elem_GMN69"><path d="M1227.5,455 L1227.5,468.514 L1018.71,467.578 L1227.5,476.514 L1227.5,495.2656 A0,0 0 0 0 1227.5,495.2656 L1439.5,495.2656 A0,0 0 0 0 1439.5,495.2656 L1439.5,465 L1429.5,455 L1227.5,455 A0,0 0 0 0 1227.5,455 " fill="#FEFFDD" style="stroke:#181818;stroke-width:0.5;"/><path d="M1429.5,455 L1429.5,465 L1439.5,465 L1429.5,455 " fill="#FEFFDD" style="stroke:#181818;stroke-width:0.5;"/><text fill="#000000" font-family="sans-serif" font-size="13" lengthAdjust="spacing" textLength="61" x="1233.5" y="472.0669">Features:</text><ellipse cx="1239" cy="482.7656" fill="#000000" rx="2.5" ry="2.5" style="stroke:#000000;stroke-width:0.0;"/><text fill="#000000" font-family="sans-serif" font-size="13" lengthAdjust="spacing" textLength="179" x="1245.5" y="487.1997">Import JSON data for editing</text></g><g id="elem_GMN72"><path d="M883,836 L883,846.692 L570.515,826.052 L883,854.692 L883,876.2656 A0,0 0 0 0 883,876.2656 L1019,876.2656 A0,0 0 0 0 1019,876.2656 L1019,846 L1009,836 L883,836 A0,0 0 0 0 883,836 " fill="#FEFFDD" style="stroke:#181818;stroke-width:0.5;"/><path d="M1009,836 L1009,846 L1019,846 L1009,836 " fill="#FEFFDD" style="stroke:#181818;stroke-width:0.5;"/><text fill="#000000" font-family="sans-serif" font-size="13" lengthAdjust="spacing" textLength="61" x="889" y="853.0669">Features:</text><ellipse cx="894.5" cy="863.7656" fill="#000000" rx="2.5" ry="2.5" style="stroke:#000000;stroke-width:0.0;"/><text fill="#000000" font-family="sans-serif" font-size="13" lengthAdjust="spacing" textLength="103" x="901" y="868.1997">Undo last action</text></g><g id="elem_GMN75"><path d="M1239.5,765 L1239.5,781 L1019.15,785 L1239.5,789 L1239.5,805.2656 A0,0 0 0 0 1239.5,805.2656 L1427.5,805.2656 A0,0 0 0 0 1427.5,805.2656 L1427.5,775 L1417.5,765 L1239.5,765 A0,0 0 0 0 1239.5,765 " fill="#FEFFDD" style="stroke:#181818;stroke-width:0.5;"/><path d="M1417.5,765 L1417.5,775 L1427.5,775 L1417.5,765 " fill="#FEFFDD" style="stroke:#181818;stroke-width:0.5;"/><text fill="#000000" font-family="sans-serif" font-size="13" lengthAdjust="spacing" textLength="61" x="1245.5" y="782.0669">Features:</text><ellipse cx="1251" cy="792.7656" fill="#000000" rx="2.5" ry="2.5" style="stroke:#000000;stroke-width:0.0;"/><text fill="#000000" font-family="sans-serif" font-size="13" lengthAdjust="spacing" textLength="155" x="1257.5" y="797.1997">Redo last undone action</text></g><g id="elem_GMN78"><path d="M798,982 L798,1000.4 L574.825,1007.922 L798,1008.4 L798,1022.2656 A0,0 0 0 0 798,1022.2656 L1104,1022.2656 A0,0 0 0 0 1104,1022.2656 L1104,992 L1094,982 L798,982 A0,0 0 0 0 798,982 " fill="#FEFFDD" style="stroke:#181818;stroke-width:0.5;"/><path d="M1094,982 L1094,992 L1104,992 L1094,982 " fill="#FEFFDD" style="stroke:#181818;stroke-width:0.5;"/><text fill="#000000" font-family="sans-serif" font-size="13" lengthAdjust="spacing" textLength="152" x="804" y="999.0669">Features (Stretch goal):</text><ellipse cx="809.5" cy="1009.7656" fill="#000000" rx="2.5" ry="2.5" style="stroke:#000000;stroke-width:0.0;"/><text fill="#000000" font-family="sans-serif" font-size="13" lengthAdjust="spacing" textLength="273" x="816" y="1014.1997">Zoom in and out of the graph visualization</text></g><g id="elem_GMN81"><path d="M769.5,1057 L769.5,1073.407 L582.74,1077.828 L769.5,1081.407 L769.5,1097.2656 A0,0 0 0 0 769.5,1097.2656 L1132.5,1097.2656 A0,0 0 0 0 1132.5,1097.2656 L1132.5,1067 L1122.5,1057 L769.5,1057 A0,0 0 0 0 769.5,1057 " fill="#FEFFDD" style="stroke:#181818;stroke-width:0.5;"/><path d="M1122.5,1057 L1122.5,1067 L1132.5,1067 L1122.5,1057 " fill="#FEFFDD" style="stroke:#181818;stroke-width:0.5;"/><text fill="#000000" font-family="sans-serif" font-size="13" lengthAdjust="spacing" textLength="152" x="775.5" y="1074.0669">Features (Stretch goal):</text><ellipse cx="781" cy="1084.7656" fill="#000000" rx="2.5" ry="2.5" style="stroke:#000000;stroke-width:0.0;"/><text fill="#000000" font-family="sans-serif" font-size="13" lengthAdjust="spacing" textLength="330" x="787.5" y="1089.1997">Move and adjust the view of the graph visualization</text></g><g id="elem_GMN84"><path d="M824,1132 L824,1148 L597.051,1152 L824,1156 L824,1172.2656 A0,0 0 0 0 824,1172.2656 L1078,1172.2656 A0,0 0 0 0 1078,1172.2656 L1078,1142 L1068,1132 L824,1132 A0,0 0 0 0 824,1132 " fill="#FEFFDD" style="stroke:#181818;stroke-width:0.5;"/><path d="M1068,1132 L1068,1142 L1078,1142 L1068,1132 " fill="#FEFFDD" style="stroke:#181818;stroke-width:0.5;"/><text fill="#000000" font-family="sans-serif" font-size="13" lengthAdjust="spacing" textLength="61" x="830" y="1149.0669">Features:</text><ellipse cx="835.5" cy="1159.7656" fill="#000000" rx="2.5" ry="2.5" style="stroke:#000000;stroke-width:0.0;"/><text fill="#000000" font-family="sans-serif" font-size="13" lengthAdjust="spacing" textLength="221" x="842" y="1164.1997">Search for specific nodes or edges</text></g><g id="elem_GMN87"><path d="M761,1207 L761,1223 L592.011,1227 L761,1231 L761,1247.2656 A0,0 0 0 0 761,1247.2656 L1141,1247.2656 A0,0 0 0 0 1141,1247.2656 L1141,1217 L1131,1207 L761,1207 A0,0 0 0 0 761,1207 " fill="#FEFFDD" style="stroke:#181818;stroke-width:0.5;"/><path d="M1131,1207 L1131,1217 L1141,1217 L1131,1207 " fill="#FEFFDD" style="stroke:#181818;stroke-width:0.5;"/><text fill="#000000" font-family="sans-serif" font-size="13" lengthAdjust="spacing" textLength="61" x="767" y="1224.0669">Features:</text><ellipse cx="772.5" cy="1234.7656" fill="#000000" rx="2.5" ry="2.5" style="stroke:#000000;stroke-width:0.0;"/><text fill="#000000" font-family="sans-serif" font-size="13" lengthAdjust="spacing" textLength="347" x="779" y="1239.1997">Apply filters to nodes or edges to display specific data</text></g><g id="elem_GMN90"><path d="M810,1282 L810,1296.734 L577.264,1298.638 L810,1304.734 L810,1322.2656 A0,0 0 0 0 810,1322.2656 L1092,1322.2656 A0,0 0 0 0 1092,1322.2656 L1092,1292 L1082,1282 L810,1282 A0,0 0 0 0 810,1282 " fill="#FEFFDD" style="stroke:#181818;stroke-width:0.5;"/><path d="M1082,1282 L1082,1292 L1092,1292 L1082,1282 " fill="#FEFFDD" style="stroke:#181818;stroke-width:0.5;"/><text fill="#000000" font-family="sans-serif" font-size="13" lengthAdjust="spacing" textLength="152" x="816" y="1299.0669">Features (Stretch goal):</text><ellipse cx="821.5" cy="1309.7656" fill="#000000" rx="2.5" ry="2.5" style="stroke:#000000;stroke-width:0.0;"/><text fill="#000000" font-family="sans-serif" font-size="13" lengthAdjust="spacing" textLength="249" x="828" y="1314.1997">Export graph visualization as an image</text></g><!--link User to Create Graph--><g id="link_User_Create Graph"><path d="M35.0309,577.822 C65.3549,485.436 141.927,252.15 165.49,180.36 " fill="none" id="User-to-Create Graph" style="stroke:#181818;stroke-width:1.0;"/><polygon fill="#181818" points="167.094,175.47,160.4895,182.7762,165.5365,180.2212,168.0914,185.2682,167.094,175.47" style="stroke:#181818;stroke-width:1.0;"/></g><!--link User to Edit Graph--><g id="link_User_Edit Graph"><path d="M37.1557,616 C52.7786,616 78.6565,616 103.6234,616 " fill="none" id="User-to-Edit Graph" style="stroke:#181818;stroke-width:1.0;"/><polygon fill="#181818" points="108.933,616,99.933,612,103.933,616,99.933,620,108.933,616" style="stroke:#181818;stroke-width:1.0;"/></g><!--link Edit Graph to File IO--><g id="link_Edit Graph_File IO"><path d="M178.596,600.455 C190.652,558.024 230.275,439.74 310,385 C353.782,354.94 415.96,349.56 458.14,349.99 " fill="none" id="Edit Graph-to-File IO" style="stroke:#181818;stroke-width:1.0;"/><polygon fill="#181818" points="463.182,350.07,454.246,345.9291,458.1826,349.9914,454.1203,353.9281,463.182,350.07" style="stroke:#181818;stroke-width:1.0;"/></g><!--link User to Visualize Graph--><g id="link_User_Visualize Graph"><path d="M33.1674,654.118 C62.3447,758.378 142.843,1046.025 166.119,1129.198 " fill="none" id="User-to-Visualize Graph" style="stroke:#181818;stroke-width:1.0;"/><polygon fill="#181818" points="167.568,1134.377,168.9929,1124.6318,166.2197,1129.5622,161.2892,1126.7891,167.568,1134.377" style="stroke:#181818;stroke-width:1.0;"/></g><!--link File IO to Export GraphML--><g id="link_File IO_Export GraphML"><path d="M548.51,351.07 C588.887,348.03 650.98,340.2 701,320 C730.949,307.91 731.432,292 761,279 C797.746,262.85 841.225,252.2 877.211,245.43 " fill="none" id="File IO-to-Export GraphML" style="stroke:#181818;stroke-width:1.0;"/><polygon fill="#181818" points="882.465,244.46,872.8878,242.1629,877.5483,245.369,874.3422,250.0296,882.465,244.46" style="stroke:#181818;stroke-width:1.0;"/></g><!--link File IO to Import GraphML--><g id="link_File IO_Import GraphML"><path d="M547.428,349.49 C620.741,343.21 775.643,329.94 870.486,321.81 " fill="none" id="File IO-to-Import GraphML" style="stroke:#181818;stroke-width:1.0;"/><polygon fill="#181818" points="875.518,321.38,866.2086,318.1651,870.5364,321.808,866.8935,326.1358,875.518,321.38" style="stroke:#181818;stroke-width:1.0;"/></g><!--link Create Graph to Add Node--><g id="link_Create Graph_Add Node"><path d="M189.829,142.63 C213.258,118.72 260.495,74.72 310,53 C350.788,35.1 400.378,27.13 439.276,23.62 " fill="none" id="Create Graph-to-Add Node" style="stroke:#181818;stroke-width:1.0;"/><polygon fill="#181818" points="444.449,23.18,435.1386,19.9681,439.4675,23.6096,435.826,27.9386,444.449,23.18" style="stroke:#181818;stroke-width:1.0;"/></g><!--link Edit Graph to Edit Node--><g id="link_Edit Graph_Edit Node"><path d="M182.132,600.491 C199.589,566.821 245.926,487.082 310,450 C348.692,427.607 398.543,419.735 438.089,417.396 " fill="none" id="Edit Graph-to-Edit Node" style="stroke:#181818;stroke-width:1.0;"/><polygon fill="#181818" points="443.351,417.113,434.1491,413.6022,438.3582,417.3816,434.5788,421.5906,443.351,417.113" style="stroke:#181818;stroke-width:1.0;"/></g><!--link Edit Graph to Delete Node--><g id="link_Edit Graph_Delete Node"><path d="M190.067,600.769 C213.8,578.508 261.42,537.512 310,517 C348.803,500.616 395.21,492.358 432.961,488.199 " fill="none" id="Edit Graph-to-Delete Node" style="stroke:#181818;stroke-width:1.0;"/><polygon fill="#181818" points="437.992,487.664,428.6187,484.6406,433.0202,488.194,429.4667,492.5955,437.992,487.664" style="stroke:#181818;stroke-width:1.0;"/></g><!--link Create Graph to Add Edge--><g id="link_Create Graph_Add Edge"><path d="M214.446,145.41 C241.236,136.67 277.443,125.57 310,118 C355.139,107.51 406.948,99.16 445.739,93.63 " fill="none" id="Create Graph-to-Add Edge" style="stroke:#181818;stroke-width:1.0;"/><polygon fill="#181818" points="450.884,92.9,441.4113,90.2042,445.9336,93.6025,442.5353,98.1248,450.884,92.9" style="stroke:#181818;stroke-width:1.0;"/></g><!--link Create Graph to Automatic Key Creation--><g id="link_Create Graph_Automatic Key Creation"><path d="M245.293,159 C289.419,159 347.064,159 396.785,159 " fill="none" id="Create Graph-to-Automatic Key Creation" style="stroke:#181818;stroke-width:1.0;stroke-dasharray:7.0,7.0;"/><polygon fill="#181818" points="401.879,159,392.879,155,396.879,159,392.879,163,401.879,159" style="stroke:#181818;stroke-width:1.0;"/></g><!--link Edit Graph to Edit Edge--><g id="link_Edit Graph_Edit Edge"><path d="M216.709,604.452 C243.341,597.403 278.533,588.525 310,582 C355.698,572.524 407.905,564.063 446.717,558.225 " fill="none" id="Edit Graph-to-Edit Edge" style="stroke:#181818;stroke-width:1.0;"/><polygon fill="#181818" points="451.862,557.454,442.3683,554.8329,446.9173,558.1955,443.5547,562.7445,451.862,557.454" style="stroke:#181818;stroke-width:1.0;"/></g><!--link Edit Graph to Delete Edge--><g id="link_Edit Graph_Delete Edge"><path d="M238.127,616 C293.487,616 373.705,616 431.629,616 " fill="none" id="Edit Graph-to-Delete Edge" style="stroke:#181818;stroke-width:1.0;"/><polygon fill="#181818" points="436.811,616,427.811,612,431.811,616,427.811,620,436.811,616" style="stroke:#181818;stroke-width:1.0;"/></g><!--link Edit Graph to Save Progress--><g id="link_Edit Graph_Save Progress"><path d="M217.978,627.302 C244.48,634.013 279.088,642.461 310,649 C353.368,658.174 402.502,667.003 440.536,673.498 " fill="none" id="Edit Graph-to-Save Progress" style="stroke:#181818;stroke-width:1.0;"/><polygon fill="#181818" points="445.59,674.359,437.3882,668.9065,440.6608,673.5206,436.0467,676.7932,445.59,674.359" style="stroke:#181818;stroke-width:1.0;"/></g><!--link Edit Graph to Load Progress--><g id="link_Edit Graph_Load Progress"><path d="M189.609,631.266 C213.121,654.05 260.888,696.558 310,718 C347.766,734.489 392.908,743.21 430.192,747.822 " fill="none" id="Edit Graph-to-Load Progress" style="stroke:#181818;stroke-width:1.0;"/><polygon fill="#181818" points="435.165,748.419,426.7055,743.3755,430.2006,747.8234,425.7526,751.3185,435.165,748.419" style="stroke:#181818;stroke-width:1.0;"/></g><!--link File IO to Export JSON--><g id="link_File IO_Export JSON"><path d="M547.428,356.32 C623.615,362.51 787.912,375.84 881.353,383.43 " fill="none" id="File IO-to-Export JSON" style="stroke:#181818;stroke-width:1.0;"/><polygon fill="#181818" points="886.575,383.85,877.9277,379.1357,881.5914,383.4459,877.2812,387.1095,886.575,383.85" style="stroke:#181818;stroke-width:1.0;"/></g><!--link File IO to Import JSON--><g id="link_File IO_Import JSON"><path d="M548.304,355.18 C588.53,358.36 650.515,366.12 701,385 C730.345,395.97 732.031,410.07 761,422 C801.695,438.759 850.073,449.872 887.695,456.736 " fill="none" id="File IO-to-Import JSON" style="stroke:#181818;stroke-width:1.0;"/><polygon fill="#181818" points="892.696,457.635,884.5453,452.1064,887.7748,456.7508,883.1305,459.9803,892.696,457.635" style="stroke:#181818;stroke-width:1.0;"/></g><!--link Edit Graph to Undo Action--><g id="link_Edit Graph_Undo Action"><path d="M181.77,631.406 C198.817,665.678 244.902,748.254 310,787 C346.648,808.813 393.613,817.454 432.212,820.575 " fill="none" id="Edit Graph-to-Undo Action" style="stroke:#181818;stroke-width:1.0;"/><polygon fill="#181818" points="437.359,820.963,428.685,816.298,432.3731,820.5873,428.0839,824.2754,437.359,820.963" style="stroke:#181818;stroke-width:1.0;"/></g><!--link Undo Action to Redo Action--><g id="link_Undo Action_Redo Action"><path d="M575.055,815.435 C658.281,808.68 797.816,797.353 881.167,790.587 " fill="none" id="Undo Action-Redo Action" style="stroke:#181818;stroke-width:1.0;"/><polygon fill="#181818" points="570.043,815.842,579.3369,819.1013,575.0266,815.4378,578.6902,811.1275,570.043,815.842" style="stroke:#181818;stroke-width:1.0;"/><polygon fill="#181818" points="886.575,790.148,877.281,786.8889,881.5914,790.5523,877.928,794.8627,886.575,790.148" style="stroke:#181818;stroke-width:1.0;"/></g><!--link Visualize Graph to Zoom In/Out--><g id="link_Visualize Graph_Zoom In/Out"><path d="M190.098,1134.618 C213.508,1109.734 260.311,1064.487 310,1042 C348.224,1024.701 394.403,1016.402 432.17,1012.45 " fill="none" id="Visualize Graph-to-Zoom In/Out" style="stroke:#181818;stroke-width:1.0;"/><polygon fill="#181818" points="437.205,1011.943,427.8501,1008.8632,432.2301,1012.4431,428.6502,1016.8231,437.205,1011.943" style="stroke:#181818;stroke-width:1.0;"/></g><!--link Visualize Graph to Navigate Graph--><g id="link_Visualize Graph_Navigate Graph"><path d="M220.33,1138.034 C246.457,1130.353 279.895,1120.992 310,1114 C351.777,1104.297 399.084,1095.493 436.582,1089.02 " fill="none" id="Visualize Graph-to-Navigate Graph" style="stroke:#181818;stroke-width:1.0;"/><polygon fill="#181818" points="441.572,1088.163,432.0244,1085.7459,436.6443,1089.0102,433.3799,1093.6302,441.572,1088.163" style="stroke:#181818;stroke-width:1.0;"/></g><!--link Visualize Graph to Search Nodes/Edges--><g id="link_Visualize Graph_Search Nodes/Edges"><path d="M250.209,1152 C297.305,1152 358.29,1152 408.731,1152 " fill="none" id="Visualize Graph-to-Search Nodes/Edges" style="stroke:#181818;stroke-width:1.0;"/><polygon fill="#181818" points="413.89,1152,404.89,1148,408.89,1152,404.89,1156,413.89,1152" style="stroke:#181818;stroke-width:1.0;"/></g><!--link Visualize Graph to Filter Nodes/Edges--><g id="link_Visualize Graph_Filter Nodes/Edges"><path d="M220.343,1165.909 C246.474,1173.571 279.913,1182.933 310,1190 C349.548,1199.289 394.036,1207.888 430.472,1214.453 " fill="none" id="Visualize Graph-to-Filter Nodes/Edges" style="stroke:#181818;stroke-width:1.0;"/><polygon fill="#181818" points="435.788,1215.407,427.6357,1209.8807,430.8666,1214.5241,426.2231,1217.755,435.788,1215.407" style="stroke:#181818;stroke-width:1.0;"/></g><!--link Visualize Graph to Export Image--><g id="link_Visualize Graph_Export Image"><path d="M189.658,1169.252 C212.869,1194.463 259.831,1240.876 310,1264 C347.54,1281.303 392.87,1289.849 430.321,1294.049 " fill="none" id="Visualize Graph-to-Export Image" style="stroke:#181818;stroke-width:1.0;"/><polygon fill="#181818" points="435.317,1294.589,426.7988,1289.6454,430.3459,1294.0519,425.9394,1297.5991,435.317,1294.589" style="stroke:#181818;stroke-width:1.0;"/></g><!--link Edit Graph to GMN54--><g id="link_Edit Graph_GMN54"><path d="M178.978,631.722 C191.877,674.173 233.197,792.073 310,854 C322.397,863.996 336.446,872.362 351.182,879.364 " fill="none" id="Edit Graph-GMN54" style="stroke:#181818;stroke-width:1.0;stroke-dasharray:7.0,7.0;"/></g><!--link Visualize Graph to GMN57--><g id="link_Visualize Graph_GMN57"><path d="M182.48,1169.583 C199.981,1206.049 245.396,1290.001 310,1332 C320.461,1338.8007 331.826,1344.5786 343.635,1349.4869 " fill="none" id="Visualize Graph-GMN57" style="stroke:#181818;stroke-width:1.0;stroke-dasharray:7.0,7.0;"/></g><!--SRC=[dLLDRzD04BtdLyoH8aMzLmYfeWK5sWOrb0E8myGxiRUilTRksiNyUcO_cjgEdG2NADvvVZFpPlPPqSw1qs1aNZWGqb3cfAuMc3bjuC6IMIpyBooNR-7LEqFe23uOh8kptlcraExvjFyGe- -b8bYj-ozybRP19N_lkVQWHFYhrYQntDuSX5VbA3meB68kXO0xBMYged0m5xmYHSoLmZFCroAVY7uNQ0iIFmAgSRf49pFuH1q480ixMqqYdAjcBhp1bk2pqRaXQwS0Dnf57p2fyyVD-cvEv1Gx87weX8RBB3NLVu8t0N1FVS1uuf7aczObhAhpTUDcCNVOohotTZEm3Q79YZ0sU-xbihDGxjFn9luDD0cqAj7hlwWqrn7lYjwDxmF0UtviMEWB_lyQU3Qooi-Ldm2Z4NAF2o5U8Gv1nHM0tZxofRFzS-AQ1kStr9B1tCT4Ls79MxMJIl7pWYe1lgo3ulgNSbpQLIA9ES3oaiLxxuFhU6Yer2qgU9Ak044r9w8gww30IeJC7lk5obfv3NPi5-a-0ZfdvBPn58lVE4EEHvDhL1U0V2-MjQuR_vfumOB3tCvtS-0OBotnx7iPx5biyPvGBPqiASeERIB0VPzniRPg4X7RBdLZ2RXX-4dTLgCHH_GUUTPOynGNwD0xxhDOB1pRH1IgG4DxW4AJyvRQpZegZoWpDiDntc4yqljf4U_7yGNgcyE9RZnefXMVYpydidtMEKjUUBAbwSozu3yqCx2hCMK8AhGk57giie6fZMb2CD0qJ5ZHIRQ1_SqjTDhdW9LLM4RTXFTTCRtSi_d6LdeYvQrku_AZU6ouAv-lbVJqNxcd_Fd0CIF63zJMbCaTMvJtI0jXnFpEFF-KgO_vB-jQTTuv6MdzsWx9_OcGbWsjUydlL-pa7KdVXnDw9l2Ksw1beK5wcdsoFm00]--></g></svg>