<?xml version="1.0" encoding="us-ascii" standalone="no"?><svg xmlns="http://www.w3.org/2000/svg" xmlns:xlink="http://www.w3.org/1999/xlink" contentStyleType="text/css" height="839px" preserveAspectRatio="none" style="width:319px;height:839px;background:#FFFFFF;" version="1.1" viewBox="0 0 319 839" width="319px" zoomAndPan="magnify"><defs/><g><text fill="#000000" font-family="sans-serif" font-size="14" font-weight="bold" lengthAdjust="spacing" textLength="214" x="45.5" y="22.9951">SPA GraphML Editor - WBS</text><!--cluster SPA GraphML Editor--><g id="cluster_SPA GraphML Editor"><path d="M8.5,43.2969 L171.5,43.2969 A3.75,3.75 0 0 1 174,45.7969 L181,65.5938 L309.5,65.5938 A2.5,2.5 0 0 1 312,68.0938 L312,829.7969 A2.5,2.5 0 0 1 309.5,832.2969 L8.5,832.2969 A2.5,2.5 0 0 1 6,829.7969 L6,45.7969 A2.5,2.5 0 0 1 8.5,43.2969 " fill="none" style="stroke:#000000;stroke-width:1.5;"/><line style="stroke:#000000;stroke-width:1.5;" x1="6" x2="181" y1="65.5938" y2="65.5938"/><text fill="#000000" font-family="sans-serif" font-size="14" font-weight="bold" lengthAdjust="spacing" textLength="162" x="10" y="58.292">SPA GraphML Editor</text></g><!--entity Development Environment Setup--><g id="elem_Development Environment Setup"><path d="M25,78.2969 L66,78.2969 A3.75,3.75 0 0 1 68.5,80.7969 L75.5,99.2969 L293,99.2969 A2.5,2.5 0 0 1 295.5,101.7969 L295.5,130.0938 A2.5,2.5 0 0 1 293,132.5938 L25,132.5938 A2.5,2.5 0 0 1 22.5,130.0938 L22.5,80.7969 A2.5,2.5 0 0 1 25,78.2969 " fill="#F1F1F1" style="stroke:#181818;stroke-width:0.5;"/><line style="stroke:#181818;stroke-width:0.5;" x1="22.5" x2="75.5" y1="99.2969" y2="99.2969"/><text fill="#000000" font-family="sans-serif" font-size="14" lengthAdjust="spacing" textLength="243" x="32.5" y="119.292">Development Environment Setup</text></g><!--entity Web Application--><g id="elem_Web Application"><path d="M86.5,192.2969 L127.5,192.2969 A3.75,3.75 0 0 1 130,194.7969 L137,213.2969 L231.5,213.2969 A2.5,2.5 0 0 1 234,215.7969 L234,244.0938 A2.5,2.5 0 0 1 231.5,246.5938 L86.5,246.5938 A2.5,2.5 0 0 1 84,244.0938 L84,194.7969 A2.5,2.5 0 0 1 86.5,192.2969 " fill="#F1F1F1" style="stroke:#181818;stroke-width:0.5;"/><line style="stroke:#181818;stroke-width:0.5;" x1="84" x2="137" y1="213.2969" y2="213.2969"/><text fill="#000000" font-family="sans-serif" font-size="14" lengthAdjust="spacing" textLength="120" x="94" y="233.292">Web Application</text></g><!--entity Data Management--><g id="elem_Data Management"><path d="M80.5,306.2969 L121.5,306.2969 A3.75,3.75 0 0 1 124,308.7969 L131,327.2969 L237.5,327.2969 A2.5,2.5 0 0 1 240,329.7969 L240,358.0938 A2.5,2.5 0 0 1 237.5,360.5938 L80.5,360.5938 A2.5,2.5 0 0 1 78,358.0938 L78,308.7969 A2.5,2.5 0 0 1 80.5,306.2969 " fill="#F1F1F1" style="stroke:#181818;stroke-width:0.5;"/><line style="stroke:#181818;stroke-width:0.5;" x1="78" x2="131" y1="327.2969" y2="327.2969"/><text fill="#000000" font-family="sans-serif" font-size="14" lengthAdjust="spacing" textLength="132" x="88" y="347.292">Data Management</text></g><!--entity GraphML Export--><g id="elem_GraphML Export"><path d="M88,420.2969 L129,420.2969 A3.75,3.75 0 0 1 131.5,422.7969 L138.5,441.2969 L230,441.2969 A2.5,2.5 0 0 1 232.5,443.7969 L232.5,472.0938 A2.5,2.5 0 0 1 230,474.5938 L88,474.5938 A2.5,2.5 0 0 1 85.5,472.0938 L85.5,422.7969 A2.5,2.5 0 0 1 88,420.2969 " fill="#F1F1F1" style="stroke:#181818;stroke-width:0.5;"/><line style="stroke:#181818;stroke-width:0.5;" x1="85.5" x2="138.5" y1="441.2969" y2="441.2969"/><text fill="#000000" font-family="sans-serif" font-size="14" lengthAdjust="spacing" textLength="117" x="95.5" y="461.292">GraphML Export</text></g><!--entity GraphML Import (MVCR+3)--><g id="elem_GraphML Import (MVCR+3)"><path d="M49.5,534.2969 L90.5,534.2969 A3.75,3.75 0 0 1 93,536.7969 L100,555.2969 L268.5,555.2969 A2.5,2.5 0 0 1 271,557.7969 L271,586.0938 A2.5,2.5 0 0 1 268.5,588.5938 L49.5,588.5938 A2.5,2.5 0 0 1 47,586.0938 L47,536.7969 A2.5,2.5 0 0 1 49.5,534.2969 " fill="#F1F1F1" style="stroke:#181818;stroke-width:0.5;"/><line style="stroke:#181818;stroke-width:0.5;" x1="47" x2="100" y1="555.2969" y2="555.2969"/><text fill="#000000" font-family="sans-serif" font-size="14" lengthAdjust="spacing" textLength="194" x="57" y="575.292">GraphML Import (MVCR+3)</text></g><!--entity Visualization (MVCR+2)--><g id="elem_Visualization (MVCR+2)"><path d="M64,648.2969 L105,648.2969 A3.75,3.75 0 0 1 107.5,650.7969 L114.5,669.2969 L254,669.2969 A2.5,2.5 0 0 1 256.5,671.7969 L256.5,700.0938 A2.5,2.5 0 0 1 254,702.5938 L64,702.5938 A2.5,2.5 0 0 1 61.5,700.0938 L61.5,650.7969 A2.5,2.5 0 0 1 64,648.2969 " fill="#F1F1F1" style="stroke:#181818;stroke-width:0.5;"/><line style="stroke:#181818;stroke-width:0.5;" x1="61.5" x2="114.5" y1="669.2969" y2="669.2969"/><text fill="#000000" font-family="sans-serif" font-size="14" lengthAdjust="spacing" textLength="165" x="71.5" y="689.292">Visualization (MVCR+2)</text></g><!--entity UI Navigation (MVCR+2.5)--><g id="elem_UI Navigation (MVCR+2.5)"><path d="M55.5,762.2969 L96.5,762.2969 A3.75,3.75 0 0 1 99,764.7969 L106,783.2969 L262.5,783.2969 A2.5,2.5 0 0 1 265,785.7969 L265,814.0938 A2.5,2.5 0 0 1 262.5,816.5938 L55.5,816.5938 A2.5,2.5 0 0 1 53,814.0938 L53,764.7969 A2.5,2.5 0 0 1 55.5,762.2969 " fill="#F1F1F1" style="stroke:#181818;stroke-width:0.5;"/><line style="stroke:#181818;stroke-width:0.5;" x1="53" x2="106" y1="783.2969" y2="783.2969"/><text fill="#000000" font-family="sans-serif" font-size="14" lengthAdjust="spacing" textLength="182" x="63" y="803.292">UI Navigation (MVCR+2.5)</text></g><!--link Development Environment Setup to Web Application--><g id="link_Development Environment Setup_Web Application"><path d="M159,132.5559 C159,148.8449 159,190.8639 159,208.0139 " fill="none" id="Development Environment Setup-to-Web Application" style="stroke:#181818;stroke-width:1.0;"/><polygon fill="#181818" points="159,213.2019,163,204.2019,159,208.2019,155,204.2019,159,213.2019" style="stroke:#181818;stroke-width:1.0;"/></g><!--link Web Application to Data Management--><g id="link_Web Application_Data Management"><path d="M159,246.5559 C159,262.8449 159,304.8639 159,322.0139 " fill="none" id="Web Application-to-Data Management" style="stroke:#181818;stroke-width:1.0;"/><polygon fill="#181818" points="159,327.2019,163,318.2019,159,322.2019,155,318.2019,159,327.2019" style="stroke:#181818;stroke-width:1.0;"/></g><!--link Data Management to GraphML Export--><g id="link_Data Management_GraphML Export"><path d="M159,360.5559 C159,376.8449 159,418.8639 159,436.0139 " fill="none" id="Data Management-to-GraphML Export" style="stroke:#181818;stroke-width:1.0;"/><polygon fill="#181818" points="159,441.2019,163,432.2019,159,436.2019,155,432.2019,159,441.2019" style="stroke:#181818;stroke-width:1.0;"/></g><!--link GraphML Export to GraphML Import (MVCR+3)--><g id="link_GraphML Export_GraphML Import (MVCR+3)"><path d="M159,474.5559 C159,490.8449 159,532.8639 159,550.0139 " fill="none" id="GraphML Export-to-GraphML Import (MVCR+3)" style="stroke:#181818;stroke-width:1.0;"/><polygon fill="#181818" points="159,555.2019,163,546.2019,159,550.2019,155,546.2019,159,555.2019" style="stroke:#181818;stroke-width:1.0;"/></g><!--link GraphML Import (MVCR+3) to Visualization (MVCR+2)--><g id="link_GraphML Import (MVCR+3)_Visualization (MVCR+2)"><path d="M159,588.5559 C159,604.8449 159,646.8639 159,664.0139 " fill="none" id="GraphML Import (MVCR+3)-to-Visualization (MVCR+2)" style="stroke:#181818;stroke-width:1.0;"/><polygon fill="#181818" points="159,669.2019,163,660.2019,159,664.2019,155,660.2019,159,669.2019" style="stroke:#181818;stroke-width:1.0;"/></g><!--link Visualization (MVCR+2) to UI Navigation (MVCR+2.5)--><g id="link_Visualization (MVCR+2)_UI Navigation (MVCR+2.5)"><path d="M159,702.5559 C159,718.8449 159,760.8639 159,778.0138 " fill="none" id="Visualization (MVCR+2)-to-UI Navigation (MVCR+2.5)" style="stroke:#181818;stroke-width:1.0;"/><polygon fill="#181818" points="159,783.2024,163,774.2024,159,778.2024,155,774.2024,159,783.2024" style="stroke:#181818;stroke-width:1.0;"/></g><!--SRC=[RP9HJy8m58NV-oikVT8OVD3uQbAamIQiB1iCuijIMS76qJQpeD7utnsmmLhfKzFptPjppssla2kb9GnfbbEUiMJ28ygdW8To9qjZDr8xe7gdAgCFzrIwhSMerzJDwI0dSGnuBb-1M5kgfN3Aw3Cn95EIHuIJ4Mqw2oSW4bgivRxZcHmb97wEnZbTn9Ea1aULi6_H6EYNDTK5ZaK-npPx3gwYx2cvkRy-5sGidP4nUo5JDk60C_Mn5QNwFXXjyBiEFcCv9ndW6GCkTchjSRSFDOcSSgM4D2PmCbaePohemtoG8cJ5yhsU3_1_1CCFWlgiJ5d8AWo-ApNPUhGVPbVoqxka7FFgAbumNU4O0Vf5AFmO_S9ywlxZoLpx0Thtq66u_fOBx0Qx3wd6Uh3vblB7yBVTCiU9_W00]--></g></svg>