<?xml version="1.0" encoding="us-ascii" standalone="no"?><svg xmlns="http://www.w3.org/2000/svg" xmlns:xlink="http://www.w3.org/1999/xlink" contentStyleType="text/css" height="1066px" preserveAspectRatio="none" style="width:1035px;height:1066px;background:#FFFFFF;" version="1.1" viewBox="0 0 1035 1066" width="1035px" zoomAndPan="magnify"><defs/><g><!--cluster SPA GraphML Editor--><g id="cluster_SPA GraphML Editor"><polygon fill="none" points="16,6,184,6,191,28.2969,1018.0028,28.2969,1018.0028,1059,16,1059,16,6" style="stroke:#000000;stroke-width:1.5;"/><line style="stroke:#000000;stroke-width:1.5;" x1="16" x2="191" y1="28.2969" y2="28.2969"/><text fill="#000000" font-family="sans-serif" font-size="14" font-weight="bold" lengthAdjust="spacing" textLength="162" x="20" y="20.9951">SPA GraphML Editor</text></g><!--cluster UI--><g id="cluster_UI"><polygon fill="none" points="97.9998,49,119.9998,49,126.9998,71.2969,469.9998,71.2969,469.9998,227,97.9998,227,97.9998,49" style="stroke:#000000;stroke-width:1.5;"/><line style="stroke:#000000;stroke-width:1.5;" x1="97.9998" x2="126.9998" y1="71.2969" y2="71.2969"/><text fill="#000000" font-family="sans-serif" font-size="14" font-weight="bold" lengthAdjust="spacing" textLength="16" x="101.9998" y="63.9951">UI</text></g><!--cluster Graph Editor--><g id="cluster_Graph Editor"><polygon fill="none" points="50,251,159,251,166,273.2969,500.9998,273.2969,500.9998,429,50,429,50,251" style="stroke:#000000;stroke-width:1.5;"/><line style="stroke:#000000;stroke-width:1.5;" x1="50" x2="166" y1="273.2969" y2="273.2969"/><text fill="#000000" font-family="sans-serif" font-size="14" font-weight="bold" lengthAdjust="spacing" textLength="103" x="54" y="265.9951">Graph Editor</text></g><!--cluster Graph Visualization--><g id="cluster_Graph Visualization"><polygon fill="none" points="40,453,207,453,214,475.2969,266.9998,475.2969,266.9998,631,40,631,40,453" style="stroke:#000000;stroke-width:1.5;"/><line style="stroke:#000000;stroke-width:1.5;" x1="40" x2="214" y1="475.2969" y2="475.2969"/><text fill="#000000" font-family="sans-serif" font-size="14" font-weight="bold" lengthAdjust="spacing" textLength="161" x="44" y="467.9951">Graph Visualization</text></g><!--cluster Data Management--><g id="cluster_Data Management"><polygon fill="none" points="528.9998,49,683.9998,49,690.9998,71.2969,994.0028,71.2969,994.0028,227,528.9998,227,528.9998,49" style="stroke:#000000;stroke-width:1.5;"/><line style="stroke:#000000;stroke-width:1.5;" x1="528.9998" x2="690.9998" y1="71.2969" y2="71.2969"/><text fill="#000000" font-family="sans-serif" font-size="14" font-weight="bold" lengthAdjust="spacing" textLength="149" x="532.9998" y="63.9951">Data Management</text></g><!--cluster Testing--><g id="cluster_Testing"><polygon fill="none" points="55.4998,655,123.4998,655,130.4998,677.2969,251.4998,677.2969,251.4998,833,55.4998,833,55.4998,655" style="stroke:#000000;stroke-width:1.5;"/><line style="stroke:#000000;stroke-width:1.5;" x1="55.4998" x2="130.4998" y1="677.2969" y2="677.2969"/><text fill="#000000" font-family="sans-serif" font-size="14" font-weight="bold" lengthAdjust="spacing" textLength="62" x="59.4998" y="669.9951">Testing</text></g><!--cluster Documentation--><g id="cluster_Documentation"><polygon fill="none" points="57.4998,857,188.4998,857,195.4998,879.2969,249.4998,879.2969,249.4998,1035,57.4998,1035,57.4998,857" style="stroke:#000000;stroke-width:1.5;"/><line style="stroke:#000000;stroke-width:1.5;" x1="57.4998" x2="195.4998" y1="879.2969" y2="879.2969"/><text fill="#000000" font-family="sans-serif" font-size="14" font-weight="bold" lengthAdjust="spacing" textLength="125" x="61.4998" y="871.9951">Documentation</text></g><!--entity HTML--><g id="elem_HTML"><rect fill="#F1F1F1" height="46.2969" rx="2.5" ry="2.5" style="stroke:#181818;stroke-width:0.5;" width="79" x="113.9998" y="165"/><rect fill="#F1F1F1" height="10" style="stroke:#181818;stroke-width:0.5;" width="15" x="172.9998" y="170"/><rect fill="#F1F1F1" height="2" style="stroke:#181818;stroke-width:0.5;" width="4" x="170.9998" y="172"/><rect fill="#F1F1F1" height="2" style="stroke:#181818;stroke-width:0.5;" width="4" x="170.9998" y="176"/><text fill="#000000" font-family="sans-serif" font-size="14" lengthAdjust="spacing" textLength="39" x="128.9998" y="197.9951">HTML</text></g><!--entity CSS--><g id="elem_CSS"><rect fill="#F1F1F1" height="46.2969" rx="2.5" ry="2.5" style="stroke:#181818;stroke-width:0.5;" width="68" x="119.4998" y="84"/><rect fill="#F1F1F1" height="10" style="stroke:#181818;stroke-width:0.5;" width="15" x="167.4998" y="89"/><rect fill="#F1F1F1" height="2" style="stroke:#181818;stroke-width:0.5;" width="4" x="165.4998" y="91"/><rect fill="#F1F1F1" height="2" style="stroke:#181818;stroke-width:0.5;" width="4" x="165.4998" y="95"/><text fill="#000000" font-family="sans-serif" font-size="14" lengthAdjust="spacing" textLength="28" x="134.4998" y="116.9951">CSS</text></g><!--entity JavaScript--><g id="elem_JavaScript"><rect fill="#F1F1F1" height="46.2969" rx="2.5" ry="2.5" style="stroke:#181818;stroke-width:0.5;" width="112" x="341.9998" y="165"/><rect fill="#F1F1F1" height="10" style="stroke:#181818;stroke-width:0.5;" width="15" x="433.9998" y="170"/><rect fill="#F1F1F1" height="2" style="stroke:#181818;stroke-width:0.5;" width="4" x="431.9998" y="172"/><rect fill="#F1F1F1" height="2" style="stroke:#181818;stroke-width:0.5;" width="4" x="431.9998" y="176"/><text fill="#000000" font-family="sans-serif" font-size="14" lengthAdjust="spacing" textLength="72" x="356.9998" y="197.9951">JavaScript</text></g><!--entity Graph Editor Core--><g id="elem_Graph Editor Core"><rect fill="#F1F1F1" height="46.2969" rx="2.5" ry="2.5" style="stroke:#181818;stroke-width:0.5;" width="170" x="68.4998" y="367"/><rect fill="#F1F1F1" height="10" style="stroke:#181818;stroke-width:0.5;" width="15" x="218.4998" y="372"/><rect fill="#F1F1F1" height="2" style="stroke:#181818;stroke-width:0.5;" width="4" x="216.4998" y="374"/><rect fill="#F1F1F1" height="2" style="stroke:#181818;stroke-width:0.5;" width="4" x="216.4998" y="378"/><text fill="#000000" font-family="sans-serif" font-size="14" lengthAdjust="spacing" textLength="130" x="83.4998" y="399.9951">Graph Editor Core</text></g><!--entity Node Management--><g id="elem_Node Management"><rect fill="#F1F1F1" height="46.2969" rx="2.5" ry="2.5" style="stroke:#181818;stroke-width:0.5;" width="175" x="65.9998" y="286"/><rect fill="#F1F1F1" height="10" style="stroke:#181818;stroke-width:0.5;" width="15" x="220.9998" y="291"/><rect fill="#F1F1F1" height="2" style="stroke:#181818;stroke-width:0.5;" width="4" x="218.9998" y="293"/><rect fill="#F1F1F1" height="2" style="stroke:#181818;stroke-width:0.5;" width="4" x="218.9998" y="297"/><text fill="#000000" font-family="sans-serif" font-size="14" lengthAdjust="spacing" textLength="135" x="80.9998" y="318.9951">Node Management</text></g><!--entity Edge Management--><g id="elem_Edge Management"><rect fill="#F1F1F1" height="46.2969" rx="2.5" ry="2.5" style="stroke:#181818;stroke-width:0.5;" width="174" x="310.9998" y="367"/><rect fill="#F1F1F1" height="10" style="stroke:#181818;stroke-width:0.5;" width="15" x="464.9998" y="372"/><rect fill="#F1F1F1" height="2" style="stroke:#181818;stroke-width:0.5;" width="4" x="462.9998" y="374"/><rect fill="#F1F1F1" height="2" style="stroke:#181818;stroke-width:0.5;" width="4" x="462.9998" y="378"/><text fill="#000000" font-family="sans-serif" font-size="14" lengthAdjust="spacing" textLength="134" x="325.9998" y="399.9951">Edge Management</text></g><!--entity D3.js Library--><g id="elem_D3.js Library"><rect fill="#F1F1F1" height="46.2969" rx="2.5" ry="2.5" style="stroke:#181818;stroke-width:0.5;" width="130" x="88.4998" y="488"/><rect fill="#F1F1F1" height="10" style="stroke:#181818;stroke-width:0.5;" width="15" x="198.4998" y="493"/><rect fill="#F1F1F1" height="2" style="stroke:#181818;stroke-width:0.5;" width="4" x="196.4998" y="495"/><rect fill="#F1F1F1" height="2" style="stroke:#181818;stroke-width:0.5;" width="4" x="196.4998" y="499"/><text fill="#000000" font-family="sans-serif" font-size="14" lengthAdjust="spacing" textLength="90" x="103.4998" y="520.9951">D3.js Library</text></g><!--entity Visualization Controls--><g id="elem_Visualization Controls"><rect fill="#F1F1F1" height="46.2969" rx="2.5" ry="2.5" style="stroke:#181818;stroke-width:0.5;" width="195" x="55.9998" y="569"/><rect fill="#F1F1F1" height="10" style="stroke:#181818;stroke-width:0.5;" width="15" x="230.9998" y="574"/><rect fill="#F1F1F1" height="2" style="stroke:#181818;stroke-width:0.5;" width="4" x="228.9998" y="576"/><rect fill="#F1F1F1" height="2" style="stroke:#181818;stroke-width:0.5;" width="4" x="228.9998" y="580"/><text fill="#000000" font-family="sans-serif" font-size="14" lengthAdjust="spacing" textLength="155" x="70.9998" y="601.9951">Visualization Controls</text></g><!--entity Data Import/Export--><g id="elem_Data Import/Export"><rect fill="#F1F1F1" height="46.2969" rx="2.5" ry="2.5" style="stroke:#181818;stroke-width:0.5;" width="182" x="549.4998" y="165"/><rect fill="#F1F1F1" height="10" style="stroke:#181818;stroke-width:0.5;" width="15" x="711.4998" y="170"/><rect fill="#F1F1F1" height="2" style="stroke:#181818;stroke-width:0.5;" width="4" x="709.4998" y="172"/><rect fill="#F1F1F1" height="2" style="stroke:#181818;stroke-width:0.5;" width="4" x="709.4998" y="176"/><text fill="#000000" font-family="sans-serif" font-size="14" lengthAdjust="spacing" textLength="142" x="564.4998" y="197.9951">Data Import/Export</text></g><!--entity GraphML/GXL Export--><g id="elem_GraphML/GXL Export"><rect fill="#F1F1F1" height="46.2969" rx="2.5" ry="2.5" style="stroke:#181818;stroke-width:0.5;" width="191" x="544.9998" y="84"/><rect fill="#F1F1F1" height="10" style="stroke:#181818;stroke-width:0.5;" width="15" x="715.9998" y="89"/><rect fill="#F1F1F1" height="2" style="stroke:#181818;stroke-width:0.5;" width="4" x="713.9998" y="91"/><rect fill="#F1F1F1" height="2" style="stroke:#181818;stroke-width:0.5;" width="4" x="713.9998" y="95"/><text fill="#000000" font-family="sans-serif" font-size="14" lengthAdjust="spacing" textLength="151" x="559.9998" y="116.9951">GraphML/GXL Export</text></g><!--entity JSON Export/Import--><g id="elem_JSON Export/Import"><rect fill="#F1F1F1" height="46.2969" rx="2.5" ry="2.5" style="stroke:#181818;stroke-width:0.5;" width="182" x="795.9998" y="165"/><rect fill="#F1F1F1" height="10" style="stroke:#181818;stroke-width:0.5;" width="15" x="957.9998" y="170"/><rect fill="#F1F1F1" height="2" style="stroke:#181818;stroke-width:0.5;" width="4" x="955.9998" y="172"/><rect fill="#F1F1F1" height="2" style="stroke:#181818;stroke-width:0.5;" width="4" x="955.9998" y="176"/><text fill="#000000" font-family="sans-serif" font-size="14" lengthAdjust="spacing" textLength="142" x="810.9998" y="197.9951">JSON Export/Import</text></g><!--entity Unit Tests--><g id="elem_Unit Tests"><rect fill="#F1F1F1" height="46.2969" rx="2.5" ry="2.5" style="stroke:#181818;stroke-width:0.5;" width="112" x="97.4998" y="690"/><rect fill="#F1F1F1" height="10" style="stroke:#181818;stroke-width:0.5;" width="15" x="189.4998" y="695"/><rect fill="#F1F1F1" height="2" style="stroke:#181818;stroke-width:0.5;" width="4" x="187.4998" y="697"/><rect fill="#F1F1F1" height="2" style="stroke:#181818;stroke-width:0.5;" width="4" x="187.4998" y="701"/><text fill="#000000" font-family="sans-serif" font-size="14" lengthAdjust="spacing" textLength="72" x="112.4998" y="722.9951">Unit Tests</text></g><!--entity Integration Tests--><g id="elem_Integration Tests"><rect fill="#F1F1F1" height="46.2969" rx="2.5" ry="2.5" style="stroke:#181818;stroke-width:0.5;" width="164" x="71.4998" y="771"/><rect fill="#F1F1F1" height="10" style="stroke:#181818;stroke-width:0.5;" width="15" x="215.4998" y="776"/><rect fill="#F1F1F1" height="2" style="stroke:#181818;stroke-width:0.5;" width="4" x="213.4998" y="778"/><rect fill="#F1F1F1" height="2" style="stroke:#181818;stroke-width:0.5;" width="4" x="213.4998" y="782"/><text fill="#000000" font-family="sans-serif" font-size="14" lengthAdjust="spacing" textLength="124" x="86.4998" y="803.9951">Integration Tests</text></g><!--entity User Manual--><g id="elem_User Manual"><rect fill="#F1F1F1" height="46.2969" rx="2.5" ry="2.5" style="stroke:#181818;stroke-width:0.5;" width="124" x="91.4998" y="892"/><rect fill="#F1F1F1" height="10" style="stroke:#181818;stroke-width:0.5;" width="15" x="195.4998" y="897"/><rect fill="#F1F1F1" height="2" style="stroke:#181818;stroke-width:0.5;" width="4" x="193.4998" y="899"/><rect fill="#F1F1F1" height="2" style="stroke:#181818;stroke-width:0.5;" width="4" x="193.4998" y="903"/><text fill="#000000" font-family="sans-serif" font-size="14" lengthAdjust="spacing" textLength="84" x="106.4998" y="924.9951">User Manual</text></g><!--entity Developer Guide--><g id="elem_Developer Guide"><rect fill="#F1F1F1" height="46.2969" rx="2.5" ry="2.5" style="stroke:#181818;stroke-width:0.5;" width="160" x="73.4998" y="973"/><rect fill="#F1F1F1" height="10" style="stroke:#181818;stroke-width:0.5;" width="15" x="213.4998" y="978"/><rect fill="#F1F1F1" height="2" style="stroke:#181818;stroke-width:0.5;" width="4" x="211.4998" y="980"/><rect fill="#F1F1F1" height="2" style="stroke:#181818;stroke-width:0.5;" width="4" x="211.4998" y="984"/><text fill="#000000" font-family="sans-serif" font-size="14" lengthAdjust="spacing" textLength="120" x="88.4998" y="1005.9951">Developer Guide</text></g><!--SRC=[PP3HRi8m34NV-nKM7p0UzWKJL0pKiacbqwIA1wyrRKQQL8xBnYR-VGamqOgNHBdnFRwsffs0M61LDmALOYf5MHD5RgzCXumjE3bgyYUhKlfM3tvQQspPi6q9X7iQUXgix9SoDUnGEugY3iizrWIJxFK95enTaoOGLqeiJ-3tzfqlmxDutgJ9DYfcMURF5HumArbrierEjz8pPS0eXWBCB9Fthcr5aABnZfQC1nHnLO-LE-IRSZrgzODX4sVo_F7Xqq6YFXZvw1cZ2j_A25ljHgWv2WxQN311MxQTPPd6t-7QNbEdoNJnxXVoBwwob_NrDRqOHl0DEV7BFKDpemI2uFiNIoDKyoNMLHjcicKVmjm6onrnIEcdyUuv7KZRpakBNbKKlAS_]--></g></svg>