<?xml version="1.0" encoding="us-ascii" standalone="no"?><svg xmlns="http://www.w3.org/2000/svg" xmlns:xlink="http://www.w3.org/1999/xlink" contentStyleType="text/css" height="1172px" preserveAspectRatio="none" style="width:478px;height:1172px;background:#FFFFFF;" version="1.1" viewBox="0 0 478 1172" width="478px" zoomAndPan="magnify"><defs/><g><text fill="#000000" font-family="sans-serif" font-size="14" font-weight="bold" lengthAdjust="spacing" textLength="182" x="141.2099" y="22.9951">Online GraphML Editor</text><!--entity DS--><g id="elem_DS"><ellipse cx="58" cy="474.2969" fill="#F1F1F1" rx="8" ry="8" style="stroke:#181818;stroke-width:0.5;"/><path d="M58,482.2969 L58,509.2969 M45,490.2969 L71,490.2969 M58,509.2969 L45,524.2969 M58,509.2969 L71,524.2969 " fill="none" style="stroke:#181818;stroke-width:0.5;"/><text fill="#000000" font-family="sans-serif" font-size="14" lengthAdjust="spacing" textLength="104" x="6" y="538.792">DataSpecialist</text></g><!--entity UC--><g id="elem_UC"><ellipse cx="58" cy="585.2969" fill="#F1F1F1" rx="8" ry="8" style="stroke:#181818;stroke-width:0.5;"/><path d="M58,593.2969 L58,620.2969 M45,601.2969 L71,601.2969 M58,620.2969 L45,635.2969 M58,620.2969 L71,635.2969 " fill="none" style="stroke:#181818;stroke-width:0.5;"/><text fill="#000000" font-family="sans-serif" font-size="14" lengthAdjust="spacing" textLength="86" x="15" y="649.792">UserCreator</text></g><g id="elem_EnterGraphs"><ellipse cx="321.0634" cy="521.7096" fill="#F1F1F1" rx="70.0634" ry="16.4127" style="stroke:#181818;stroke-width:0.5;"/><text fill="#000000" font-family="sans-serif" font-size="14" lengthAdjust="spacing" textLength="93" x="271.5634" y="525.4571">Enter graphs</text></g><g id="elem_SeeGraphs"><ellipse cx="320.8822" cy="595.8733" fill="#F1F1F1" rx="100.8822" ry="22.5764" style="stroke:#181818;stroke-width:0.5;"/><text fill="#000000" font-family="sans-serif" font-size="14" lengthAdjust="spacing" textLength="166" x="237.8822" y="598.72">See graphs in real time</text></g><g id="elem_EditGraphObjects"><ellipse cx="320.9443" cy="677.9857" fill="#F1F1F1" rx="111.4443" ry="24.6889" style="stroke:#181818;stroke-width:0.5;"/><text fill="#000000" font-family="sans-serif" font-size="14" lengthAdjust="spacing" textLength="189" x="226.4443" y="680.8324">Edit/update graph objects</text></g><g id="elem_SaveProgress"><ellipse cx="320.8591" cy="758.9687" fill="#F1F1F1" rx="96.3591" ry="21.6718" style="stroke:#181818;stroke-width:0.5;"/><text fill="#000000" font-family="sans-serif" font-size="14" lengthAdjust="spacing" textLength="156" x="242.8591" y="761.8154">Save editing progress</text></g><g id="elem_PrepareGraphML"><ellipse cx="320.8513" cy="845.5671" fill="#F1F1F1" rx="136.8513" ry="29.7703" style="stroke:#181818;stroke-width:0.5;"/><text fill="#000000" font-family="sans-serif" font-size="14" lengthAdjust="spacing" textLength="243" x="199.3513" y="848.4138">GraphML file prep of XML outputs</text></g><g id="elem_DataEntry"><ellipse cx="320.8479" cy="942.7665" fill="#F1F1F1" rx="147.8479" ry="31.9696" style="stroke:#181818;stroke-width:0.5;"/><text fill="#000000" font-family="sans-serif" font-size="14" lengthAdjust="spacing" textLength="266" x="187.8479" y="945.6131">Data entry of graph edges and nodes</text></g><g id="elem_EditGraphObjects2"><ellipse cx="321.0468" cy="1038.8062" fill="#F1F1F1" rx="133.0468" ry="29.0094" style="stroke:#181818;stroke-width:0.5;"/><text fill="#000000" font-family="sans-serif" font-size="14" lengthAdjust="spacing" textLength="235" x="203.5468" y="1041.6529">Editing of existing graph objects</text></g><g id="elem_RenderGraph"><ellipse cx="320.9716" cy="1134.6912" fill="#F1F1F1" rx="144.9716" ry="31.3943" style="stroke:#181818;stroke-width:0.5;"/><text fill="#000000" font-family="sans-serif" font-size="14" lengthAdjust="spacing" textLength="260" x="190.9716" y="1137.5379">Rendering of graph on the webpage</text></g><g id="elem_PrepareGraphMLContent"><ellipse cx="321.2099" cy="75.9389" fill="#F1F1F1" rx="151.2099" ry="32.642" style="stroke:#181818;stroke-width:0.5;"/><text fill="#000000" font-family="sans-serif" font-size="14" lengthAdjust="spacing" textLength="273" x="184.7099" y="78.7855">Preparation of .GraphML files content</text></g><g id="elem_AddNodes"><ellipse cx="321.0529" cy="160.0075" fill="#F1F1F1" rx="71.5529" ry="16.7106" style="stroke:#181818;stroke-width:0.5;"/><text fill="#000000" font-family="sans-serif" font-size="14" lengthAdjust="spacing" textLength="97" x="269.5529" y="163.755">Adding nodes</text></g><g id="elem_AddEdges"><ellipse cx="321.0529" cy="228.0075" fill="#F1F1F1" rx="71.5529" ry="16.7106" style="stroke:#181818;stroke-width:0.5;"/><text fill="#000000" font-family="sans-serif" font-size="14" lengthAdjust="spacing" textLength="97" x="269.5529" y="231.755">Adding edges</text></g><g id="elem_EditNodesAndEdges"><ellipse cx="320.9911" cy="302.6951" fill="#F1F1F1" rx="104.9911" ry="23.3982" style="stroke:#181818;stroke-width:0.5;"/><text fill="#000000" font-family="sans-serif" font-size="14" lengthAdjust="spacing" textLength="175" x="233.4911" y="305.5418">Editing nodes and edges</text></g><g id="elem_AutomatedSaving"><ellipse cx="320.8592" cy="380.6687" fill="#F1F1F1" rx="84.8592" ry="19.3718" style="stroke:#181818;stroke-width:0.5;"/><text fill="#000000" font-family="sans-serif" font-size="14" lengthAdjust="spacing" textLength="130" x="255.8592" y="383.5154">Automated saving</text></g><g id="elem_GraphMerging"><ellipse cx="320.7754" cy="452.8519" fill="#F1F1F1" rx="75.7754" ry="17.5551" style="stroke:#181818;stroke-width:0.5;"/><text fill="#000000" font-family="sans-serif" font-size="14" lengthAdjust="spacing" textLength="108" x="263.7754" y="456.5995">Graph merging</text></g><!--link DS to EnterGraphs--><g id="link_DS_EnterGraphs"><path d="M110.254,507.3319 C149.707,510.0529 204.714,513.8459 248.498,516.8659 " fill="none" id="DS-to-EnterGraphs" style="stroke:#181818;stroke-width:1.0;"/><polygon fill="#181818" points="253.508,517.2109,244.8048,512.6007,248.5199,516.8666,244.254,520.5817,253.508,517.2109" style="stroke:#181818;stroke-width:1.0;"/></g><!--link DS to SeeGraphs--><g id="link_DS_SeeGraphs"><path d="M110.146,530.0779 C128.694,538.9849 150.005,548.5129 170,555.7969 C193.878,564.4959 220.517,572.2129 244.642,578.4919 " fill="none" id="DS-to-SeeGraphs" style="stroke:#181818;stroke-width:1.0;"/><polygon fill="#181818" points="249.75,579.8099,242.034,573.6891,244.9084,578.5613,240.0363,581.4356,249.75,579.8099" style="stroke:#181818;stroke-width:1.0;"/></g><!--link DS to EditGraphObjects--><g id="link_DS_EditGraphObjects"><path d="M94.4785,542.0379 C99.7503,547.9259 105.0663,553.9809 110,559.7969 C137.839,592.6149 134.187,611.9339 170,635.7969 C187.012,647.1329 207.057,655.4359 226.859,661.5089 " fill="none" id="DS-to-EditGraphObjects" style="stroke:#181818;stroke-width:1.0;"/><polygon fill="#181818" points="231.887,663.0059,224.4033,656.6032,227.095,661.5786,222.1196,664.2703,231.887,663.0059" style="stroke:#181818;stroke-width:1.0;"/></g><!--link DS to SaveProgress--><g id="link_DS_SaveProgress"><path d="M97.2313,542.0569 C101.8856,547.7439 106.296,553.7389 110,559.7969 C149.615,624.5939 113.569,668.9699 170,719.7969 C185.826,734.0509 206.205,743.2189 226.809,749.0829 " fill="none" id="DS-to-SaveProgress" style="stroke:#181818;stroke-width:1.0;"/><polygon fill="#181818" points="231.767,750.4309,224.131,744.2106,226.942,749.1196,222.033,751.9307,231.767,750.4309" style="stroke:#181818;stroke-width:1.0;"/></g><!--link DS to PrepareGraphML--><g id="link_DS_PrepareGraphML"><path d="M98.1271,542.0079 C102.5846,547.6589 106.703,553.6569 110,559.7969 C161.611,655.9029 95.3212,718.2789 170,797.7969 C180.941,809.4469 194.706,818.2799 209.435,824.9739 " fill="none" id="DS-to-PrepareGraphML" style="stroke:#181818;stroke-width:1.0;"/><polygon fill="#181818" points="214.035,826.9839,207.3881,819.7162,209.4529,824.9828,204.1863,827.0476,214.035,826.9839" style="stroke:#181818;stroke-width:1.0;"/></g><!--link DS to DataEntry--><g id="link_DS_DataEntry"><path d="M98.5316,541.7989 C102.9247,547.4839 106.917,553.5469 110,559.7969 C176.716,695.0589 70.9599,780.0519 170,893.7969 C179.373,904.5619 191.144,912.9749 203.949,919.5469 " fill="none" id="DS-to-DataEntry" style="stroke:#181818;stroke-width:1.0;"/><polygon fill="#181818" points="208.711,921.8859,202.3958,914.3282,204.223,919.6819,198.8694,921.5091,208.711,921.8859" style="stroke:#181818;stroke-width:1.0;"/></g><!--link DS to EditGraphObjects2--><g id="link_DS_EditGraphObjects2"><path d="M99.0149,542.0079 C103.2717,547.6179 107.099,553.6049 110,559.7969 C192.436,735.7239 44.0294,844.8869 170,992.7969 C179.997,1004.5349 192.905,1013.3299 206.95,1019.9119 " fill="none" id="DS-to-EditGraphObjects2" style="stroke:#181818;stroke-width:1.0;"/><polygon fill="#181818" points="211.754,1022.0599,205.1714,1014.7339,207.1897,1020.0185,201.9052,1022.0367,211.754,1022.0599" style="stroke:#181818;stroke-width:1.0;"/></g><!--link DS to RenderGraph--><g id="link_DS_RenderGraph"><path d="M99.1575,541.9429 C103.391,547.5629 107.173,553.5709 110,559.7969 C158.63,666.9219 95.6302,994.6379 170,1085.7969 C179.177,1097.0459 190.983,1105.7375 203.935,1112.4483 " fill="none" id="DS-to-RenderGraph" style="stroke:#181818;stroke-width:1.0;"/><polygon fill="#181818" points="208.756,1114.8322,202.4607,1107.2579,204.2738,1112.6164,198.9154,1114.4295,208.756,1114.8322" style="stroke:#181818;stroke-width:1.0;"/></g><!--link DS to PrepareGraphMLContent--><g id="link_DS_PrepareGraphMLContent"><path d="M59.1415,465.7009 C61.5124,390.4329 77.5293,221.6699 170,125.7969 C180.187,115.2369 192.66,106.9069 206.021,100.3369 " fill="none" id="DS-to-PrepareGraphMLContent" style="stroke:#181818;stroke-width:1.0;"/><polygon fill="#181818" points="210.584,98.1669,200.7378,98.3956,206.0633,100.3031,204.1558,105.6287,210.584,98.1669" style="stroke:#181818;stroke-width:1.0;"/></g><!--link DS to AddNodes--><g id="link_DS_AddNodes"><path d="M61.2343,465.6699 C67.2235,399.9079 89.2318,265.3429 170,193.7969 C190.331,175.7869 218.188,166.7209 244.379,162.3369 " fill="none" id="DS-to-AddNodes" style="stroke:#181818;stroke-width:1.0;"/><polygon fill="#181818" points="249.592,161.5169,240.081,158.9594,244.6524,162.2915,241.3203,166.8629,249.592,161.5169" style="stroke:#181818;stroke-width:1.0;"/></g><!--link DS to AddEdges--><g id="link_DS_AddEdges"><path d="M65.65,465.4389 C77.0869,411.4799 105.7598,313.9399 170,261.7969 C191.089,244.6799 219.1,235.7969 245.204,231.3079 " fill="none" id="DS-to-AddEdges" style="stroke:#181818;stroke-width:1.0;"/><polygon fill="#181818" points="250.397,230.4679,240.873,227.9594,245.4614,231.2679,242.1529,235.8563,250.397,230.4679" style="stroke:#181818;stroke-width:1.0;"/></g><!--link DS to EditNodesAndEdges--><g id="link_DS_EditNodesAndEdges"><path d="M75.829,465.6599 C93.9219,429.0389 126.112,374.8349 170,343.7969 C187.141,331.6749 207.71,323.1339 228.042,317.1169 " fill="none" id="DS-to-EditNodesAndEdges" style="stroke:#181818;stroke-width:1.0;"/><polygon fill="#181818" points="232.925,315.7179,223.1714,314.3512,228.1184,317.0949,225.3746,322.0418,232.925,315.7179" style="stroke:#181818;stroke-width:1.0;"/></g><!--link DS to AutomatedSaving--><g id="link_DS_AutomatedSaving"><path d="M99.6993,465.5969 C119.583,448.7599 144.653,430.0569 170,417.7969 C193.429,406.4649 220.647,398.4079 245.416,392.7709 " fill="none" id="DS-to-AutomatedSaving" style="stroke:#181818;stroke-width:1.0;"/><polygon fill="#181818" points="250.335,391.6749,240.6806,389.7276,245.4546,392.7621,242.4201,397.5362,250.335,391.6749" style="stroke:#181818;stroke-width:1.0;"/></g><!--link DS to GraphMerging--><g id="link_DS_GraphMerging"><path d="M110.254,493.7819 C152.423,485.5419 212.361,473.8299 257.372,465.0349 " fill="none" id="DS-to-GraphMerging" style="stroke:#181818;stroke-width:1.0;"/><polygon fill="#181818" points="262.507,464.0309,252.9065,461.8332,257.6,464.9908,254.4424,469.6844,262.507,464.0309" style="stroke:#181818;stroke-width:1.0;"/></g><!--link UC to EnterGraphs--><g id="link_UC_EnterGraphs"><path d="M101.2524,588.9219 C121.469,577.4429 146.371,564.5759 170,555.7969 C198.041,545.3789 230.265,537.5679 257.641,532.0769 " fill="none" id="UC-to-EnterGraphs" style="stroke:#181818;stroke-width:1.0;"/><polygon fill="#181818" points="262.695,531.0789,253.09,528.9006,257.79,532.0487,254.6418,536.7487,262.695,531.0789" style="stroke:#181818;stroke-width:1.0;"/></g><!--link UC to SeeGraphs--><g id="link_UC_SeeGraphs"><path d="M101.2242,611.7229 C133.25,609.3919 178.628,606.0879 219.761,603.0939 " fill="none" id="UC-to-SeeGraphs" style="stroke:#181818;stroke-width:1.0;"/><polygon fill="#181818" points="224.755,602.7309,215.4875,599.3972,219.7683,603.0951,216.0703,607.3759,224.755,602.7309" style="stroke:#181818;stroke-width:1.0;"/></g><!--link UC to EditGraphObjects--><g id="link_UC_EditGraphObjects"><path d="M101.2242,624.9889 C138.67,634.0279 194.37,647.4719 240.195,658.5339 " fill="none" id="UC-to-EditGraphObjects" style="stroke:#181818;stroke-width:1.0;"/><polygon fill="#181818" points="245.164,659.7329,237.3552,653.731,240.3039,658.5586,235.4763,661.5072,245.164,659.7329" style="stroke:#181818;stroke-width:1.0;"/></g><!--link UC to SaveProgress--><g id="link_UC_SaveProgress"><path d="M90.3418,652.8919 C110.818,675.4399 139.372,702.8259 170,719.7969 C190.459,731.1329 214.318,739.2679 236.91,745.0679 " fill="none" id="UC-to-SaveProgress" style="stroke:#181818;stroke-width:1.0;"/><polygon fill="#181818" points="242.012,746.3439,234.2513,740.2799,237.1614,745.1309,232.3105,748.041,242.012,746.3439" style="stroke:#181818;stroke-width:1.0;"/></g><!--link UC to PrepareGraphML--><g id="link_UC_PrepareGraphML"><path d="M72.7021,652.9619 C89.4638,694.3929 121.707,759.7219 170,797.7969 C183.524,808.4589 199.473,816.7809 215.835,823.2679 " fill="none" id="UC-to-PrepareGraphML" style="stroke:#181818;stroke-width:1.0;"/><polygon fill="#181818" points="220.924,825.2219,213.9569,818.2605,216.2565,823.4289,211.0882,825.7285,220.924,825.2219" style="stroke:#181818;stroke-width:1.0;"/></g><!--link UC to DataEntry--><g id="link_UC_DataEntry"><path d="M63.8084,653.0099 C73.3244,712.7319 100.075,828.1379 170,893.7969 C181.035,904.1589 194.294,912.3299 208.304,918.7739 " fill="none" id="UC-to-DataEntry" style="stroke:#181818;stroke-width:1.0;"/><polygon fill="#181818" points="213.081,920.8939,206.4779,913.5864,208.511,918.8653,203.2321,920.8984,213.081,920.8939" style="stroke:#181818;stroke-width:1.0;"/></g><!--link UC to EditGraphObjects2--><g id="link_UC_EditGraphObjects2"><path d="M58.9436,653.0859 C60.9608,728.6989 76.3766,898.0489 170,992.7969 C181.278,1004.2099 195.308,1012.8069 210.226,1019.2779 " fill="none" id="UC-to-EditGraphObjects2" style="stroke:#181818;stroke-width:1.0;"/><polygon fill="#181818" points="214.882,1021.2189,208.1123,1014.0655,210.2665,1019.2961,205.0359,1021.4503,214.882,1021.2189" style="stroke:#181818;stroke-width:1.0;"/></g><!--link UC to RenderGraph--><g id="link_UC_RenderGraph"><path d="M63.1762,652.9219 C74.9014,753.3379 111.161,1021.7769 170,1085.7969 C180.077,1096.7609 192.637,1105.278 206.171,1111.8931 " fill="none" id="UC-to-RenderGraph" style="stroke:#181818;stroke-width:1.0;"/><polygon fill="#181818" points="210.796,1114.0643,204.3502,1106.6177,206.2703,1111.9387,200.9493,1113.8588,210.796,1114.0643" style="stroke:#181818;stroke-width:1.0;"/></g><!--link UC to PrepareGraphMLContent--><g id="link_UC_PrepareGraphMLContent"><path d="M99.5072,576.7009 C103.5673,571.3639 107.212,565.6809 110,559.7969 C193.386,383.8309 45.5695,275.5779 170,125.7969 C178.983,114.9869 190.375,106.4969 202.852,99.8369 " fill="none" id="UC-to-PrepareGraphMLContent" style="stroke:#181818;stroke-width:1.0;"/><polygon fill="#181818" points="207.495,97.4669,197.6603,97.9945,203.0413,99.7394,201.2963,105.1204,207.495,97.4669" style="stroke:#181818;stroke-width:1.0;"/></g><!--link UC to AddNodes--><g id="link_UC_AddNodes"><path d="M99.3642,576.6319 C103.4487,571.3069 107.138,565.6449 110,559.7969 C182.453,411.7359 57.0153,313.8219 170,193.7969 C189.039,173.5709 217.373,164.1669 244.304,160.1369 " fill="none" id="UC-to-AddNodes" style="stroke:#181818;stroke-width:1.0;"/><polygon fill="#181818" points="249.314,159.4369,239.8505,156.7088,244.3612,160.1225,240.9476,164.6333,249.314,159.4369" style="stroke:#181818;stroke-width:1.0;"/></g><!--link UC to AddEdges--><g id="link_UC_AddEdges"><path d="M99.1595,576.5299 C103.2792,571.2219 107.033,565.5929 110,559.7969 C171.569,439.5389 75.6318,358.4779 170,261.7969 C189.314,242.0089 217.547,232.6669 244.323,228.5569 " fill="none" id="UC-to-AddEdges" style="stroke:#181818;stroke-width:1.0;"/><polygon fill="#181818" points="249.303,227.8489,239.8301,225.1538,244.3527,228.5518,240.9547,233.0744,249.303,227.8489" style="stroke:#181818;stroke-width:1.0;"/></g><!--link UC to EditNodesAndEdges--><g id="link_UC_EditNodesAndEdges"><path d="M98.5049,576.6299 C102.7899,571.2659 106.762,565.5949 110,559.7969 C158.58,472.8079 99.4021,414.1039 170,343.7969 C183.931,329.9229 202.076,320.6249 220.909,314.4219 " fill="none" id="UC-to-EditNodesAndEdges" style="stroke:#181818;stroke-width:1.0;"/><polygon fill="#181818" points="225.71,312.9099,215.9243,311.7966,220.9407,314.4111,218.3262,319.4275,225.71,312.9099" style="stroke:#181818;stroke-width:1.0;"/></g><!--link UC to AutomatedSaving--><g id="link_UC_AutomatedSaving"><path d="M97.5405,576.5169 C102.0382,571.1299 106.325,565.4839 110,559.7969 C147.187,502.2539 117.883,462.2709 170,417.7969 C188.096,402.3549 211.657,393.1719 234.725,387.7639 " fill="none" id="UC-to-AutomatedSaving" style="stroke:#181818;stroke-width:1.0;"/><polygon fill="#181818" points="239.638,386.6669,229.9825,384.725,234.7582,387.7568,231.7264,392.5326,239.638,386.6669" style="stroke:#181818;stroke-width:1.0;"/></g><!--link UC to GraphMerging--><g id="link_UC_GraphMerging"><path d="M94.9297,576.5689 C100.036,570.9859 105.1849,565.2739 110,559.7969 C137.504,528.5139 134.546,509.6629 170,487.7969 C192.512,473.9129 220.019,465.5329 245.301,460.4759 " fill="none" id="UC-to-GraphMerging" style="stroke:#181818;stroke-width:1.0;"/><polygon fill="#181818" points="250.325,459.5079,240.7309,457.2823,245.4152,460.4535,242.244,465.1379,250.325,459.5079" style="stroke:#181818;stroke-width:1.0;"/></g><!--SRC=[TPBBRkCm34Nt_WeY-tQ0V4218WcwQQT5Wm3TgXRZQE18XYJtyVUb7fHbJxqJBoz9yKXU-HxXMVTA8pnOCLoU7k4WbJUswV7imHkmghjuaCfYwvNHJIDQIiDUU74Si5MYLyw3SB0_vjJ9eTrP5E5C-cdNDAF3LZY4W_Peuo0NKfiOGnU5JN4T4IiFHTa1IWFrxS6hAqxsSE7eVtx_HvVCdKdyCmvI-5mD9cMhCU83NwpfBBeyYGH0AbIwWo5d9l-BnK5OP4wXWizdHHm7oeCvmni9PlJ368QLwW2CrhNViJ14W36aYdH1b1tIHRG4RIIwzGMtPSDmKQh7Btg3S5xPz1MrpDnZQOfpSQxHu2y8d_W-Y0xNbjuPUZ0TdtkJCY9yYj3cjcRXe4tE2i2zb7_3Nh6OWZ1-iIYfXmHXiaGgSnQnpRsklCn2fm64C9TDhKTlhlGP93roSCO9h86BuZGbxOAsOsjYTqqAjTqVuURchlxFB9NFMpoBrol6wlknDgVDQlawQostdAWU-lUM-G4voMzInH5gFMX6knZdE5ckkJNDQVSVf2nDaDYpXCJ66bBM5f2oEa5QQRdbH0tfrvOCAISBf2bEBAf1SqXiN43ASWtf1m00]--></g></svg>