<?xml version="1.0" encoding="us-ascii" standalone="no"?><svg xmlns="http://www.w3.org/2000/svg" xmlns:xlink="http://www.w3.org/1999/xlink" contentStyleType="text/css" height="1159px" preserveAspectRatio="none" style="width:471px;height:1159px;background:#FFFFFF;" version="1.1" viewBox="0 0 471 1159" width="471px" zoomAndPan="magnify"><defs/><g><text fill="#000000" font-family="sans-serif" font-size="14" font-weight="bold" lengthAdjust="spacing" textLength="140" x="158.8479" y="22.9951">GXL Graph Editor</text><!--entity DS--><g id="elem_DS"><ellipse cx="58" cy="468.2969" fill="#F1F1F1" rx="8" ry="8" style="stroke:#181818;stroke-width:0.5;"/><path d="M58,476.2969 L58,503.2969 M45,484.2969 L71,484.2969 M58,503.2969 L45,518.2969 M58,503.2969 L71,518.2969 " fill="none" style="stroke:#181818;stroke-width:0.5;"/><text fill="#000000" font-family="sans-serif" font-size="14" lengthAdjust="spacing" textLength="104" x="6" y="532.792">DataSpecialist</text></g><!--entity UC--><g id="elem_UC"><ellipse cx="58" cy="579.2969" fill="#F1F1F1" rx="8" ry="8" style="stroke:#181818;stroke-width:0.5;"/><path d="M58,587.2969 L58,614.2969 M45,595.2969 L71,595.2969 M58,614.2969 L45,629.2969 M58,614.2969 L71,629.2969 " fill="none" style="stroke:#181818;stroke-width:0.5;"/><text fill="#000000" font-family="sans-serif" font-size="14" lengthAdjust="spacing" textLength="86" x="15" y="643.792">UserCreator</text></g><g id="elem_EnterGraphs"><ellipse cx="318.0634" cy="515.7096" fill="#F1F1F1" rx="70.0634" ry="16.4127" style="stroke:#181818;stroke-width:0.5;"/><text fill="#000000" font-family="sans-serif" font-size="14" lengthAdjust="spacing" textLength="93" x="268.5634" y="519.4571">Enter graphs</text></g><g id="elem_SeeGraphs"><ellipse cx="317.8822" cy="589.8733" fill="#F1F1F1" rx="100.8822" ry="22.5764" style="stroke:#181818;stroke-width:0.5;"/><text fill="#000000" font-family="sans-serif" font-size="14" lengthAdjust="spacing" textLength="166" x="234.8822" y="592.72">See graphs in real time</text></g><g id="elem_EditGraphObjects"><ellipse cx="317.9443" cy="671.9857" fill="#F1F1F1" rx="111.4443" ry="24.6889" style="stroke:#181818;stroke-width:0.5;"/><text fill="#000000" font-family="sans-serif" font-size="14" lengthAdjust="spacing" textLength="189" x="223.4443" y="674.8324">Edit/update graph objects</text></g><g id="elem_SaveProgress"><ellipse cx="317.8591" cy="752.9687" fill="#F1F1F1" rx="96.3591" ry="21.6718" style="stroke:#181818;stroke-width:0.5;"/><text fill="#000000" font-family="sans-serif" font-size="14" lengthAdjust="spacing" textLength="156" x="239.8591" y="755.8154">Save editing progress</text></g><g id="elem_PrepareGXL"><ellipse cx="317.8027" cy="835.7574" fill="#F1F1F1" rx="120.3027" ry="26.4605" style="stroke:#181818;stroke-width:0.5;"/><text fill="#000000" font-family="sans-serif" font-size="14" lengthAdjust="spacing" textLength="208" x="213.8027" y="838.6041">GXL file prep of XML outputs</text></g><g id="elem_DataEntry"><ellipse cx="317.8479" cy="929.7665" fill="#F1F1F1" rx="147.8479" ry="31.9696" style="stroke:#181818;stroke-width:0.5;"/><text fill="#000000" font-family="sans-serif" font-size="14" lengthAdjust="spacing" textLength="266" x="184.8479" y="932.6131">Data entry of graph edges and nodes</text></g><g id="elem_EditGraphObjects2"><ellipse cx="318.0468" cy="1025.8062" fill="#F1F1F1" rx="133.0468" ry="29.0094" style="stroke:#181818;stroke-width:0.5;"/><text fill="#000000" font-family="sans-serif" font-size="14" lengthAdjust="spacing" textLength="235" x="200.5468" y="1028.6529">Editing of existing graph objects</text></g><g id="elem_RenderGraph"><ellipse cx="317.9716" cy="1121.6912" fill="#F1F1F1" rx="144.9716" ry="31.3943" style="stroke:#181818;stroke-width:0.5;"/><text fill="#000000" font-family="sans-serif" font-size="14" lengthAdjust="spacing" textLength="260" x="187.9716" y="1124.5379">Rendering of graph on the webpage</text></g><g id="elem_PrepareGXLContent"><ellipse cx="317.9721" cy="72.5913" fill="#F1F1F1" rx="134.4721" ry="29.2944" style="stroke:#181818;stroke-width:0.5;"/><text fill="#000000" font-family="sans-serif" font-size="14" lengthAdjust="spacing" textLength="238" x="198.9721" y="75.438">Preparation of .GXL files content</text></g><g id="elem_AddNodes"><ellipse cx="318.0529" cy="154.0075" fill="#F1F1F1" rx="71.5529" ry="16.7106" style="stroke:#181818;stroke-width:0.5;"/><text fill="#000000" font-family="sans-serif" font-size="14" lengthAdjust="spacing" textLength="97" x="266.5529" y="157.755">Adding nodes</text></g><g id="elem_AddEdges"><ellipse cx="318.0529" cy="222.0075" fill="#F1F1F1" rx="71.5529" ry="16.7106" style="stroke:#181818;stroke-width:0.5;"/><text fill="#000000" font-family="sans-serif" font-size="14" lengthAdjust="spacing" textLength="97" x="266.5529" y="225.755">Adding edges</text></g><g id="elem_EditNodesAndEdges"><ellipse cx="317.9911" cy="296.6951" fill="#F1F1F1" rx="104.9911" ry="23.3982" style="stroke:#181818;stroke-width:0.5;"/><text fill="#000000" font-family="sans-serif" font-size="14" lengthAdjust="spacing" textLength="175" x="230.4911" y="299.5418">Editing nodes and edges</text></g><g id="elem_AutomatedSaving"><ellipse cx="317.8592" cy="374.6687" fill="#F1F1F1" rx="84.8592" ry="19.3718" style="stroke:#181818;stroke-width:0.5;"/><text fill="#000000" font-family="sans-serif" font-size="14" lengthAdjust="spacing" textLength="130" x="252.8592" y="377.5154">Automated saving</text></g><g id="elem_GraphMerging"><ellipse cx="317.7754" cy="446.8519" fill="#F1F1F1" rx="75.7754" ry="17.5551" style="stroke:#181818;stroke-width:0.5;"/><text fill="#000000" font-family="sans-serif" font-size="14" lengthAdjust="spacing" textLength="108" x="260.7754" y="450.5995">Graph merging</text></g><!--link DS to EnterGraphs--><g id="link_DS_EnterGraphs"><path d="M110.281,501.3749 C148.974,504.0739 202.539,507.8109 245.447,510.8049 " fill="none" id="DS-to-EnterGraphs" style="stroke:#181818;stroke-width:1.0;"/><polygon fill="#181818" points="250.625,511.1659,241.9244,506.5507,245.6371,510.8188,241.369,514.5314,250.625,511.1659" style="stroke:#181818;stroke-width:1.0;"/></g><!--link DS to SeeGraphs--><g id="link_DS_SeeGraphs"><path d="M110.166,524.0209 C128.716,532.9229 150.023,542.4619 170,549.7969 C193.295,558.3499 219.261,566.0069 242.81,572.2759 " fill="none" id="DS-to-SeeGraphs" style="stroke:#181818;stroke-width:1.0;"/><polygon fill="#181818" points="247.797,573.5919,240.1155,567.4279,242.9625,572.3161,238.0743,575.1631,247.797,573.5919" style="stroke:#181818;stroke-width:1.0;"/></g><!--link DS to EditGraphObjects--><g id="link_DS_EditGraphObjects"><path d="M94.4785,536.0379 C99.7503,541.9259 105.0663,547.9809 110,553.7969 C137.839,586.6149 134.25,605.8389 170,629.7969 C186.566,640.8989 206.07,649.1009 225.361,655.1509 " fill="none" id="DS-to-EditGraphObjects" style="stroke:#181818;stroke-width:1.0;"/><polygon fill="#181818" points="230.258,656.6429,222.8144,650.1936,225.475,655.1857,220.4829,657.8463,230.258,656.6429" style="stroke:#181818;stroke-width:1.0;"/></g><!--link DS to SaveProgress--><g id="link_DS_SaveProgress"><path d="M97.2313,536.0569 C101.8856,541.7439 106.296,547.7389 110,553.7969 C149.615,618.5939 113.695,662.8299 170,713.7969 C185.249,727.5999 204.828,736.6139 224.692,742.4749 " fill="none" id="DS-to-SaveProgress" style="stroke:#181818;stroke-width:1.0;"/><polygon fill="#181818" points="229.745,743.8979,222.1667,737.6075,224.9323,742.5422,219.9976,745.3078,229.745,743.8979" style="stroke:#181818;stroke-width:1.0;"/></g><!--link DS to PrepareGXL--><g id="link_DS_PrepareGXL"><path d="M98.1271,536.0079 C102.5846,541.6589 106.703,547.6569 110,553.7969 C161.611,649.9029 94.5743,712.9869 170,791.7969 C181.685,804.0059 196.605,812.8659 212.44,819.2869 " fill="none" id="DS-to-PrepareGXL" style="stroke:#181818;stroke-width:1.0;"/><polygon fill="#181818" points="217.381,821.2029,210.4354,814.2201,212.7191,819.3955,207.5437,821.6792,217.381,821.2029" style="stroke:#181818;stroke-width:1.0;"/></g><!--link DS to DataEntry--><g id="link_DS_DataEntry"><path d="M98.5064,535.8119 C102.9035,541.4939 106.904,547.5529 110,553.7969 C175.451,685.7819 73.6941,768.3109 170,879.7969 C179.338,890.6069 191.109,899.0839 203.906,905.7309 " fill="none" id="DS-to-DataEntry" style="stroke:#181818;stroke-width:1.0;"/><polygon fill="#181818" points="208.664,908.0979,202.3875,900.5081,204.1873,905.871,198.8244,907.6708,208.664,908.0979" style="stroke:#181818;stroke-width:1.0;"/></g><!--link DS to EditGraphObjects2--><g id="link_DS_EditGraphObjects2"><path d="M99.0017,536.0149 C103.2607,541.6229 107.092,547.6079 110,553.7969 C191.322,726.8429 46.2805,834.0169 170,979.7969 C179.716,991.2459 192.242,999.8849 205.879,1006.3969 " fill="none" id="DS-to-EditGraphObjects2" style="stroke:#181818;stroke-width:1.0;"/><polygon fill="#181818" points="210.543,1008.5239,204.014,1001.1501,205.9937,1006.4493,200.6946,1008.429,210.543,1008.5239" style="stroke:#181818;stroke-width:1.0;"/></g><!--link DS to RenderGraph--><g id="link_DS_RenderGraph"><path d="M99.1485,535.9469 C103.3835,541.5669 107.169,547.5729 110,553.7969 C206.144,765.1609 23.6188,892.5449 170,1072.7969 C178.911,1083.7701 190.358,1092.303 202.923,1098.9351 " fill="none" id="DS-to-RenderGraph" style="stroke:#181818;stroke-width:1.0;"/><polygon fill="#181818" points="207.6,1101.2935,201.3651,1093.6694,203.1355,1099.0421,197.7629,1100.8126,207.6,1101.2935" style="stroke:#181818;stroke-width:1.0;"/></g><!--link DS to PrepareGXLContent--><g id="link_DS_PrepareGXLContent"><path d="M59.0406,459.6029 C61.2313,384.1599 76.9417,215.0999 170,119.7969 C180.847,108.6869 194.316,100.1969 208.664,93.7169 " fill="none" id="DS-to-PrepareGXLContent" style="stroke:#181818;stroke-width:1.0;"/><polygon fill="#181818" points="213.561,91.5969,203.7125,91.5103,208.9743,93.5873,206.8972,98.8491,213.561,91.5969" style="stroke:#181818;stroke-width:1.0;"/></g><!--link DS to AddNodes--><g id="link_DS_AddNodes"><path d="M61.2669,459.7069 C67.3062,394.0019 89.3892,259.5209 170,187.7969 C189.631,170.3299 216.448,161.3319 241.805,156.8469 " fill="none" id="DS-to-AddNodes" style="stroke:#181818;stroke-width:1.0;"/><polygon fill="#181818" points="246.855,156.0089,237.3216,153.5362,241.9225,156.8274,238.6312,161.4282,246.855,156.0089" style="stroke:#181818;stroke-width:1.0;"/></g><!--link DS to AddEdges--><g id="link_DS_AddEdges"><path d="M65.6812,459.4769 C77.1559,405.5639 105.8746,308.0809 170,255.7969 C190.365,239.1929 217.341,230.3799 242.62,225.8029 " fill="none" id="DS-to-AddEdges" style="stroke:#181818;stroke-width:1.0;"/><polygon fill="#181818" points="247.651,224.9429,238.1062,222.5145,242.7223,225.7843,239.4525,230.4004,247.651,224.9429" style="stroke:#181818;stroke-width:1.0;"/></g><!--link DS to EditNodesAndEdges--><g id="link_DS_EditNodesAndEdges"><path d="M75.8637,459.7089 C93.9829,423.1249 126.192,368.9489 170,337.7969 C186.621,325.9779 206.537,317.5589 226.265,311.5649 " fill="none" id="DS-to-EditNodesAndEdges" style="stroke:#181818;stroke-width:1.0;"/><polygon fill="#181818" points="231.274,310.0929,221.5113,308.7932,226.4769,311.5029,223.7672,316.4685,231.274,310.0929" style="stroke:#181818;stroke-width:1.0;"/></g><!--link DS to AutomatedSaving--><g id="link_DS_AutomatedSaving"><path d="M99.7256,459.6509 C119.615,442.8259 144.682,424.1169 170,411.7969 C192.645,400.7779 218.9,392.8269 242.903,387.1899 " fill="none" id="DS-to-AutomatedSaving" style="stroke:#181818;stroke-width:1.0;"/><polygon fill="#181818" points="247.989,386.0219,238.3223,384.1362,243.1157,387.1402,240.1117,391.9336,247.989,386.0219" style="stroke:#181818;stroke-width:1.0;"/></g><!--link DS to GraphMerging--><g id="link_DS_GraphMerging"><path d="M110.281,487.6599 C151.741,479.4649 210.276,467.8939 254.48,459.1559 " fill="none" id="DS-to-GraphMerging" style="stroke:#181818;stroke-width:1.0;"/><polygon fill="#181818" points="259.526,458.1579,249.921,455.9796,254.621,459.1277,251.4728,463.8277,259.526,458.1579" style="stroke:#181818;stroke-width:1.0;"/></g><!--link UC to EnterGraphs--><g id="link_UC_EnterGraphs"><path d="M101.0075,583.1179 C121.275,571.6109 146.289,558.6659 170,549.7969 C197.37,539.5599 228.8,531.7879 255.555,526.2769 " fill="none" id="UC-to-EnterGraphs" style="stroke:#181818;stroke-width:1.0;"/><polygon fill="#181818" points="260.494,525.2749,250.8783,523.1445,255.5939,526.2692,252.4692,530.9847,260.494,525.2749" style="stroke:#181818;stroke-width:1.0;"/></g><!--link UC to SeeGraphs--><g id="link_UC_SeeGraphs"><path d="M101.0264,605.7019 C132.32,603.3969 176.395,600.1519 216.575,597.1929 " fill="none" id="UC-to-SeeGraphs" style="stroke:#181818;stroke-width:1.0;"/><polygon fill="#181818" points="221.962,596.7959,212.6925,593.4676,216.9755,597.1631,213.2801,601.446,221.962,596.7959" style="stroke:#181818;stroke-width:1.0;"/></g><!--link UC to EditGraphObjects--><g id="link_UC_EditGraphObjects"><path d="M101.0264,619.0589 C137.948,628.0749 192.663,641.4359 237.781,652.4529 " fill="none" id="UC-to-EditGraphObjects" style="stroke:#181818;stroke-width:1.0;"/><polygon fill="#181818" points="242.673,653.6469,234.8784,647.6266,237.8156,652.4611,232.9811,655.3984,242.673,653.6469" style="stroke:#181818;stroke-width:1.0;"/></g><!--link UC to SaveProgress--><g id="link_UC_SaveProgress"><path d="M90.3716,646.8379 C110.859,669.3659 139.415,696.7499 170,713.7969 C189.941,724.9109 213.18,732.9669 235.215,738.7619 " fill="none" id="UC-to-SaveProgress" style="stroke:#181818;stroke-width:1.0;"/><polygon fill="#181818" points="240.192,740.0379,232.4671,733.9283,235.3486,738.7963,230.4806,741.6778,240.192,740.0379" style="stroke:#181818;stroke-width:1.0;"/></g><!--link UC to PrepareGXL--><g id="link_UC_PrepareGXL"><path d="M72.5683,647.1339 C89.2113,688.7169 121.35,754.1789 170,791.7969 C184.351,802.8939 201.469,811.1999 218.866,817.4159 " fill="none" id="UC-to-PrepareGXL" style="stroke:#181818;stroke-width:1.0;"/><polygon fill="#181818" points="223.778,819.1139,216.5778,812.394,219.0522,817.481,213.9652,819.9553,223.778,819.1139" style="stroke:#181818;stroke-width:1.0;"/></g><!--link UC to DataEntry--><g id="link_UC_DataEntry"><path d="M64.4842,647.2629 C74.7843,705.5609 102.4228,816.2139 170,879.7969 C181.024,890.1699 194.285,898.3969 208.27,904.9219 " fill="none" id="UC-to-DataEntry" style="stroke:#181818;stroke-width:1.0;"/><polygon fill="#181818" points="213.039,907.0709,206.4771,899.7264,208.4805,905.0166,203.1903,907.02,213.039,907.0709" style="stroke:#181818;stroke-width:1.0;"/></g><!--link UC to EditGraphObjects2--><g id="link_UC_EditGraphObjects2"><path d="M59.2421,646.9209 C61.8218,721.3619 78.2365,886.8739 170,979.7969 C180.889,990.8229 194.38,999.2139 208.738,1005.5989 " fill="none" id="UC-to-EditGraphObjects2" style="stroke:#181818;stroke-width:1.0;"/><polygon fill="#181818" points="213.638,1007.6879,206.9281,1000.4783,209.0387,1005.7267,203.7903,1007.8373,213.638,1007.6879" style="stroke:#181818;stroke-width:1.0;"/></g><!--link UC to RenderGraph--><g id="link_UC_RenderGraph"><path d="M63.3636,647.0609 C75.4284,746.5069 112.213,1009.7539 170,1072.7969 C179.88,1083.576 192.192,1091.9868 205.458,1098.549 " fill="none" id="UC-to-RenderGraph" style="stroke:#181818;stroke-width:1.0;"/><polygon fill="#181818" points="209.991,1100.7043,203.5788,1093.2287,205.4749,1098.5583,200.1453,1100.4544,209.991,1100.7043" style="stroke:#181818;stroke-width:1.0;"/></g><!--link UC to PrepareGXLContent--><g id="link_UC_PrepareGXLContent"><path d="M99.5072,570.7009 C103.5673,565.3639 107.212,559.6809 110,553.7969 C193.386,377.8309 44.6512,268.8099 170,119.7969 C179.762,108.1869 192.394,99.4169 206.149,92.7969 " fill="none" id="UC-to-PrepareGXLContent" style="stroke:#181818;stroke-width:1.0;"/><polygon fill="#181818" points="210.854,90.6369,201.006,90.7646,206.3117,92.7266,204.3496,98.0323,210.854,90.6369" style="stroke:#181818;stroke-width:1.0;"/></g><!--link UC to AddNodes--><g id="link_UC_AddNodes"><path d="M99.3642,570.6319 C103.4487,565.3069 107.138,559.6449 110,553.7969 C182.453,405.7359 57.2793,308.0699 170,187.7969 C188.22,168.3559 215.17,158.9959 241.034,154.7759 " fill="none" id="UC-to-AddNodes" style="stroke:#181818;stroke-width:1.0;"/><polygon fill="#181818" points="246.19,153.9989,236.6938,151.3871,241.246,154.7452,237.8879,159.2974,246.19,153.9989" style="stroke:#181818;stroke-width:1.0;"/></g><!--link UC to AddEdges--><g id="link_UC_AddEdges"><path d="M99.1595,570.5299 C103.2792,565.2219 107.033,559.5929 110,553.7969 C171.569,433.5389 75.8445,352.6859 170,255.7969 C188.484,236.7769 215.341,227.4829 241.057,223.1979 " fill="none" id="UC-to-AddEdges" style="stroke:#181818;stroke-width:1.0;"/><polygon fill="#181818" points="246.183,222.4059,236.6781,219.8259,241.2415,223.1687,237.8987,227.7322,246.183,222.4059" style="stroke:#181818;stroke-width:1.0;"/></g><!--link UC to EditNodesAndEdges--><g id="link_UC_EditNodesAndEdges"><path d="M98.5049,570.6299 C102.7899,565.2659 106.762,559.5949 110,553.7969 C158.58,466.8079 99.5846,408.2869 170,337.7969 C183.436,324.3469 200.888,315.2159 219.05,309.0389 " fill="none" id="UC-to-EditNodesAndEdges" style="stroke:#181818;stroke-width:1.0;"/><polygon fill="#181818" points="224.189,307.3739,214.3943,306.3429,219.4325,308.9151,216.8602,313.9533,224.189,307.3739" style="stroke:#181818;stroke-width:1.0;"/></g><!--link UC to AutomatedSaving--><g id="link_UC_AutomatedSaving"><path d="M97.5405,570.5169 C102.0382,565.1299 106.325,559.4839 110,553.7969 C147.187,496.2539 117.988,456.3939 170,411.7969 C187.459,396.8269 210.129,387.7659 232.417,382.3239 " fill="none" id="UC-to-AutomatedSaving" style="stroke:#181818;stroke-width:1.0;"/><polygon fill="#181818" points="237.465,381.1499,227.7928,379.293,232.595,382.2827,229.6053,387.085,237.465,381.1499" style="stroke:#181818;stroke-width:1.0;"/></g><!--link UC to GraphMerging--><g id="link_UC_GraphMerging"><path d="M94.9297,570.5689 C100.036,564.9859 105.1849,559.2739 110,553.7969 C137.504,522.5139 134.596,503.7429 170,481.7969 C191.949,468.1909 218.754,459.8739 243.434,454.7899 " fill="none" id="UC-to-GraphMerging" style="stroke:#181818;stroke-width:1.0;"/><polygon fill="#181818" points="248.34,453.8149,238.7337,451.6425,243.4356,454.7878,240.2903,459.4896,248.34,453.8149" style="stroke:#181818;stroke-width:1.0;"/></g><!--SRC=[TPBBRW8n34NtynKMUrg93wY40B6XBIf2OXicPaW5oIZ9zF7tTTuPAAkPN5_RyN6ii1U4zM43QytwCwoui4et5pnPi0gqwCuMkD3OMg5amrgAmf9Pjkkn5UmYZ0LcOBcBeRr1lT38t3_f-qNJ30PRPX1MqgBsNOmBJVmPEYzCick7M7de51qW953T2rXnnM9tz_N-z-CdtJ5M9l5vw3cpCHjKY5Pjs1TkjUeqcjY9141A5BA3FaQAVwknPneTAETstvCWSZtfe4vmUDs06cm_k2Ovou6YCVMlJt8dG7-aZ70nv1tI1IG7gJYQnuFDycJkWfIFFyJU_J-Oy0CbZxnzQZZ7v9WZmPuHll7Oimx_6tQXQ4dIhtWILERUWIlnb1WOQ8Eh6dpE-PkRnoVImRMz6P3KLHY-M3oDCGDVPYuhRs8WGmD25zDAwS6gAosVqrATqtT86XWlbYuUqIlgBba3isjGgEno1zFfI_r-avGVQ_RSR2qRg-UMj48vAVcvF2etIu5gkVVbuj9I8EsYEdkOTPCHvMmSOqnopQjfzeixE54gS9Bd5auord2YLi69Ie7peDmi1MeuT-KId1Z8SCevCAYQZE4aumsSADTm_W00]--></g></svg>